<svg width="88" height="88" viewBox="0 0 88 88" fill="none" xmlns="http://www.w3.org/2000/svg">
<circle cx="44" cy="44" r="44" fill="#6A40EC"/>
<path d="M64.8808 64.8605H62.9102V36.2485C62.9102 34.9168 61.8267 33.8334 60.4951 33.8334H56.0906C54.7588 33.8334 53.6754 34.9169 53.6754 36.2485V64.8605H48.6718V49.212C48.6718 47.8803 47.5884 46.7968 46.2566 46.7968H41.8521C40.5204 46.7968 39.4369 47.8803 39.4369 49.212V64.8605H34.4334V56.7563C34.4334 55.4245 33.3498 54.3411 32.0182 54.3411H27.6136C26.2818 54.3411 25.1984 55.4246 25.1984 56.7563V64.8605H23.1216C22.6254 64.8605 22.2231 65.2628 22.2231 65.759C22.2231 66.2552 22.6254 66.6574 23.1216 66.6574H64.8808C65.377 66.6574 65.7792 66.2552 65.7792 65.759C65.7792 65.2628 65.377 64.8605 64.8808 64.8605ZM32.6363 64.8605H26.9952V56.7563C26.9952 56.4153 27.2725 56.138 27.6135 56.138H32.018C32.359 56.138 32.6363 56.4153 32.6363 56.7563V64.8605ZM46.8748 64.8605H41.2337V49.212C41.2337 48.871 41.5111 48.5937 41.852 48.5937H46.2565C46.5974 48.5937 46.8748 48.871 46.8748 49.212V64.8605ZM61.1134 64.8605H55.4722V36.2485C55.4722 35.9076 55.7496 35.6302 56.0906 35.6302H60.4951C60.836 35.6302 61.1134 35.9076 61.1134 36.2485V64.8605Z" fill="white"/>
<path d="M62.9051 21.6023C62.9177 21.3571 62.8314 21.1078 62.6442 20.9205C62.4569 20.7333 62.2076 20.647 61.9624 20.6596C61.948 20.659 61.9337 20.6575 61.919 20.6575H56.4834C55.9872 20.6575 55.585 21.0597 55.585 21.5559C55.585 22.0521 55.9872 22.4543 56.4834 22.4543H59.8397L50.958 31.3361L47.6086 27.9867C47.4402 27.8183 47.2116 27.7236 46.9734 27.7236C46.7351 27.7236 46.5065 27.8183 46.3381 27.9867L30.187 44.138C29.8361 44.4888 29.8361 45.0577 30.187 45.4086C30.3624 45.5839 30.5923 45.6716 30.8222 45.6716C31.0522 45.6716 31.2822 45.5839 31.4575 45.4084L46.9734 29.8925L50.3227 33.2419C50.6736 33.5927 51.2425 33.5927 51.5934 33.2419L61.1104 23.725V26.7626C61.1104 27.2588 61.5126 27.6611 62.0088 27.6611C62.505 27.6611 62.9072 27.2588 62.9072 26.7626V21.6458C62.9072 21.6311 62.9057 21.6168 62.9051 21.6023Z" fill="white"/>
<path d="M27.7947 48.8065C28.2909 48.8065 28.6932 48.4043 28.6932 47.9081C28.6932 47.4119 28.2909 47.0096 27.7947 47.0096C27.2985 47.0096 26.8963 47.4119 26.8963 47.9081C26.8963 48.4043 27.2985 48.8065 27.7947 48.8065Z" fill="white"/>
</svg>
