<svg width="88" height="88" viewBox="0 0 88 88" fill="none" xmlns="http://www.w3.org/2000/svg">
<circle cx="44" cy="44" r="44" fill="white"/>
<path fill-rule="evenodd" clip-rule="evenodd" d="M42.4186 40.7565C41.8777 40.7565 41.4379 40.3167 41.4378 39.7798C41.4378 39.2363 41.8776 38.7965 42.4185 38.7964C42.9587 38.7964 43.3992 39.2362 43.3992 39.7797C43.3993 40.3166 42.9588 40.7565 42.4186 40.7565ZM42.4185 37.2633C41.0302 37.2633 39.9021 38.3891 39.9022 39.7799C39.9022 41.1642 41.0305 42.2963 42.4187 42.2963C43.8069 42.2963 44.9351 41.1642 44.935 39.7798C44.9349 38.3888 43.8067 37.2632 42.4185 37.2633ZM65.3208 45.1549C64.4973 45.1549 63.8271 44.4821 63.8271 43.6606C63.8271 42.8325 64.4972 42.1663 65.3207 42.1661C66.1436 42.1661 66.8131 42.8324 66.8131 43.6605C66.8132 44.4821 66.1437 45.1549 65.3208 45.1549ZM53.8139 52.1352L53.8135 35.1864C53.8135 34.9858 53.6453 34.8177 53.446 34.8177L41.4745 34.8181L37.8268 38.4667L37.8272 52.1356C37.8272 52.3297 37.9954 52.4978 38.1946 52.4978L53.4465 52.4975C53.6458 52.4975 53.8139 52.3293 53.8139 52.1352ZM43.887 66.9494L43.8867 54.0373L38.1946 54.0374C37.1454 54.0374 36.2914 53.1835 36.2914 52.1356L36.2912 44.4246L33.2275 44.4247C32.9022 46.0549 31.5561 47.3293 29.845 47.5106C29.4693 47.574 29.0465 47.2723 28.9995 46.8314C28.9549 46.411 29.2596 46.0293 29.6814 45.9839C30.8711 45.8609 31.7676 44.8583 31.7676 43.6615C31.7676 42.4582 30.8709 41.462 29.6813 41.3326C29.2595 41.2874 28.9549 40.9122 28.9994 40.4853C29.0447 40.0648 29.4238 39.7607 29.8449 39.806C31.5559 39.9871 32.9022 41.2614 33.2277 42.8916L36.2913 42.8915L36.2912 38.1497C36.2912 37.9427 36.3727 37.7486 36.517 37.6063L40.6137 33.5049C40.7567 33.3625 40.9527 33.2849 41.1565 33.2849L43.8864 33.2848L43.886 20.3662C39.3915 18.6781 34.517 22.0109 34.5171 26.8677C34.5171 28.5043 35.0982 30.0979 36.1604 31.3508C36.4347 31.6742 36.3946 32.1594 36.0711 32.4311C35.7494 32.7033 35.2638 32.6662 34.9889 32.3406C34.0748 31.2603 33.4473 29.9729 33.1607 28.6016C29.811 26.9345 25.7718 29.367 25.7719 33.1883C25.7719 34.1781 26.0515 35.129 26.5807 35.957C26.8602 36.3881 26.6378 36.9705 26.1421 37.1085C23.2238 37.9301 21.1842 40.6212 21.1843 43.6616C21.1844 46.6955 23.2241 49.3931 26.1423 50.2081C26.6356 50.3517 26.8609 50.929 26.5809 51.3661C26.0518 52.1876 25.7723 53.1451 25.7724 54.1283C25.7725 57.9007 29.7272 60.3987 33.1613 58.7211C33.4478 57.3432 34.0754 56.0558 34.9894 54.9755C35.2644 54.652 35.7482 54.6132 36.0717 54.8849C36.3951 55.1631 36.4352 55.6483 36.1609 55.9717C35.0937 57.2306 34.5179 58.8124 34.5179 60.4547C34.518 65.3137 39.3973 68.6359 43.887 66.9494ZM61.668 57.4007C61.668 58.2287 60.9978 58.895 60.1744 58.8951C59.3515 58.8951 58.682 58.2289 58.682 57.4008C58.682 56.5793 59.3515 55.9065 60.1744 55.9065C60.9978 55.9064 61.668 56.5792 61.668 57.4007ZM56.277 64.4779C57.1006 64.4779 57.7701 65.1442 57.7701 65.9657C57.7701 66.7937 57.1006 67.46 56.277 67.4601C55.4542 67.4601 54.7846 66.7938 54.7846 65.9658C54.7846 65.1443 55.4542 64.4779 56.277 64.4779ZM56.2759 19.855C57.0994 19.855 57.769 20.5277 57.769 21.3493C57.769 22.1708 57.0994 22.8436 56.2759 22.8437C55.453 22.8437 54.7835 22.1709 54.7835 21.3494C54.7835 20.5277 55.453 19.855 56.2759 19.855ZM58.6813 29.9141C58.6813 29.0926 59.3509 28.4197 60.1737 28.4197C60.9973 28.4197 61.6675 29.0925 61.6675 29.914C61.6675 30.742 60.9973 31.4083 60.1738 31.4084C59.3509 31.4084 58.6813 30.7421 58.6813 29.9141ZM65.3207 40.6331C63.9156 40.6331 62.7311 41.5906 62.3903 42.8909L55.3494 42.8911L55.3493 39.6372L60.1738 39.6371C60.5989 39.6371 60.9417 39.2942 60.9417 38.8737L60.9416 32.8446C62.2418 32.5018 63.2031 31.3179 63.2031 29.9141C63.2031 28.2451 61.8445 26.8867 60.1736 26.8868C58.5039 26.8868 57.1456 28.2453 57.1456 29.9144C57.1456 31.3182 58.107 32.5019 59.406 32.8447L59.4061 38.104L55.3493 38.1041L55.3492 35.1866C55.3492 34.1387 54.4952 33.2848 53.446 33.2848L50.262 33.2849L50.2618 26.8224L54.3948 23.7237C56.3749 25.2849 59.3047 23.8773 59.3046 21.3494C59.3046 19.6804 57.9461 18.3219 56.2758 18.322C54.1276 18.322 52.6651 20.5039 53.4722 22.4946L49.0334 25.826C48.84 25.9684 48.7261 26.1947 48.7262 26.4406L48.7263 33.2848L45.422 33.2849L45.4216 19.8553C45.4216 19.5577 45.2464 19.2796 44.9733 19.1566C43.8645 18.6521 42.6807 18.3934 41.4548 18.3934C36.7823 18.3935 32.9813 22.1973 32.9814 26.868C28.6662 25.4519 24.236 28.6658 24.2361 33.1883C24.2361 34.1457 24.4386 35.0837 24.8287 35.9376C21.7371 37.2056 19.6484 40.259 19.6484 43.6617C19.6485 47.0579 21.7375 50.1112 24.829 51.379C22.8479 55.7486 26.0395 60.7849 30.8919 60.7848C31.6054 60.7848 32.3118 60.6683 32.982 60.4484C32.9821 65.1277 36.7829 68.9226 41.456 68.9225C42.6818 68.9225 43.8656 68.6702 44.9744 68.1591C45.2474 68.0362 45.4227 67.7645 45.4227 67.4604L45.4223 54.0374L48.7267 54.0373L48.7268 60.8815C48.7268 61.1208 48.8407 61.3473 49.0341 61.496L53.4732 64.8274C52.6669 66.7799 54.1108 68.9934 56.2769 68.9934C57.9473 68.9934 59.3056 67.6348 59.3056 65.9658C59.3055 63.4265 56.3539 62.0296 54.3956 63.5982L50.2625 60.4998L50.2624 54.0373L53.4465 54.0371C54.4957 54.0371 55.3497 53.1833 55.3496 52.1353L55.3494 49.2113L59.4062 49.2112L59.4063 54.4705C58.1073 54.8134 57.146 55.9973 57.1461 57.4009C57.1461 59.07 58.5047 60.4284 60.1743 60.4283C61.8452 60.4283 63.2037 59.0697 63.2037 57.4007C63.2037 55.997 62.2423 54.8132 60.9421 54.4704L60.9419 48.4478C60.9419 48.0208 60.5991 47.678 60.1741 47.678L55.3496 47.6781L55.3494 44.4242L62.3903 44.424C62.7313 45.7242 63.9158 46.688 65.3208 46.688C66.9905 46.688 68.3489 45.3295 68.3488 43.6605C68.3488 41.9915 66.9903 40.633 65.3207 40.6331Z" fill="black"/>
</svg>
