<svg width="88" height="88" viewBox="0 0 88 88" fill="none" xmlns="http://www.w3.org/2000/svg">
<circle cx="44" cy="44" r="44" fill="white"/>
<path fill-rule="evenodd" clip-rule="evenodd" d="M66.759 42.702C66.2321 42.7909 65.8763 43.2904 65.9653 43.8183C66.1753 45.0595 66.2812 46.3083 66.2812 47.5325C66.2812 54.3607 63.2378 60.524 58.3342 64.6279C57.4778 59.0674 53.53 54.6076 48.2876 53.0116C50.3718 51.6213 51.75 49.2524 51.75 46.5637C51.75 42.2895 48.2733 38.8137 44 38.8137C39.7267 38.8137 36.25 42.2895 36.25 46.5637C36.25 49.2524 37.6282 51.6213 39.7124 53.0116C34.47 54.6076 30.5222 59.0674 29.6658 64.6279C24.7622 60.524 21.7188 54.3607 21.7188 47.5325C21.7188 46.3083 21.8247 45.0595 22.0347 43.8183C22.1237 43.2904 21.7679 42.7909 21.241 42.702C20.7018 42.6111 20.2136 42.9688 20.1237 43.4966C19.8967 44.8419 19.7812 46.2004 19.7812 47.5325C19.7812 59.4299 28.2786 69.4713 39.9859 71.4088C40.0389 71.4182 40.0928 71.422 40.1449 71.422C40.6103 71.422 41.0209 71.0852 41.0994 70.6122C41.1874 70.0843 40.8298 69.5848 40.3019 69.4977C37.0375 68.9574 34.051 67.7232 31.4648 65.9724C31.9321 59.3981 37.3352 54.3137 44 54.3137C50.6648 54.3137 56.0679 59.3981 56.5352 65.9724C53.949 67.7232 50.9625 68.9574 47.6981 69.4977C47.1702 69.5848 46.8126 70.0843 46.9006 70.6122C46.9791 71.0852 47.3897 71.422 47.8551 71.422C47.9072 71.422 47.9611 71.4182 48.0141 71.4088C59.7214 69.4713 68.2188 59.4299 68.2188 47.5325C68.2188 46.2004 68.1033 44.8419 67.8763 43.4966C67.7864 42.9688 67.2926 42.6093 66.759 42.702ZM38.1875 46.5637C38.1875 43.3585 40.7948 40.7512 44 40.7512C47.2052 40.7512 49.8125 43.3585 49.8125 46.5637C49.8125 49.7689 47.2052 52.3762 44 52.3762C40.7948 52.3762 38.1875 49.7689 38.1875 46.5637Z" fill="black"/>
<path fill-rule="evenodd" clip-rule="evenodd" d="M54.6089 23.2721C54.4944 22.9202 54.1917 22.6647 53.8265 22.6118L47.6366 21.713L44.8684 16.103C44.543 15.4445 43.4569 15.4445 43.1315 16.103L40.3634 21.713L34.1734 22.6118C33.8082 22.6647 33.5055 22.9202 33.391 23.2721C33.2775 23.6221 33.3721 24.0081 33.636 24.2654L38.1156 28.6305L37.0579 34.7949C36.9954 35.1601 37.1449 35.5272 37.4429 35.7429C37.7428 35.9604 38.1373 35.9926 38.4637 35.8167L44 32.9047L49.5362 35.8167C49.6781 35.8923 49.8333 35.9283 49.9875 35.9283C50.188 35.9283 50.3877 35.8658 50.557 35.7429C50.855 35.5272 51.0045 35.1601 50.942 34.7949L49.8844 28.6305L54.3639 24.2654C54.6278 24.0081 54.7224 23.6221 54.6089 23.2721ZM48.1673 27.5974C47.9393 27.8207 47.8352 28.1404 47.8891 28.4564L48.7009 33.1885L44.4512 30.954C44.3093 30.8802 44.1551 30.8423 44 30.8423C43.8448 30.8423 43.6906 30.8802 43.5487 30.954L39.2991 33.1885L40.1108 28.4564C40.1647 28.1404 40.0606 27.8207 39.8326 27.5974L36.3947 24.2484L41.1457 23.5578C41.4617 23.5105 41.7342 23.3137 41.8751 23.028L44 18.7216L46.1248 23.028C46.2657 23.3137 46.5382 23.5105 46.8542 23.5578L51.6052 24.2484L48.1673 27.5974Z" fill="black"/>
<path fill-rule="evenodd" clip-rule="evenodd" d="M20.8181 38.8591C20.7556 39.2243 20.9051 39.5914 21.2031 39.8071C21.504 40.0247 21.8994 40.0549 22.2239 39.8809L26.5625 37.599L30.901 39.8809C31.0429 39.9565 31.1981 39.9925 31.3523 39.9925C31.5528 39.9925 31.7525 39.9301 31.9218 39.8071C32.2198 39.5914 32.3693 39.2243 32.3068 38.8591L31.4781 34.0286L34.9889 30.6077C35.2528 30.3504 35.3474 29.9644 35.2339 29.6144C35.1194 29.2625 34.8167 29.007 34.4515 28.954L29.6002 28.2502L27.4309 23.853C27.1055 23.1945 26.0194 23.1945 25.694 23.853L23.5247 28.2502L18.6734 28.954C18.3082 29.007 18.0055 29.2625 17.891 29.6144C17.7775 29.9644 17.8721 30.3504 18.136 30.6077L21.6468 34.0286L20.8181 38.8591ZM20.8947 30.5907L24.3071 30.095C24.6231 30.0477 24.8955 29.8509 25.0365 29.5652L26.5625 26.4716L28.0884 29.5652C28.2294 29.8509 28.5019 30.0477 28.8178 30.095L32.2302 30.5907L29.761 32.9955C29.533 33.2188 29.429 33.5386 29.4829 33.8546L30.0657 37.2527L27.0137 35.6483C26.8718 35.5745 26.7176 35.5366 26.5625 35.5366C26.4073 35.5366 26.2531 35.5745 26.1112 35.6483L23.0593 37.2527L23.642 33.8546C23.6959 33.5386 23.5919 33.2188 23.3639 32.9955L20.8947 30.5907Z" fill="black"/>
<path fill-rule="evenodd" clip-rule="evenodd" d="M69.3265 28.954L64.4752 28.2502L62.3059 23.853C61.9805 23.1945 60.8944 23.1945 60.569 23.853L58.3997 28.2502L53.5484 28.954C53.1832 29.007 52.8805 29.2625 52.766 29.6144C52.6525 29.9644 52.7471 30.3504 53.011 30.6077L56.5218 34.0286L55.6931 38.8591C55.6306 39.2243 55.7801 39.5914 56.0781 39.8071C56.378 40.0247 56.7725 40.0549 57.0989 39.8809L61.4375 37.599L65.776 39.8809C65.9179 39.9565 66.0731 39.9925 66.2273 39.9925C66.4278 39.9925 66.6275 39.9301 66.7968 39.8071C67.0948 39.5914 67.2443 39.2243 67.1818 38.8591L66.3531 34.0286L69.8639 30.6077C70.1278 30.3504 70.2224 29.9644 70.1089 29.6144C69.9944 29.2625 69.6917 29.007 69.3265 28.954ZM64.636 32.9955C64.408 33.2188 64.304 33.5386 64.3579 33.8546L64.9407 37.2527L61.8887 35.6483C61.7468 35.5745 61.5926 35.5366 61.4375 35.5366C61.2823 35.5366 61.1281 35.5745 60.9862 35.6483L57.9343 37.2527L58.517 33.8546C58.5709 33.5386 58.4669 33.2188 58.2389 32.9955L55.7697 30.5907L59.1821 30.095C59.4981 30.0477 59.7705 29.8509 59.9115 29.5652L61.4375 26.4716L62.9634 29.5652C63.1044 29.8509 63.3769 30.0477 63.6928 30.095L67.1052 30.5907L64.636 32.9955Z" fill="black"/>
<path d="M44 71.7512C44.535 71.7512 44.9688 71.3175 44.9688 70.7825C44.9688 70.2474 44.535 69.8137 44 69.8137C43.465 69.8137 43.0312 70.2474 43.0312 70.7825C43.0312 71.3175 43.465 71.7512 44 71.7512Z" fill="black"/>
</svg>
