<?xml version="1.0" encoding="UTF-8"?>
<svg xmlns="http://www.w3.org/2000/svg" version="1.1" width="200" height="200" viewBox="0 0 200 200"><rect x="0" y="0" width="200" height="200" fill="#ffffff"/><g transform="scale(5.405)"><g transform="translate(0,0)"><path fill-rule="evenodd" d="M9 0L9 1L8 1L8 2L9 2L9 3L8 3L8 4L10 4L10 7L11 7L11 4L12 4L12 5L13 5L13 4L14 4L14 5L15 5L15 6L14 6L14 7L15 7L15 6L16 6L16 9L15 9L15 8L14 8L14 9L13 9L13 6L12 6L12 9L13 9L13 10L10 10L10 9L11 9L11 8L6 8L6 9L5 9L5 8L0 8L0 9L4 9L4 10L6 10L6 11L7 11L7 12L5 12L5 13L4 13L4 14L5 14L5 16L4 16L4 18L3 18L3 16L2 16L2 15L0 15L0 16L2 16L2 19L3 19L3 20L5 20L5 21L4 21L4 22L3 22L3 21L2 21L2 20L1 20L1 19L0 19L0 20L1 20L1 23L0 23L0 29L1 29L1 26L2 26L2 22L3 22L3 24L6 24L6 25L8 25L8 23L9 23L9 22L8 22L8 20L6 20L6 19L7 19L7 18L6 18L6 17L7 17L7 16L8 16L8 15L11 15L11 13L12 13L12 14L13 14L13 15L12 15L12 17L14 17L14 18L11 18L11 19L10 19L10 20L11 20L11 21L12 21L12 22L13 22L13 23L12 23L12 25L16 25L16 26L15 26L15 27L14 27L14 28L13 28L13 29L12 29L12 27L13 27L13 26L11 26L11 25L10 25L10 24L9 24L9 25L10 25L10 26L11 26L11 27L8 27L8 26L6 26L6 27L5 27L5 26L4 26L4 25L3 25L3 28L5 28L5 29L8 29L8 31L9 31L9 28L11 28L11 29L10 29L10 30L11 30L11 29L12 29L12 30L13 30L13 29L14 29L14 30L15 30L15 32L13 32L13 31L12 31L12 33L13 33L13 34L9 34L9 33L11 33L11 31L10 31L10 32L8 32L8 37L9 37L9 36L10 36L10 37L13 37L13 36L12 36L12 35L14 35L14 36L16 36L16 35L17 35L17 34L20 34L20 36L22 36L22 37L23 37L23 36L24 36L24 37L27 37L27 36L29 36L29 35L30 35L30 36L31 36L31 37L37 37L37 33L36 33L36 31L37 31L37 30L35 30L35 28L30 28L30 26L29 26L29 25L31 25L31 27L33 27L33 26L35 26L35 27L36 27L36 28L37 28L37 26L36 26L36 25L37 25L37 22L36 22L36 21L37 21L37 18L36 18L36 17L37 17L37 14L36 14L36 13L37 13L37 12L36 12L36 11L37 11L37 10L36 10L36 8L35 8L35 9L34 9L34 8L33 8L33 12L32 12L32 13L31 13L31 12L29 12L29 9L30 9L30 8L29 8L29 5L27 5L27 4L26 4L26 3L25 3L25 2L26 2L26 1L25 1L25 2L21 2L21 1L22 1L22 0L19 0L19 1L18 1L18 3L17 3L17 4L16 4L16 2L17 2L17 0L16 0L16 1L15 1L15 0L14 0L14 1L15 1L15 3L13 3L13 4L12 4L12 2L13 2L13 1L11 1L11 2L10 2L10 0ZM23 0L23 1L24 1L24 0ZM28 0L28 1L27 1L27 2L28 2L28 3L29 3L29 0ZM19 1L19 3L18 3L18 4L17 4L17 8L18 8L18 9L17 9L17 10L19 10L19 11L21 11L21 10L19 10L19 8L20 8L20 9L23 9L23 8L24 8L24 9L25 9L25 10L22 10L22 12L18 12L18 11L17 11L17 12L16 12L16 13L15 13L15 14L16 14L16 15L17 15L17 16L16 16L16 17L15 17L15 15L13 15L13 16L14 16L14 17L15 17L15 18L14 18L14 19L12 19L12 21L13 21L13 20L14 20L14 22L16 22L16 23L13 23L13 24L19 24L19 25L20 25L20 26L18 26L18 27L17 27L17 26L16 26L16 27L17 27L17 28L18 28L18 29L17 29L17 30L16 30L16 29L15 29L15 30L16 30L16 32L18 32L18 33L20 33L20 34L21 34L21 35L25 35L25 36L27 36L27 35L26 35L26 33L27 33L27 34L28 34L28 35L29 35L29 33L27 33L27 32L28 32L28 30L26 30L26 29L27 29L27 28L28 28L28 27L27 27L27 26L28 26L28 25L29 25L29 24L30 24L30 23L29 23L29 24L28 24L28 25L25 25L25 24L27 24L27 23L24 23L24 22L29 22L29 20L28 20L28 19L30 19L30 20L31 20L31 21L30 21L30 22L31 22L31 21L32 21L32 22L33 22L33 24L36 24L36 23L34 23L34 22L35 22L35 21L34 21L34 20L36 20L36 19L34 19L34 17L32 17L32 18L31 18L31 17L30 17L30 18L28 18L28 17L29 17L29 15L27 15L27 14L28 14L28 13L29 13L29 14L30 14L30 16L31 16L31 15L32 15L32 16L33 16L33 15L34 15L34 16L35 16L35 17L36 17L36 15L34 15L34 13L32 13L32 14L31 14L31 13L29 13L29 12L28 12L28 11L27 11L27 10L28 10L28 9L29 9L29 8L27 8L27 7L28 7L28 6L27 6L27 7L26 7L26 4L25 4L25 3L23 3L23 4L22 4L22 3L21 3L21 2L20 2L20 1ZM10 3L10 4L11 4L11 3ZM19 3L19 5L21 5L21 6L20 6L20 8L23 8L23 6L22 6L22 4L20 4L20 3ZM15 4L15 5L16 5L16 4ZM23 4L23 5L24 5L24 8L25 8L25 9L26 9L26 10L27 10L27 9L26 9L26 8L25 8L25 4ZM8 5L8 7L9 7L9 5ZM18 6L18 8L19 8L19 6ZM21 6L21 7L22 7L22 6ZM31 8L31 10L30 10L30 11L32 11L32 8ZM6 9L6 10L8 10L8 12L9 12L9 11L10 11L10 13L11 13L11 11L10 11L10 10L8 10L8 9ZM0 10L0 11L2 11L2 10ZM35 10L35 11L34 11L34 12L35 12L35 13L36 13L36 12L35 12L35 11L36 11L36 10ZM3 11L3 12L4 12L4 11ZM12 11L12 13L13 13L13 14L14 14L14 13L13 13L13 12L14 12L14 11ZM26 11L26 12L25 12L25 13L22 13L22 14L21 14L21 13L18 13L18 12L17 12L17 13L16 13L16 14L17 14L17 13L18 13L18 15L19 15L19 17L18 17L18 16L17 16L17 17L16 17L16 18L15 18L15 21L16 21L16 22L17 22L17 21L18 21L18 22L20 22L20 21L21 21L21 22L22 22L22 23L20 23L20 25L21 25L21 26L22 26L22 27L20 27L20 29L18 29L18 30L17 30L17 31L18 31L18 32L19 32L19 31L18 31L18 30L20 30L20 33L21 33L21 34L22 34L22 33L23 33L23 34L25 34L25 33L26 33L26 32L27 32L27 31L26 31L26 30L24 30L24 29L26 29L26 28L27 28L27 27L26 27L26 26L25 26L25 25L23 25L23 22L24 22L24 21L27 21L27 19L28 19L28 18L27 18L27 17L28 17L28 16L27 16L27 17L26 17L26 16L25 16L25 15L26 15L26 14L25 14L25 13L27 13L27 11ZM1 12L1 14L3 14L3 13L2 13L2 12ZM6 13L6 14L8 14L8 13ZM19 14L19 15L20 15L20 16L21 16L21 17L20 17L20 18L18 18L18 17L17 17L17 19L16 19L16 21L17 21L17 20L18 20L18 21L20 21L20 20L21 20L21 21L24 21L24 20L21 20L21 19L24 19L24 18L23 18L23 17L25 17L25 16L23 16L23 17L22 17L22 16L21 16L21 14ZM22 14L22 15L24 15L24 14ZM6 15L6 16L7 16L7 15ZM9 16L9 17L8 17L8 18L9 18L9 17L11 17L11 16ZM0 17L0 18L1 18L1 17ZM21 17L21 18L20 18L20 19L18 19L18 20L20 20L20 19L21 19L21 18L22 18L22 17ZM5 18L5 19L6 19L6 18ZM25 18L25 20L26 20L26 19L27 19L27 18ZM30 18L30 19L31 19L31 20L32 20L32 21L33 21L33 22L34 22L34 21L33 21L33 18L32 18L32 19L31 19L31 18ZM6 21L6 22L5 22L5 23L6 23L6 24L7 24L7 23L8 23L8 22L7 22L7 21ZM6 22L6 23L7 23L7 22ZM10 22L10 23L11 23L11 22ZM21 24L21 25L22 25L22 26L23 26L23 27L22 27L22 28L21 28L21 29L20 29L20 30L21 30L21 31L22 31L22 32L21 32L21 33L22 33L22 32L23 32L23 33L25 33L25 32L26 32L26 31L24 31L24 30L23 30L23 29L24 29L24 28L26 28L26 27L24 27L24 26L23 26L23 25L22 25L22 24ZM31 24L31 25L32 25L32 26L33 26L33 25L32 25L32 24ZM6 27L6 28L7 28L7 27ZM22 28L22 29L21 29L21 30L22 30L22 31L23 31L23 30L22 30L22 29L23 29L23 28ZM29 29L29 32L32 32L32 29ZM33 29L33 30L34 30L34 29ZM30 30L30 31L31 31L31 30ZM34 31L34 32L33 32L33 33L34 33L34 34L32 34L32 33L31 33L31 34L30 34L30 35L31 35L31 36L32 36L32 35L34 35L34 36L36 36L36 35L35 35L35 33L34 33L34 32L35 32L35 31ZM14 33L14 35L15 35L15 34L16 34L16 33ZM31 34L31 35L32 35L32 34ZM10 35L10 36L11 36L11 35ZM18 35L18 36L17 36L17 37L18 37L18 36L19 36L19 35ZM0 0L0 7L7 7L7 0ZM1 1L1 6L6 6L6 1ZM2 2L2 5L5 5L5 2ZM30 0L30 7L37 7L37 0ZM31 1L31 6L36 6L36 1ZM32 2L32 5L35 5L35 2ZM0 30L0 37L7 37L7 30ZM1 31L1 36L6 36L6 31ZM2 32L2 35L5 35L5 32Z" fill="#000000"/></g></g></svg>
