<svg width="52" height="52" viewBox="0 0 52 52" fill="none" xmlns="http://www.w3.org/2000/svg">
<path d="M44.4889 7.51062H44.1856V4.43396H41.0944V7.51062H40.7911C40.1793 7.50297 39.572 7.61688 39.0045 7.84575C38.437 8.07461 37.9206 8.41386 37.4853 8.84384C37.0499 9.27382 36.7043 9.78596 36.4684 10.3505C36.2325 10.9151 36.1111 11.521 36.1111 12.1328V30.6217C36.1111 31.8476 36.5981 33.0233 37.4649 33.8901C38.3318 34.757 39.5074 35.244 40.7333 35.244H41.0367V47.5651H44.1133V35.244H44.4167C45.0297 35.2535 45.6385 35.1411 46.2077 34.9131C46.7769 34.6851 47.295 34.3461 47.7319 33.9159C48.1688 33.4858 48.5157 32.973 48.7525 32.4074C48.9893 31.8419 49.1112 31.2349 49.1111 30.6217V12.1328C49.1111 10.907 48.6241 9.73128 47.7573 8.86444C46.8905 7.99761 45.7148 7.51062 44.4889 7.51062ZM46.0344 30.6217C46.0344 31.0316 45.8716 31.4248 45.5818 31.7146C45.2919 32.0045 44.8988 32.1673 44.4889 32.1673H40.7911C40.3812 32.1673 39.9881 32.0045 39.6982 31.7146C39.4084 31.4248 39.2456 31.0316 39.2456 30.6217V12.1328C39.2456 11.7229 39.4084 11.3298 39.6982 11.04C39.9881 10.7501 40.3812 10.5873 40.7911 10.5873H44.4889C44.8988 10.5873 45.2919 10.7501 45.5818 11.04C45.8716 11.3298 46.0344 11.7229 46.0344 12.1328V30.6217Z" fill="#212121"/>
<path d="M27.8493 18.3005H27.546V4.43384H24.4549V18.3005H24.1515C22.9256 18.3005 21.7499 18.7875 20.8831 19.6543C20.0163 20.5212 19.5293 21.6968 19.5293 22.9227V39.8661C19.5293 41.092 20.0163 42.2676 20.8831 43.1345C21.7499 44.0013 22.9256 44.4883 24.1515 44.4883H24.4549V47.565H27.5315V44.4883H27.8349C29.0607 44.4883 30.2364 44.0013 31.1033 43.1345C31.9701 42.2676 32.4571 41.092 32.4571 39.8661V22.9227C32.4571 21.6993 31.9721 20.5258 31.1084 19.6594C30.2447 18.793 29.0727 18.3043 27.8493 18.3005ZM29.3949 39.8661C29.3949 40.276 29.232 40.6691 28.9422 40.9589C28.6523 41.2488 28.2592 41.4116 27.8493 41.4116H24.1515C23.7416 41.4116 23.3485 41.2488 23.0586 40.9589C22.7688 40.6691 22.606 40.276 22.606 39.8661V22.9227C22.606 22.5128 22.7688 22.1197 23.0586 21.8299C23.3485 21.54 23.7416 21.3772 24.1515 21.3772H27.8493C28.2592 21.3772 28.6523 21.54 28.9422 21.8299C29.232 22.1197 29.3949 22.5128 29.3949 22.9227V39.8661Z" fill="#212121"/>
<path d="M11.2089 7.51062H10.9056V4.43396H7.81444V7.51062H7.51111C6.28522 7.51062 5.10954 7.99761 4.24271 8.86444C3.37587 9.73128 2.88889 10.907 2.88889 12.1328V30.6217C2.88889 31.8476 3.37587 33.0233 4.24271 33.8901C5.10954 34.757 6.28522 35.244 7.51111 35.244H7.81444V47.5651H10.9056V35.244H11.2089C11.8207 35.2516 12.428 35.1377 12.9955 34.9088C13.563 34.68 14.0794 34.3407 14.5147 33.9107C14.9501 33.4808 15.2957 32.9686 15.5316 32.404C15.7675 31.8394 15.8889 31.2336 15.8889 30.6217V12.1328C15.8889 11.521 15.7675 10.9151 15.5316 10.3505C15.2957 9.78596 14.9501 9.27382 14.5147 8.84384C14.0794 8.41386 13.563 8.07461 12.9955 7.84575C12.428 7.61688 11.8207 7.50297 11.2089 7.51062ZM12.7544 30.6217C12.7544 31.0316 12.5916 31.4248 12.3018 31.7146C12.0119 32.0045 11.6188 32.1673 11.2089 32.1673H7.51111C7.1012 32.1673 6.70809 32.0045 6.41824 31.7146C6.12839 31.4248 5.96556 31.0316 5.96556 30.6217V12.1328C5.96556 11.7229 6.12839 11.3298 6.41824 11.04C6.70809 10.7501 7.1012 10.5873 7.51111 10.5873H11.2089C11.6188 10.5873 12.0119 10.7501 12.3018 11.04C12.5916 11.3298 12.7544 11.7229 12.7544 12.1328V30.6217Z" fill="#212121"/>
</svg>
