<svg width="81" height="81" viewBox="0 0 81 81" fill="none" xmlns="http://www.w3.org/2000/svg">
<circle cx="40.237" cy="40.237" r="40.237" fill="url(#paint0_linear_5_785)"/>
<g clip-path="url(#clip0_5_785)">
<path d="M51.0898 32.9455C51.8324 33.6881 51.8324 34.8918 51.0898 35.634L38.3365 48.3877C37.5939 49.1299 36.3905 49.1299 35.6479 48.3877L29.5769 42.3163C28.8343 41.574 28.8343 40.3703 29.5769 39.6281C30.3191 38.8855 31.5228 38.8855 32.2651 39.6281L36.992 44.3551L48.4013 32.9455C49.1439 32.2032 50.3476 32.2032 51.0898 32.9455ZM64.6667 40.6666C64.6667 54.1168 53.7817 64.9999 40.3333 64.9999C26.8831 64.9999 16 54.115 16 40.6666C16 27.2163 26.885 16.3333 40.3333 16.3333C53.7836 16.3333 64.6667 27.2182 64.6667 40.6666ZM60.8646 40.6666C60.8646 29.3179 51.6806 20.1353 40.3333 20.1353C28.9846 20.1353 19.8021 29.3194 19.8021 40.6666C19.8021 52.0153 28.9861 61.1979 40.3333 61.1979C51.682 61.1979 60.8646 52.0138 60.8646 40.6666Z" fill="white"/>
</g>
<defs>
<linearGradient id="paint0_linear_5_785" x1="40.237" y1="0" x2="40.237" y2="80.474" gradientUnits="userSpaceOnUse">
<stop stop-color="#B46AFF"/>
<stop offset="1" stop-color="#8F2CF3"/>
</linearGradient>
<clipPath id="clip0_5_785">
<rect width="48.6667" height="48.6667" fill="white" transform="translate(16 16.3333)"/>
</clipPath>
</defs>
</svg>
