<svg width="81" height="81" viewBox="0 0 81 81" fill="none" xmlns="http://www.w3.org/2000/svg">
<circle cx="40.237" cy="40.237" r="40.237" fill="url(#paint0_linear_4_10)"/>
<path fill-rule="evenodd" clip-rule="evenodd" d="M48.126 28.7669H46.9412V31.1254H48.9453C50.4844 31.1254 50.4844 28.7669 48.9453 28.7669H48.126ZM28.1177 53.315C19.5917 53.315 13.4132 45.1988 15.5945 37.0271C17.8644 28.5787 27.6305 24.8251 34.9606 29.4092C34.7834 24.6368 37.2194 20.1635 41.427 17.7386C47.6056 14.1621 55.5336 16.288 59.1101 22.4666C62.6644 28.623 60.5495 36.5621 54.4042 40.1386C62.4651 45.2541 62.454 57.3455 53.9391 62.2617C45.546 67.1005 34.9384 61.2652 34.5287 51.6098C32.5689 52.7282 30.3543 53.315 28.1177 53.315ZM36.3225 30.3835C39.146 32.6977 40.8844 36.2188 41.0284 39.8175C44.7045 37.7136 49.2886 37.5697 53.0754 39.3967C59.0879 36.4181 61.3578 28.922 58.0028 23.1088C54.7806 17.5393 47.6388 15.6237 42.0692 18.8458C37.9723 21.2043 35.7357 25.7109 36.3225 30.3835ZM36.2561 50.4251L35.8021 50.7794C35.5806 59.8368 45.4464 65.6832 53.2969 61.1545C58.8665 57.9323 60.782 50.7905 57.571 45.2209C54.2049 39.3967 46.5537 37.6583 41.0062 41.3344C40.7405 44.933 39.0242 48.1884 36.2561 50.4251ZM28.0844 28.7005C19.182 28.7005 13.5128 38.4334 17.9972 46.2064C21.6623 52.5621 30.1772 53.9019 35.636 49.2735C39.8658 45.7081 41.0616 39.4963 38.2049 34.5358C36.1232 30.9372 32.2478 28.7005 28.0844 28.7005ZM28.1177 50.5026C24.4969 50.5026 21.1308 48.5649 19.326 45.4424C15.4062 38.6327 20.4332 30.2507 28.0844 30.2507C31.7052 30.2507 35.0713 32.1884 36.8761 35.3109C40.7959 42.1095 35.7578 50.5026 28.1177 50.5026ZM28.0844 31.524C21.4076 31.524 17.0007 38.8541 20.4332 44.8002C22.8803 49.0299 28.3391 50.4583 32.5246 48.0334C36.7543 45.5974 38.2049 40.1718 35.7689 35.9531C34.1855 33.2181 31.2512 31.524 28.0844 31.524ZM52.9647 37.6029C52.3889 37.6029 48.4692 35.488 42.9661 37.2929C42.6118 37.4036 42.2353 37.1932 42.1467 36.8389C41.4713 34.1593 39.9986 31.668 37.9834 29.7856C37.8505 29.6638 37.7841 29.5088 37.773 29.3427C37.5516 23.6071 42.2021 18.8126 47.8824 18.8126C51.5031 18.8126 54.8692 20.7614 56.6741 23.8839C59.3979 28.6119 57.9253 34.6022 53.308 37.5143C53.1972 37.5697 53.0865 37.6029 52.9647 37.6029ZM47.4616 35.2998C49.3218 35.2998 51.1377 35.6209 52.8872 36.2521C56.7184 33.65 57.9031 28.5566 55.5668 24.515C53.1308 20.3074 47.6609 18.8569 43.4754 21.2818C40.6962 22.8874 39.0132 25.8327 39.0464 29.0327C40.9841 30.904 42.4346 33.2957 43.2097 35.8756C44.5827 35.488 46.0111 35.2998 47.4616 35.2998ZM47.4838 61.1766C42.2021 61.1766 37.773 57.0576 37.3633 51.8534C37.3523 51.6431 37.4298 51.4548 37.5848 51.322C40.1758 49.0742 41.8921 45.9628 42.4125 42.5524C42.4457 42.3531 42.5675 42.187 42.7447 42.0874C47.5059 39.5849 53.5294 41.3012 56.2312 45.9849C60.162 52.7835 55.1239 61.1766 47.4838 61.1766ZM38.6699 52.0638C39.3896 58.3752 46.4319 61.8631 51.8907 58.7185C56.1204 56.2714 57.571 50.8569 55.135 46.6271C52.8208 42.6299 47.7495 41.0908 43.6194 43.0728C43.0215 46.5386 41.272 49.7053 38.6699 52.0638ZM28.0955 47.8451C27.8851 47.8451 27.6858 47.7344 27.564 47.5572L22.6145 40.0389L22.5149 39.6846L22.6699 39.2749L27.6083 33.1406C27.8408 32.8417 28.3502 32.8417 28.5938 33.1406L33.5543 39.297C33.7204 39.5185 33.7315 39.8285 33.5654 40.0611L28.6381 47.5572C28.5163 47.7344 28.317 47.8451 28.0955 47.8451ZM25.0395 41.4008L28.0955 46.0514L31.1626 41.4008C30.6422 41.6666 28.6934 42.7517 28.3059 42.8735C28.1398 42.9289 27.9626 42.9178 27.8076 42.8403L25.0395 41.4008ZM24.1426 39.4853L28.0955 41.5448L32.0595 39.4853L28.0955 34.5579L24.1426 39.4853ZM47.4727 56.3379C46.6754 56.3379 46.8415 55.3524 46.8415 54.8209C46.299 54.8209 45.2692 54.987 45.2692 54.1787C45.2692 53.8244 45.5571 53.5365 45.9114 53.5365H48.4028V51.6874H45.9114C45.5571 51.6874 45.2692 51.3995 45.2692 51.0562C45.2692 47.0479 44.926 47.2804 46.8415 47.2804C46.8415 46.7489 46.6754 45.7635 47.4727 45.7635C48.2699 45.7635 48.1149 46.7489 48.1149 47.2804C48.6464 47.2804 49.6761 47.1143 49.6761 47.9226C49.6761 48.277 49.3993 48.5649 49.045 48.5649H46.5537V50.414H49.045C49.3993 50.414 49.6761 50.7019 49.6761 51.0562C49.6761 55.0534 50.0305 54.8209 48.1149 54.8209C48.1149 55.3524 48.2699 56.3379 47.4727 56.3379ZM46.299 32.3988C45.6125 32.3988 44.3945 32.6202 44.3945 31.7676C44.3945 31.0479 45.1696 31.1254 45.6678 31.1254V25.1351C45.1696 25.1351 44.3945 25.2015 44.3945 24.4929C44.3945 23.6403 45.6125 23.8507 46.299 23.8507H46.5758C46.5758 23.3635 46.4983 22.5884 47.2069 22.5884C47.9267 22.5884 47.8492 23.3635 47.8492 23.8507H48.126C50.1633 23.8507 51.2595 26.1981 50.0969 27.7704C52.2782 28.9441 51.5253 32.3988 48.9453 32.3988H47.8492C47.8492 32.9192 47.982 33.8382 47.2069 33.8382C46.4429 33.8382 46.5758 32.9192 46.5758 32.3988H46.299ZM46.9412 27.4936H48.1481C49.6651 27.4714 49.654 25.1351 48.126 25.1351H46.9412V27.4936Z" fill="white"/>
<defs>
<linearGradient id="paint0_linear_4_10" x1="40.237" y1="0" x2="40.237" y2="80.474" gradientUnits="userSpaceOnUse">
<stop stop-color="#B46AFF"/>
<stop offset="1" stop-color="#8F2CF3"/>
</linearGradient>
</defs>
</svg>
