<svg width="81" height="81" viewBox="0 0 81 81" fill="none" xmlns="http://www.w3.org/2000/svg">
<circle cx="40.237" cy="40.237" r="40.237" fill="url(#paint0_linear_2_222)"/>
<g clip-path="url(#clip0_2_222)">
<path d="M48.6759 51.68C48.4694 50.9596 47.9949 50.3626 47.3395 49.9991C46.5657 49.5696 45.657 49.5281 44.8464 49.885C44.4996 50.0376 44.3423 50.4426 44.4951 50.7893C44.6477 51.1362 45.0525 51.2934 45.3994 51.1406C45.814 50.958 46.2784 50.9792 46.674 51.1987C47.0089 51.3846 47.2514 51.6896 47.3568 52.0577C47.4622 52.4257 47.4179 52.8125 47.2321 53.1474C46.6166 54.2573 46.6002 56.4377 46.6004 56.6784C46.6003 56.6988 46.5785 58.7383 45.8432 60.7283C44.9183 63.2317 43.3236 64.501 41.1035 64.501H35.5743C34.3972 64.501 31.4865 64.0776 29.8837 60.156C29.7405 59.8054 29.3402 59.6371 28.9892 59.7806C28.6384 59.9239 28.4703 60.3243 28.6137 60.6751C29.944 63.9299 32.546 65.873 35.5744 65.873H41.1036C43.9287 65.873 46.0169 64.247 47.1425 61.1704C47.9523 58.9571 47.9719 56.7774 47.9724 56.6819C47.9719 55.894 48.0962 54.4183 48.4318 53.813C48.7956 53.1578 48.8821 52.4003 48.6759 51.68Z" fill="white"/>
<path d="M43.2726 41.5758C42.7923 41.0956 42.154 40.8311 41.4752 40.8311C40.0744 40.8311 38.934 41.9706 38.933 43.3719V47.6877C38.5826 47.5053 38.1844 47.402 37.7626 47.402C36.9076 47.402 36.1498 47.8264 35.6887 48.4754C35.2458 48.1012 34.6737 47.8753 34.0499 47.8753C32.7789 47.8753 31.7227 48.8129 31.5366 50.0328C31.1791 49.8407 30.7707 49.7316 30.3372 49.7316C28.9354 49.7316 27.7949 50.8721 27.7949 52.2739V56.5554C27.7949 57.2396 27.8648 57.939 28.0025 58.6341C28.0672 58.9608 28.3538 59.1869 28.6748 59.1869C28.719 59.1869 28.7638 59.1825 28.8088 59.1736C29.1804 59.0999 29.422 58.739 29.3484 58.3674C29.228 57.7599 29.167 57.1502 29.167 56.5553V52.2738C29.167 51.6285 29.6921 51.1035 30.3373 51.1035C30.9827 51.1035 31.5076 51.6286 31.5076 52.2738V53.2432C31.5076 53.6221 31.8147 53.9293 32.1937 53.9293C32.5726 53.9293 32.8797 53.6221 32.8797 53.2432V52.2738V50.4176C32.8797 49.7723 33.4048 49.2473 34.05 49.2473C34.6954 49.2473 35.2203 49.7723 35.2203 50.4176V52.4662C35.2203 52.8451 35.5274 53.1522 35.9064 53.1522C36.2853 53.1522 36.5924 52.8451 36.5924 52.4662V50.4176V49.9443C36.5924 49.2989 37.1175 48.774 37.7627 48.774C38.4082 48.774 38.9331 49.299 38.9331 49.9443V53.0706C38.9331 53.4494 39.2402 53.7566 39.6192 53.7566C39.9981 53.7566 40.3052 53.4494 40.3052 53.0706V49.9443V43.3724C40.3057 42.7277 40.8306 42.203 41.4753 42.203C41.7877 42.203 42.0816 42.3248 42.3027 42.5458C42.5239 42.767 42.6456 43.0608 42.6456 43.3733V53.3316V56.6749C42.6456 57.0538 42.9527 57.361 43.3317 57.361C43.7107 57.361 44.0177 57.0538 44.0177 56.6749V53.3316V43.3734C44.0174 42.6945 43.7529 42.0561 43.2726 41.5758Z" fill="white"/>
<path d="M42.0006 36.5615C39.002 36.5615 36.5625 39.0011 36.5625 41.9997C36.5625 43.0232 36.8487 44.0207 37.3898 44.8844C37.5911 45.2053 38.0143 45.3025 38.3354 45.1014C38.6564 44.9001 38.7536 44.4768 38.5524 44.1557C38.1482 43.5107 37.9345 42.7651 37.9345 41.9997C37.9345 39.7576 39.7584 37.9335 42.0006 37.9335C44.2426 37.9335 46.0666 39.7575 46.0666 41.9997C46.0665 43.1969 45.5422 44.3279 44.6281 45.1028C44.3391 45.3478 44.3034 45.7807 44.5484 46.0697C44.6841 46.2298 44.8774 46.3121 45.0721 46.3121C45.2288 46.3121 45.3864 46.2586 45.5153 46.1494C46.7377 45.1132 47.4386 43.6007 47.4386 41.9997C47.4385 39.0011 44.999 36.5615 42.0006 36.5615Z" fill="white"/>
<path d="M41.9996 20.127C39.0011 20.127 36.5615 22.5665 36.5615 25.565C36.5615 28.5636 39.0011 31.0032 41.9996 31.0032C44.9981 31.0032 47.4376 28.5636 47.4376 25.565C47.4376 22.5664 44.9981 20.127 41.9996 20.127ZM41.9996 29.6311C39.7575 29.6311 37.9335 27.8071 37.9335 25.5649C37.9335 23.3229 39.7574 21.4989 41.9996 21.4989C44.2416 21.4989 46.0656 23.3229 46.0656 25.5649C46.0656 27.807 44.2417 29.6311 41.9996 29.6311Z" fill="white"/>
<path d="M24.4382 20.127C21.4395 20.127 19 22.5665 19 25.565C19 28.5637 21.4395 31.0032 24.4382 31.0032C27.4367 31.0032 29.8762 28.5637 29.8762 25.565C29.8762 22.5664 27.4366 20.127 24.4382 20.127ZM24.4382 29.6311C22.1961 29.6311 20.372 27.8071 20.372 25.5649C20.372 23.3229 22.196 21.4989 24.4382 21.4989C26.6803 21.4989 28.5042 23.3229 28.5042 25.5649C28.5041 27.807 26.6802 29.6311 24.4382 29.6311Z" fill="white"/>
<path d="M59.5619 20.127C56.5634 20.127 54.1239 22.5665 54.1239 25.565C54.1239 28.5637 56.5634 31.0032 59.5619 31.0032C60.4181 31.0032 61.2715 30.7989 62.0297 30.4122C62.3672 30.2401 62.5013 29.8269 62.3291 29.4894C62.1568 29.1519 61.7437 29.0178 61.4063 29.19C60.8323 29.4828 60.2117 29.6312 59.5619 29.6312C57.3199 29.6312 55.4959 27.8072 55.4959 25.565C55.4959 23.323 57.3198 21.499 59.5619 21.499C61.804 21.499 63.628 23.323 63.628 25.565C63.628 26.4551 63.3459 27.3001 62.8122 28.0087C62.5843 28.3113 62.6447 28.7415 62.9474 28.9694C63.2502 29.1974 63.6804 29.1368 63.9081 28.8342C64.6225 27.8858 65 26.7554 65 25.565C65 22.5665 62.5605 20.127 59.5619 20.127Z" fill="white"/>
<path d="M54.76 29.9279C54.5053 29.6474 54.0714 29.6266 53.791 29.8815L46.3233 36.6674C46.043 36.9222 46.0221 37.3561 46.2769 37.6365C46.4123 37.7855 46.5982 37.8611 46.7848 37.8611C46.9495 37.8611 47.1145 37.8022 47.246 37.6829L54.7137 30.8969C54.9941 30.6421 55.0148 30.2082 54.76 29.9279Z" fill="white"/>
<path d="M37.057 36.7834L29.8097 29.7935C29.537 29.5306 29.1027 29.5384 28.8397 29.8111C28.5767 30.0837 28.5846 30.518 28.8571 30.7811L36.1044 37.771C36.2376 37.8994 36.4092 37.9633 36.5806 37.9633C36.7603 37.9633 36.9399 37.893 37.0745 37.7536C37.3374 37.4808 37.3296 37.0464 37.057 36.7834Z" fill="white"/>
<path d="M41.9995 31.8655C41.6206 31.8655 41.3135 32.1727 41.3135 32.5515V35.1431C41.3135 35.5219 41.6206 35.8291 41.9995 35.8291C42.3785 35.8291 42.6856 35.5219 42.6856 35.1431V32.5515C42.6856 32.1727 42.3785 31.8655 41.9995 31.8655Z" fill="white"/>
</g>
<defs>
<linearGradient id="paint0_linear_2_222" x1="40.237" y1="0" x2="40.237" y2="80.474" gradientUnits="userSpaceOnUse">
<stop stop-color="#B46AFF"/>
<stop offset="1" stop-color="#8F2CF3"/>
</linearGradient>
<clipPath id="clip0_2_222">
<rect width="46" height="46" fill="white" transform="translate(19 20)"/>
</clipPath>
</defs>
</svg>
