<svg width="29" height="29" viewBox="0 0 29 29" fill="none" xmlns="http://www.w3.org/2000/svg">
<path d="M24.9091 12.9526V21.1891C24.9091 23.4212 24.9091 24.5372 24.4747 25.3898C24.0926 26.1397 23.483 26.7493 22.733 27.1314C21.8804 27.5658 20.7645 27.5658 18.5324 27.5658H10.0302C7.79815 27.5658 6.68212 27.5658 5.8296 27.1314C5.07969 26.7493 4.47001 26.1397 4.08791 25.3898C3.65353 24.5372 3.65353 23.4212 3.65353 21.1891V12.9526M24.9091 12.9526H3.65353M24.9091 12.9526C26.3765 12.9526 27.566 11.7631 27.566 10.2957C27.566 8.82828 26.3765 7.63873 24.9091 7.63873H3.65353C2.18614 7.63873 0.996582 8.82828 0.996582 10.2957C0.996582 11.7631 2.18614 12.9526 3.65353 12.9526M14.2813 7.63873V27.5658M14.2813 7.63873H18.931C20.7652 7.63873 22.2521 6.15178 22.2521 4.31755C22.2521 2.48331 20.7652 0.996368 18.931 0.996368H18.8244C17.3106 0.996368 15.9762 1.98928 15.5412 3.43918L14.2813 7.63873ZM14.2813 7.63873H9.63165C7.79742 7.63873 6.31047 6.15178 6.31047 4.31755C6.31047 2.48331 7.79742 0.996368 9.63165 0.996368H9.73823C11.252 0.996368 12.5864 1.98928 13.0214 3.43918L14.2813 7.63873Z" stroke="white" stroke-width="1.99271" stroke-linecap="round" stroke-linejoin="round"/>
</svg>
