<svg width="81" height="81" viewBox="0 0 81 81" fill="none" xmlns="http://www.w3.org/2000/svg">
<circle cx="40.237" cy="40.237" r="40.237" fill="url(#paint0_linear_5_28)"/>
<path d="M58.2002 34.177H61.3705" stroke="white" stroke-width="1.25977" stroke-miterlimit="10" stroke-linecap="round" stroke-linejoin="round"/>
<path d="M26.7156 56.7399H30.862V50.1379H19.6299V56.7399H23.7762" stroke="white" stroke-width="1.25977" stroke-miterlimit="10" stroke-linecap="round" stroke-linejoin="round"/>
<path d="M19.6299 50.138L22.7984 46.9695" stroke="white" stroke-width="1.25977" stroke-miterlimit="10" stroke-linecap="round" stroke-linejoin="round"/>
<path d="M30.8621 56.7396L34.0712 53.5305" stroke="white" stroke-width="1.25977" stroke-miterlimit="10" stroke-linecap="round" stroke-linejoin="round"/>
<path d="M34.1771 46.8229L30.8621 50.1379" stroke="white" stroke-width="1.25977" stroke-miterlimit="10" stroke-linecap="round" stroke-linejoin="round"/>
<path d="M45.4088 50.1379H34.1768V56.7396H45.4088V50.1379Z" stroke="white" stroke-width="1.25977" stroke-miterlimit="10" stroke-linecap="round" stroke-linejoin="round"/>
<path d="M34.1768 50.138L37.4396 46.8752" stroke="white" stroke-width="1.25977" stroke-miterlimit="10" stroke-linecap="round" stroke-linejoin="round"/>
<path d="M45.4091 50.138L61.3703 34.1768V40.7788L52.0262 50.1238" stroke="white" stroke-width="1.25977" stroke-miterlimit="10" stroke-linecap="round" stroke-linejoin="round"/>
<path d="M49.9476 52.2024L45.4091 56.7401" stroke="white" stroke-width="1.25977" stroke-miterlimit="10" stroke-linecap="round" stroke-linejoin="round"/>
<path d="M30.862 40.2213H19.6299V46.8233H30.862V40.2213Z" stroke="white" stroke-width="1.25977" stroke-miterlimit="10" stroke-linecap="round" stroke-linejoin="round"/>
<path d="M25.6934 34.1576L35.5909 24.26H46.823" stroke="white" stroke-width="1.25977" stroke-miterlimit="10" stroke-linecap="round" stroke-linejoin="round"/>
<path d="M23.6149 36.236L19.6299 40.2211" stroke="white" stroke-width="1.25977" stroke-miterlimit="10" stroke-linecap="round" stroke-linejoin="round"/>
<path d="M30.8621 46.823L34.0712 43.6139" stroke="white" stroke-width="1.25977" stroke-miterlimit="10" stroke-linecap="round" stroke-linejoin="round"/>
<path d="M30.8621 40.2212L46.8234 24.26V27.2792" stroke="white" stroke-width="1.25977" stroke-miterlimit="10" stroke-linecap="round" stroke-linejoin="round"/>
<path d="M45.4088 40.2214H34.1768V46.8231H45.4088V40.2214Z" stroke="white" stroke-width="1.25977" stroke-miterlimit="10" stroke-linecap="round" stroke-linejoin="round"/>
<path d="M43.2549 31.1442L50.1382 24.26H61.3703" stroke="white" stroke-width="1.25977" stroke-miterlimit="10" stroke-linecap="round" stroke-linejoin="round"/>
<path d="M41.1761 33.2226L34.1768 40.221" stroke="white" stroke-width="1.25977" stroke-miterlimit="10" stroke-linecap="round" stroke-linejoin="round"/>
<path d="M45.4091 46.823L61.3702 30.8619V24.2602L45.4091 40.2213" stroke="white" stroke-width="1.25977" stroke-miterlimit="10" stroke-linecap="round" stroke-linejoin="round"/>
<path d="M19.7803 46.6725L26.1676 40.2852" stroke="white" stroke-width="1.25977" stroke-miterlimit="10" stroke-linecap="round" stroke-linejoin="round"/>
<path d="M19.8662 56.5034L26.1679 50.2018" stroke="white" stroke-width="1.25977" stroke-miterlimit="10" stroke-linecap="round" stroke-linejoin="round"/>
<path d="M34.3701 46.6297L40.7141 40.2856" stroke="white" stroke-width="1.25977" stroke-miterlimit="10" stroke-linecap="round" stroke-linejoin="round"/>
<path d="M34.4131 56.5035L40.7247 50.1919" stroke="white" stroke-width="1.25977" stroke-miterlimit="10" stroke-linecap="round" stroke-linejoin="round"/>
<defs>
<linearGradient id="paint0_linear_5_28" x1="40.237" y1="0" x2="40.237" y2="80.474" gradientUnits="userSpaceOnUse">
<stop stop-color="#B46AFF"/>
<stop offset="1" stop-color="#8F2CF3"/>
</linearGradient>
</defs>
</svg>
