<svg width="62" height="62" viewBox="0 0 62 62" fill="none" xmlns="http://www.w3.org/2000/svg">
<path d="M61.611 23.308L59.996 20.5107C59.6617 19.9317 58.9216 19.7332 58.3419 20.0675C57.7627 20.4019 57.5643 21.1424 57.8987 21.7216L59.5137 24.5189C59.5989 24.6664 59.5799 24.8069 59.561 24.8775C59.5421 24.9481 59.4883 25.0793 59.3408 25.1644L55.0702 27.6301C54.8442 27.7601 54.5548 27.6825 54.4245 27.457L45.8332 12.5768C45.7029 12.3511 45.7805 12.0614 46.0062 11.931L50.2767 9.46549C50.5024 9.33544 50.7923 9.4127 50.9225 9.63841L52.4497 12.2836C52.7841 12.8629 53.5247 13.0614 54.1037 12.7268C54.6829 12.3925 54.8814 11.6519 54.5469 11.0727L53.0198 8.42751C52.2219 7.04551 50.4484 6.56999 49.0659 7.36809L44.7953 9.83373C44.1465 10.2084 43.6976 10.798 43.4863 11.4611H31.3798C29.68 11.4611 28.082 12.1229 26.8799 13.3249L25.6395 14.5653C24.5519 14.3061 23.4376 14.1727 22.317 14.1727H18.5579C18.3701 13.4473 17.9035 12.7944 17.2048 12.3909L12.9342 9.92527C12.2646 9.53863 11.4843 9.43607 10.7378 9.63611C9.99104 9.83615 9.36682 10.3152 8.9803 10.9847L0.389085 25.8651C0.00256551 26.5346 -0.10024 27.3146 0.0998007 28.0615C0.299841 28.8084 0.778873 29.4325 1.4485 29.819L5.7191 32.2847C6.17379 32.5472 6.67063 32.6719 7.1614 32.6719C7.34025 32.6719 7.51814 32.6546 7.69299 32.6221L11.1884 36.1176C11.1349 36.3924 11.1071 36.6742 11.1071 36.9604C11.1071 38.124 11.5602 39.218 12.383 40.0407C13.1709 40.8284 14.1878 41.2502 15.2213 41.3072C15.2054 41.459 15.1968 41.6123 15.1968 41.7671C15.1968 42.9308 15.6499 44.0247 16.4727 44.8474C17.2955 45.6702 18.3895 46.1233 19.553 46.1233C19.5846 46.1233 19.6159 46.1217 19.6474 46.121C19.6466 46.1525 19.6451 46.1837 19.6451 46.2153C19.6451 47.379 20.0982 48.4729 20.921 49.2956C21.7438 50.1184 22.8377 50.5715 24.0013 50.5715C24.0329 50.5715 24.0641 50.57 24.0956 50.5692C24.0949 50.6007 24.0933 50.632 24.0933 50.6636C24.0933 51.8271 24.5464 52.9212 25.3692 53.7439C26.192 54.5665 27.286 55.0198 28.4495 55.0198C29.6131 55.0198 30.7071 54.5667 31.5298 53.7439L33.2524 52.0214C33.7575 51.5163 34.1111 50.9166 34.3158 50.2792C35.0811 50.844 35.9905 51.1265 36.9003 51.1264C38.0156 51.1263 39.1315 50.7017 39.9805 49.8525C40.4886 49.3444 40.8552 48.7328 41.0618 48.0655C41.7627 48.5238 42.5816 48.7703 43.4386 48.7703C44.6022 48.7703 45.6962 48.3172 46.5189 47.4944C47.1303 46.8829 47.5372 46.1217 47.7061 45.2935C48.1435 45.4383 48.6055 45.5147 49.0796 45.5147C50.2432 45.5147 51.3373 45.0616 52.16 44.2387C53.8584 42.5401 53.8584 39.7765 52.16 38.078L49.3338 35.2517L54.4926 30.0929C54.6071 30.1066 54.7225 30.1144 54.8384 30.1144C55.3292 30.1144 55.8261 29.9896 56.2807 29.7272L60.5513 27.2617C61.2208 26.8751 61.6998 26.251 61.9 25.5041C62.1002 24.7572 61.9975 23.9775 61.611 23.308ZM2.65928 27.7217C2.51179 27.6366 2.45803 27.5055 2.43914 27.4348C2.42025 27.3642 2.40124 27.2237 2.48648 27.0761L11.0777 12.1956C11.1628 12.0481 11.2941 11.9943 11.3647 11.9754C11.3948 11.9675 11.4377 11.9593 11.4883 11.9593C11.5565 11.9593 11.6387 11.974 11.7232 12.0227L15.9938 14.4883C16.2194 14.6186 16.2972 14.9082 16.1669 15.134L7.57565 30.0143C7.44524 30.2399 7.15583 30.3177 6.93 30.1874L2.65928 27.7217ZM13.5289 36.9603C13.5289 36.4435 13.7302 35.9578 14.0956 35.5923L15.1406 34.5473C15.5177 34.1701 16.0131 33.9816 16.5086 33.9816C17.0038 33.9816 17.4993 34.1703 17.8764 34.5473C18.2419 34.9128 18.4431 35.3985 18.4431 35.9152C18.4431 36.4319 18.2419 36.9177 17.8764 37.283L16.8314 38.328C16.0771 39.0824 14.8499 39.0823 14.0956 38.328C13.7302 37.9628 13.5289 37.477 13.5289 36.9603ZM19.5531 43.7015C19.0363 43.7015 18.5506 43.5002 18.1853 43.1349C17.8199 42.7696 17.6186 42.2838 17.6186 41.7671C17.6186 41.2504 17.8199 40.7646 18.1853 40.3993L19.9078 38.6768C20.2849 38.2997 20.7803 38.1111 21.2757 38.1111C21.7712 38.1111 22.2665 38.2997 22.6436 38.6768C23.0091 39.0421 23.2103 39.5279 23.2103 40.0446C23.2103 40.5613 23.0091 41.0471 22.6436 41.4124L20.9211 43.1349C20.5556 43.5004 20.0698 43.7015 19.5531 43.7015ZM24.0014 48.1499C23.4846 48.1499 22.9989 47.9486 22.6336 47.5833C22.2681 47.218 22.0669 46.7321 22.0669 46.2155C22.0669 45.6988 22.2681 45.2129 22.6336 44.8475L24.3561 43.125C24.7331 42.7479 25.2285 42.5594 25.7239 42.5594C26.2193 42.5594 26.7148 42.7479 27.0918 43.1251C27.4573 43.4904 27.6585 43.9763 27.6585 44.4929C27.6585 45.0096 27.4573 45.4955 27.0918 45.8608L25.3693 47.5833C25.004 47.9486 24.5182 48.1499 24.0014 48.1499ZM31.5401 50.309L29.8175 52.0316C29.4521 52.397 28.9664 52.5982 28.4496 52.5982C27.9328 52.5982 27.4471 52.397 27.0818 52.0316C26.7163 51.6662 26.5151 51.1805 26.5151 50.6638C26.5151 50.147 26.7163 49.6613 27.0818 49.2959L28.8043 47.5734C29.1814 47.1962 29.6768 47.0076 30.1723 47.0076C30.6675 47.0076 31.163 47.1963 31.5401 47.5732C32.2944 48.3274 32.2944 49.5547 31.5401 50.309ZM50.4478 42.5264C50.0824 42.8919 49.5967 43.0931 49.0798 43.0931C48.5632 43.0931 48.0775 42.8919 47.712 42.5264L36.154 30.9684C35.6811 30.4957 34.9146 30.4956 34.4414 30.9684C33.9685 31.4413 33.9685 32.208 34.4414 32.6809L44.8067 43.0463C45.1722 43.4116 45.3734 43.8974 45.3734 44.4141C45.3734 44.9308 45.1722 45.4166 44.8067 45.7821C44.4414 46.1474 43.9557 46.3487 43.4389 46.3487C42.9221 46.3487 42.4364 46.1474 42.071 45.7821L29.6156 33.3266C29.1427 32.8539 28.376 32.8539 27.903 33.3266C27.4302 33.7995 27.4302 34.5662 27.903 35.0391L38.2683 45.4045C38.6338 45.7698 38.835 46.2557 38.835 46.7723C38.835 47.289 38.6338 47.7748 38.2683 48.1402C37.5142 48.8944 36.2869 48.8947 35.5325 48.1402L33.2529 45.8605C33.2498 45.8574 33.2462 45.8547 33.2431 45.8517C32.371 44.9848 31.2206 44.5648 30.078 44.5893C30.0788 44.5572 30.0803 44.5253 30.0803 44.4929C30.0803 43.3294 29.6272 42.2353 28.8044 41.4125C27.9312 40.5394 26.7765 40.1164 25.6297 40.141C25.6304 40.1089 25.632 40.0769 25.632 40.0447C25.632 38.881 25.1789 37.7871 24.3561 36.9643C23.4011 36.0094 22.1095 35.5915 20.8598 35.7103C20.8098 34.6238 20.3631 33.6093 19.5889 32.835C17.8903 31.1365 15.1266 31.1368 13.4281 32.835L12.383 33.88C12.3818 33.8812 12.3806 33.8826 12.3794 33.8838L9.69049 31.1948L18.1199 16.5945H22.3169C22.7281 16.5945 23.1383 16.6163 23.5461 16.6587L22.1619 18.0429C21.3391 18.8657 20.886 19.9598 20.886 21.1233C20.886 22.287 21.3391 23.3809 22.1619 24.2037C23.0112 25.0529 24.1268 25.4776 25.2422 25.4776C26.3578 25.4776 27.4734 25.053 28.3226 24.2037L31.5915 20.9348L50.4477 39.7908C51.2019 40.5449 51.202 41.7723 50.4478 42.5264ZM38.8137 24.7317C40.5758 23.4563 41.6559 21.3983 41.6559 19.1624C41.6559 18.4936 41.1137 17.9515 40.445 17.9515C39.7764 17.9515 39.2341 18.4936 39.2341 19.1624C39.2341 20.7442 38.3986 22.187 37.0655 22.9836L32.4535 18.3715C31.9805 17.8987 31.2151 17.8863 30.7421 18.3592L26.6101 22.4911C25.8559 23.2454 24.6286 23.2453 23.8744 22.4911C23.5089 22.1258 23.3077 21.64 23.3077 21.1233C23.3077 20.6066 23.5089 20.1208 23.8744 19.7554L28.5924 15.0373C29.3369 14.2929 30.3268 13.8829 31.3798 13.8829H43.7909L52.3271 28.6682C52.3473 28.7032 52.3694 28.7365 52.3908 28.7703L47.6216 33.5395L38.8137 24.7317Z" fill="white"/>
<path d="M56.2207 17.6078C56.5392 17.6078 56.8504 17.4782 57.0768 17.253C57.3019 17.0266 57.4316 16.7154 57.4316 16.3969C57.4316 16.0772 57.3021 15.766 57.0768 15.5395C56.8504 15.3143 56.5392 15.1859 56.2207 15.1859C55.901 15.1859 55.5898 15.3143 55.3646 15.5395C55.1381 15.766 55.0098 16.0772 55.0098 16.3969C55.0098 16.7154 55.1381 17.0266 55.3646 17.253C55.5898 17.4784 55.901 17.6078 56.2207 17.6078Z" fill="white"/>
</svg>
