<svg width="62" height="62" viewBox="0 0 62 62" fill="none" xmlns="http://www.w3.org/2000/svg">
<path d="M61.611 23.3081L59.996 20.5108C59.6617 19.9318 58.9216 19.7333 58.3419 20.0676C57.7627 20.4019 57.5643 21.1425 57.8987 21.7217L59.5137 24.519C59.5989 24.6665 59.5799 24.807 59.561 24.8776C59.5421 24.9481 59.4883 25.0794 59.3408 25.1645L55.0702 27.6302C54.8442 27.7602 54.5548 27.6826 54.4245 27.4571L45.8332 12.5769C45.7029 12.3512 45.7805 12.0615 46.0062 11.9311L50.2767 9.46558C50.5024 9.33553 50.7923 9.41279 50.9225 9.6385L52.4497 12.2837C52.7841 12.863 53.5247 13.0615 54.1037 12.7269C54.6829 12.3926 54.8814 11.652 54.5469 11.0728L53.0198 8.4276C52.2219 7.0456 50.4484 6.57008 49.0659 7.36819L44.7953 9.83382C44.1465 10.2085 43.6976 10.7981 43.4863 11.4611H31.3798C29.68 11.4611 28.082 12.123 26.8799 13.325L25.6395 14.5654C24.5519 14.3062 23.4376 14.1728 22.317 14.1728H18.5579C18.3701 13.4474 17.9035 12.7945 17.2048 12.391L12.9342 9.92536C12.2646 9.53872 11.4843 9.43616 10.7378 9.6362C9.99104 9.83624 9.36682 10.3153 8.9803 10.9848L0.389085 25.8652C0.00256551 26.5347 -0.10024 27.3147 0.0998007 28.0616C0.299841 28.8085 0.778873 29.4326 1.4485 29.8191L5.7191 32.2847C6.17379 32.5473 6.67063 32.672 7.1614 32.672C7.34025 32.672 7.51814 32.6547 7.69299 32.6222L11.1884 36.1177C11.1349 36.3925 11.1071 36.6743 11.1071 36.9605C11.1071 38.1241 11.5602 39.2181 12.383 40.0408C13.1709 40.8285 14.1878 41.2502 15.2213 41.3073C15.2054 41.4591 15.1968 41.6124 15.1968 41.7672C15.1968 42.9309 15.6499 44.0248 16.4727 44.8475C17.2955 45.6703 18.3895 46.1234 19.553 46.1234C19.5846 46.1234 19.6159 46.1218 19.6474 46.1211C19.6466 46.1526 19.6451 46.1838 19.6451 46.2154C19.6451 47.3791 20.0982 48.473 20.921 49.2957C21.7438 50.1185 22.8377 50.5716 24.0013 50.5716C24.0329 50.5716 24.0641 50.5701 24.0956 50.5693C24.0949 50.6008 24.0933 50.6321 24.0933 50.6637C24.0933 51.8272 24.5464 52.9213 25.3692 53.7439C26.192 54.5666 27.286 55.0199 28.4495 55.0199C29.6131 55.0199 30.7071 54.5668 31.5298 53.7439L33.2524 52.0214C33.7575 51.5164 34.1111 50.9167 34.3158 50.2793C35.0811 50.8441 35.9905 51.1266 36.9003 51.1265C38.0156 51.1263 39.1315 50.7018 39.9805 49.8526C40.4886 49.3445 40.8552 48.7329 41.0618 48.0656C41.7627 48.5239 42.5816 48.7704 43.4386 48.7704C44.6022 48.7704 45.6962 48.3173 46.5189 47.4945C47.1303 46.883 47.5372 46.1218 47.7061 45.2936C48.1435 45.4384 48.6055 45.5148 49.0796 45.5148C50.2432 45.5148 51.3373 45.0617 52.16 44.2388C53.8584 42.5402 53.8584 39.7766 52.16 38.0781L49.3338 35.2518L54.4926 30.093C54.6071 30.1067 54.7225 30.1145 54.8384 30.1145C55.3292 30.1145 55.8261 29.9897 56.2807 29.7273L60.5513 27.2618C61.2208 26.8752 61.6998 26.2511 61.9 25.5042C62.1002 24.7573 61.9975 23.9776 61.611 23.3081ZM2.65928 27.7218C2.51179 27.6367 2.45803 27.5056 2.43914 27.4349C2.42025 27.3643 2.40124 27.2238 2.48648 27.0762L11.0777 12.1957C11.1628 12.0482 11.2941 11.9944 11.3647 11.9755C11.3948 11.9675 11.4377 11.9594 11.4883 11.9594C11.5565 11.9594 11.6387 11.9741 11.7232 12.0228L15.9938 14.4884C16.2194 14.6187 16.2972 14.9083 16.1669 15.134L7.57565 30.0144C7.44524 30.24 7.15583 30.3178 6.93 30.1875L2.65928 27.7218ZM13.5289 36.9604C13.5289 36.4436 13.7302 35.9579 14.0956 35.5924L15.1406 34.5474C15.5177 34.1702 16.0131 33.9817 16.5086 33.9817C17.0038 33.9817 17.4993 34.1704 17.8764 34.5474C18.2419 34.9129 18.4431 35.3986 18.4431 35.9153C18.4431 36.432 18.2419 36.9178 17.8764 37.2831L16.8314 38.3281C16.0771 39.0825 14.8499 39.0824 14.0956 38.3281C13.7302 37.9629 13.5289 37.4771 13.5289 36.9604ZM19.5531 43.7016C19.0363 43.7016 18.5506 43.5003 18.1853 43.135C17.8199 42.7697 17.6186 42.2839 17.6186 41.7672C17.6186 41.2505 17.8199 40.7647 18.1853 40.3993L19.9078 38.6768C20.2849 38.2998 20.7803 38.1112 21.2757 38.1112C21.7712 38.1112 22.2665 38.2998 22.6436 38.6768C23.0091 39.0422 23.2103 39.528 23.2103 40.0447C23.2103 40.5614 23.0091 41.0472 22.6436 41.4125L20.9211 43.135C20.5557 43.5005 20.0698 43.7016 19.5531 43.7016ZM24.0014 48.15C23.4846 48.15 22.9989 47.9487 22.6336 47.5834C22.2681 47.218 22.0669 46.7322 22.0669 46.2155C22.0669 45.6989 22.2681 45.213 22.6336 44.8476L24.3561 43.1251C24.7331 42.748 25.2285 42.5595 25.7239 42.5595C26.2193 42.5595 26.7148 42.748 27.0918 43.1252C27.4573 43.4905 27.6585 43.9763 27.6585 44.493C27.6585 45.0097 27.4573 45.4955 27.0918 45.8609L25.3693 47.5834C25.004 47.9487 24.5182 48.15 24.0014 48.15ZM31.5401 50.3091L29.8175 52.0317C29.4521 52.3971 28.9664 52.5983 28.4496 52.5983C27.9328 52.5983 27.4471 52.3971 27.0818 52.0317C26.7163 51.6663 26.5151 51.1806 26.5151 50.6639C26.5151 50.1471 26.7163 49.6614 27.0818 49.2959L28.8043 47.5734C29.1814 47.1962 29.6768 47.0077 30.1723 47.0077C30.6675 47.0077 31.163 47.1964 31.5401 47.5733C32.2944 48.3275 32.2944 49.5548 31.5401 50.3091ZM50.4478 42.5265C50.0824 42.892 49.5967 43.0932 49.0798 43.0932C48.5632 43.0932 48.0775 42.892 47.712 42.5265L36.154 30.9685C35.6811 30.4958 34.9146 30.4956 34.4414 30.9685C33.9685 31.4414 33.9685 32.2081 34.4414 32.681L44.8067 43.0464C45.1722 43.4117 45.3734 43.8975 45.3734 44.4142C45.3734 44.9309 45.1722 45.4167 44.8067 45.7822C44.4414 46.1475 43.9557 46.3487 43.4389 46.3487C42.9221 46.3487 42.4364 46.1475 42.071 45.7822L29.6156 33.3267C29.1427 32.854 28.376 32.854 27.903 33.3267C27.4302 33.7996 27.4302 34.5663 27.903 35.0392L38.2683 45.4046C38.6338 45.7699 38.835 46.2557 38.835 46.7724C38.835 47.2891 38.6338 47.7749 38.2683 48.1403C37.5142 48.8945 36.2869 48.8948 35.5325 48.1403L33.2529 45.8606C33.2498 45.8575 33.2462 45.8548 33.2431 45.8518C32.371 44.9849 31.2206 44.5648 30.078 44.5894C30.0788 44.5573 30.0803 44.5254 30.0803 44.493C30.0803 43.3295 29.6272 42.2354 28.8044 41.4126C27.9312 40.5394 26.7765 40.1165 25.6297 40.1411C25.6304 40.109 25.632 40.077 25.632 40.0448C25.632 38.8811 25.1789 37.7872 24.3561 36.9644C23.4011 36.0095 22.1095 35.5916 20.8598 35.7104C20.8098 34.6238 20.3631 33.6094 19.5889 32.8351C17.8903 31.1366 15.1266 31.1369 13.4281 32.8351L12.383 33.8801C12.3818 33.8813 12.3806 33.8827 12.3794 33.8839L9.69049 31.1949L18.1199 16.5946H22.3169C22.7281 16.5946 23.1383 16.6164 23.5461 16.6588L22.1619 18.043C21.3391 18.8658 20.886 19.9598 20.886 21.1234C20.886 22.2871 21.3391 23.381 22.1619 24.2038C23.0112 25.053 24.1268 25.4777 25.2422 25.4777C26.3578 25.4777 27.4734 25.0531 28.3226 24.2038L31.5915 20.9349L50.4477 39.7909C51.202 40.545 51.202 41.7724 50.4478 42.5265ZM38.8137 24.7318C40.5758 23.4564 41.6559 21.3984 41.6559 19.1625C41.6559 18.4937 41.1137 17.9516 40.445 17.9516C39.7764 17.9516 39.2341 18.4937 39.2341 19.1625C39.2341 20.7443 38.3986 22.1871 37.0655 22.9837L32.4535 18.3716C31.9805 17.8988 31.2151 17.8864 30.7421 18.3593L26.6101 22.4912C25.8559 23.2455 24.6286 23.2454 23.8744 22.4912C23.5089 22.1259 23.3077 21.6401 23.3077 21.1234C23.3077 20.6067 23.5089 20.1209 23.8744 19.7554L28.5924 15.0374C29.3369 14.293 30.3268 13.8829 31.3798 13.8829H43.7909L52.3271 28.6683C52.3473 28.7033 52.3694 28.7366 52.3908 28.7704L47.6216 33.5396L38.8137 24.7318Z" fill="#212121"/>
<path d="M56.2207 17.6079C56.5392 17.6079 56.8504 17.4783 57.0768 17.2531C57.3019 17.0267 57.4316 16.7154 57.4316 16.397C57.4316 16.0773 57.3021 15.7661 57.0768 15.5396C56.8504 15.3144 56.5392 15.186 56.2207 15.186C55.901 15.186 55.5898 15.3144 55.3646 15.5396C55.1381 15.7661 55.0098 16.0773 55.0098 16.397C55.0098 16.7154 55.1381 17.0267 55.3646 17.2531C55.5898 17.4785 55.901 17.6079 56.2207 17.6079Z" fill="#212121"/>
</svg>
