<svg width="101" height="101" viewBox="0 0 101 101" fill="none" xmlns="http://www.w3.org/2000/svg">
<circle cx="50.2993" cy="50.2993" r="49.4245" fill="url(#paint0_radial_3_79)" stroke="white" stroke-width="1.74954"/>
<path d="M46.5836 61.4899L41.8699 66.2036C39.9157 68.1579 36.751 68.1578 34.7984 66.204C32.8454 64.251 32.8454 61.086 34.798 59.1334L44.2271 49.7043C46.1797 47.7517 49.3447 47.7517 51.2973 49.7043C51.9482 50.3552 53.0036 50.3552 53.6545 49.7043C54.3054 49.0534 54.3054 47.998 53.6545 47.3471C50.4 44.0926 45.1244 44.0926 41.8699 47.3471L32.4409 56.7762C29.1864 60.0306 29.1864 65.3063 32.4409 68.5608C35.695 71.817 40.971 71.817 44.2272 68.5608L48.9409 63.847C49.5919 63.1961 49.5919 62.1407 48.9409 61.4898C48.29 60.8389 47.2346 60.839 46.5836 61.4899Z" fill="white"/>
<path d="M67.5615 33.4408C64.307 30.1863 59.0296 30.1863 55.7751 33.4408L50.1197 39.0963C49.4688 39.7472 49.4688 40.8026 50.1197 41.4535C50.7706 42.1044 51.826 42.1044 52.4769 41.4535L58.1324 35.798C60.0849 33.8454 63.2516 33.8454 65.2043 35.798C67.1568 37.7506 67.1568 40.9156 65.2043 42.8682L54.8334 53.2391C52.8808 55.1918 49.7158 55.1918 47.7633 53.2391C47.1123 52.5882 46.0569 52.5882 45.406 53.2391C44.7551 53.89 44.7551 54.9454 45.406 55.5963C48.6605 58.8508 53.9362 58.8508 57.1907 55.5963L67.5615 45.2255C70.816 41.971 70.816 36.6953 67.5615 33.4408Z" fill="white"/>
<defs>
<radialGradient id="paint0_radial_3_79" cx="0" cy="0" r="1" gradientTransform="matrix(-157.726 -10.0598 10.0598 -2935.77 155.395 50.2993)" gradientUnits="userSpaceOnUse">
<stop offset="0.012763" stop-color="#E2A4FF"/>
<stop offset="1" stop-color="#9227FF"/>
</radialGradient>
</defs>
</svg>
