<svg width="115" height="115" viewBox="0 0 115 115" fill="none" xmlns="http://www.w3.org/2000/svg">
<circle cx="57.5" cy="57.5" r="56.5" fill="url(#paint0_radial_3_76)" stroke="white" stroke-width="2"/>
<path d="M58.0009 35.0134C50.8492 35.0134 44.364 37.9138 39.6533 42.5973C39.6328 42.6152 39.6068 42.6214 39.5876 42.6407C39.5683 42.6599 39.5621 42.6859 39.5442 42.7064C34.8613 47.4165 31.9609 53.9017 31.9609 61.0534C31.9609 67.3439 34.2332 73.4156 38.3618 78.153C38.864 78.7315 39.7345 78.7935 40.3142 78.3018L45.7559 73.6915C46.353 73.1887 46.4181 72.2891 45.901 71.7044C43.3069 68.7619 41.8797 64.978 41.8797 61.0528C41.8797 52.1632 49.1108 44.9322 58.0003 44.9322C61.7005 44.9322 65.3169 46.2181 68.1795 48.5505C69.6036 49.713 71.3725 47.5548 69.9415 46.3892C66.9438 43.9445 63.2424 42.4894 59.3953 42.2029V37.8735C71.5659 38.6014 81.2509 48.7043 81.2509 61.0534C81.2509 66.2013 79.5453 71.1892 76.4211 75.2415L73.0992 72.4403C75.5674 69.1711 76.9116 65.1801 76.9116 61.0534C76.9116 59.2188 76.6481 57.4022 76.1285 55.6532C75.5965 53.872 72.9336 54.6959 73.4544 56.4487C73.8959 57.9379 74.1209 59.4873 74.1209 61.0534C74.1209 64.9768 72.6949 68.7588 70.1046 71.6994C69.5906 72.2804 69.6483 73.18 70.2515 73.6884L75.7026 78.2857C76.2841 78.778 77.1558 78.7092 77.6531 78.135C81.7724 73.4013 84.0409 67.3346 84.0409 61.0534C84.0409 46.6948 72.3595 35.0134 58.0009 35.0134ZM45.6691 46.7475L42.602 43.681C46.3809 40.3274 51.2473 38.194 56.6059 37.8735V42.2129C52.4414 42.5198 48.6526 44.1721 45.6691 46.7475ZM42.9101 72.4478L39.5931 75.2576C36.7455 71.5692 35.0882 67.1034 34.8086 62.4484H39.1474C39.4152 66.076 40.7178 69.5462 42.9101 72.4478ZM39.161 59.6584H34.8216C35.1422 54.2991 37.2756 49.4328 40.6292 45.6539L43.6963 48.7198C41.1202 51.7038 39.4673 55.4933 39.161 59.6584Z" fill="white"/>
<path d="M61.1563 68.1538C62.4694 66.8388 73.3355 52.5905 74.5706 50.9705C75.5254 49.7168 73.976 48.0962 72.687 48.9654C69.8859 50.831 55.8435 60.2091 54.5266 61.526C52.6995 63.3531 52.6995 66.3266 54.5266 68.1538C56.35 69.9772 59.3248 69.9846 61.1563 68.1538ZM56.4988 63.4982C57.1089 62.8968 62.0714 59.4787 67.1938 56.0129C63.423 60.9134 59.7923 65.5709 59.1834 66.1809C57.4084 67.9566 54.7231 65.2739 56.4988 63.4982Z" fill="white"/>
<path d="M53.1992 75.701H62.8005C64.6469 75.701 64.6469 72.911 62.8005 72.911H53.1992C51.3529 72.911 51.3529 75.701 53.1992 75.701Z" fill="white"/>
<path d="M69.7403 78.1965H46.2578C44.4115 78.1965 44.4115 80.9865 46.2578 80.9865H69.7403C71.5861 80.9865 71.5861 78.1965 69.7403 78.1965Z" fill="white"/>
<defs>
<radialGradient id="paint0_radial_3_76" cx="0" cy="0" r="1" gradientTransform="matrix(-180.306 -11.4999 11.4999 -3356.05 177.641 57.5)" gradientUnits="userSpaceOnUse">
<stop offset="0.012763" stop-color="#E2A4FF"/>
<stop offset="1" stop-color="#9227FF"/>
</radialGradient>
</defs>
</svg>
