<svg width="101" height="101" viewBox="0 0 101 101" fill="none" xmlns="http://www.w3.org/2000/svg">
<circle cx="50.2993" cy="50.2993" r="49.4245" fill="url(#paint0_radial_3_95)" stroke="white" stroke-width="1.74954"/>
<path fill-rule="evenodd" clip-rule="evenodd" d="M61.541 54.5C61.541 53.741 62.157 53.125 62.916 53.125C63.675 53.125 64.291 53.741 64.291 54.5V67.3333C64.291 68.0923 63.675 68.7083 62.916 68.7083C62.157 68.7083 61.541 68.0923 61.541 67.3333V54.5Z" fill="white"/>
<path fill-rule="evenodd" clip-rule="evenodd" d="M56.5 62.2917C55.741 62.2917 55.125 61.6757 55.125 60.9167C55.125 60.1577 55.741 59.5417 56.5 59.5417H69.3333C70.0923 59.5417 70.7083 60.1577 70.7083 60.9167C70.7083 61.6757 70.0923 62.2917 69.3333 62.2917H56.5Z" fill="white"/>
<path fill-rule="evenodd" clip-rule="evenodd" d="M48.2493 29.2916C53.8154 29.2916 58.3327 33.809 58.3327 39.375C58.3327 44.941 53.8154 49.4583 48.2493 49.4583C42.6833 49.4583 38.166 44.941 38.166 39.375C38.166 33.809 42.6833 29.2916 48.2493 29.2916ZM48.2493 32.0416C44.2013 32.0416 40.916 35.327 40.916 39.375C40.916 43.423 44.2013 46.7083 48.2493 46.7083C52.2974 46.7083 55.5827 43.423 55.5827 39.375C55.5827 35.327 52.2974 32.0416 48.2493 32.0416Z" fill="white"/>
<path fill-rule="evenodd" clip-rule="evenodd" d="M32.666 68.7083C32.2242 68.7083 31.83 68.4993 31.577 68.173C31.4395 68.008 31.335 67.7916 31.302 67.5075C31.2947 67.4525 31.291 67.3938 31.291 67.3333C31.291 67.326 31.291 67.3186 31.291 67.3113V65.5C31.291 57.6533 37.6527 51.2916 45.4993 51.2916H55.5827C56.3417 51.2916 56.9577 51.9076 56.9577 52.6666C56.9577 53.4256 56.3417 54.0416 55.5827 54.0416H45.4993C39.1707 54.0416 34.041 59.1713 34.041 65.5V67.3113C34.041 68.6093 32.666 68.7083 32.666 68.7083Z" fill="white"/>
<defs>
<radialGradient id="paint0_radial_3_95" cx="0" cy="0" r="1" gradientTransform="matrix(-157.726 -10.0598 10.0598 -2935.77 155.395 50.2993)" gradientUnits="userSpaceOnUse">
<stop offset="0.012763" stop-color="#E2A4FF"/>
<stop offset="1" stop-color="#9227FF"/>
</radialGradient>
</defs>
</svg>
