<svg width="115" height="115" viewBox="0 0 115 115" fill="none" xmlns="http://www.w3.org/2000/svg">
<circle cx="57.5" cy="57.5" r="56.5" fill="url(#paint0_radial_3_94)" stroke="white" stroke-width="2"/>
<path d="M82.8117 67.5236C81.6018 66.9378 80.2902 66.5912 78.9489 66.5028C79.534 65.0562 79.8523 63.5156 79.8885 61.9556C80.1611 53.7486 73.6593 47.792 70.8927 45.24L70.6027 44.979C70.2025 44.6078 69.8371 44.2424 69.4949 43.877C69.8482 43.5796 70.132 43.2084 70.3264 42.7896C70.5208 42.3707 70.621 41.9143 70.6201 41.4526V41.3946C70.6179 40.757 70.4244 40.1347 70.0645 39.6084C69.7047 39.082 69.1951 38.6758 68.6017 38.4424C69.2662 36.589 69.7309 34.6699 69.9879 32.7178C70.0282 32.3848 69.9739 32.0473 69.8312 31.7437C69.6886 31.4402 69.4634 31.1829 69.1814 31.0014C68.8994 30.8198 68.572 30.7213 68.2367 30.7172C67.9013 30.713 67.5715 30.8033 67.2851 30.9778C66.3965 31.4699 65.4468 31.8424 64.4605 32.0856C63.5097 32.3329 62.5114 32.3329 61.5605 32.0856C60.5679 31.8424 59.6121 31.4679 58.7185 30.972C58.4304 30.7979 58.0989 30.7089 57.7623 30.715C57.4257 30.7212 57.0977 30.8223 56.8161 31.0068C56.5362 31.1853 56.3132 31.4401 56.1735 31.7412C56.0337 32.0424 55.983 32.3772 56.0273 32.7062C56.2882 34.6657 56.7547 36.5923 57.4193 38.454C56.8244 38.6858 56.3132 39.0915 55.9521 39.618C55.5911 40.1446 55.397 40.7677 55.3951 41.4062V41.4642C55.395 41.9796 55.5206 42.4873 55.7612 42.9431C56.0017 43.399 56.3499 43.7892 56.7755 44.08C56.5145 44.3584 56.1955 44.66 55.8591 44.979L55.5807 45.24C52.7793 47.792 46.3123 53.7428 46.5791 61.9498C46.5791 62.379 46.6313 62.7908 46.6777 63.2026H42.1595V61.3408C42.1595 61.0331 42.0373 60.7381 41.8198 60.5205C41.6022 60.303 41.3072 60.1808 40.9995 60.1808H32.7635C32.4559 60.1808 32.1608 60.303 31.9433 60.5205C31.7257 60.7381 31.6035 61.0331 31.6035 61.3408V81.1188C31.6035 81.4264 31.7257 81.7215 31.9433 81.939C32.1608 82.1566 32.4559 82.2788 32.7635 82.2788H40.9995C41.3072 82.2788 41.6022 82.1566 41.8198 81.939C42.0373 81.7215 42.1595 81.4264 42.1595 81.1188V79.6108L54.7919 84.709C55.768 85.0761 56.8 85.2723 57.8427 85.289C60.1627 85.289 62.1927 84.2856 64.5649 83.1024L64.8317 82.969H64.8897L82.8697 72.6392C83.3379 72.3938 83.7286 72.023 83.998 71.5681C84.2674 71.1133 84.4049 70.5925 84.3951 70.064C84.3991 69.534 84.2524 69.0138 83.9721 68.564C83.6917 68.1142 83.2893 67.7534 82.8117 67.5236ZM58.9389 42.34H58.5793C58.3527 42.34 58.1352 42.2503 57.9744 42.0906C57.8136 41.9309 57.7224 41.714 57.7209 41.4874V41.4294C57.7186 41.3152 57.7391 41.2017 57.7812 41.0955C57.8233 40.9894 57.8862 40.8927 57.9661 40.8111C58.046 40.7296 58.1415 40.6648 58.2468 40.6205C58.352 40.5763 58.4651 40.5536 58.5793 40.5536H67.4475C67.6736 40.5536 67.8905 40.6434 68.0504 40.8033C68.2103 40.9632 68.3001 41.1801 68.3001 41.4062V41.4642C68.3032 41.5781 68.2835 41.6914 68.242 41.7976C68.2005 41.9037 68.1382 42.0005 68.0587 42.0821C67.9793 42.1638 67.8842 42.2286 67.7792 42.2729C67.6743 42.3172 67.5615 42.34 67.4475 42.34H58.9389ZM60.9457 34.3476C62.2948 34.7073 63.7146 34.7073 65.0637 34.3476C65.909 34.1257 66.7352 33.8367 67.5345 33.4834C67.2291 35.1008 66.7886 36.6897 66.2179 38.2336H59.7799C59.2133 36.6889 58.7749 35.1001 58.4691 33.4834C59.2708 33.8357 60.0989 34.1247 60.9457 34.3476ZM57.1467 46.98L57.4309 46.719C58.1328 46.0804 58.7879 45.3923 59.3913 44.66H67.0763C67.6771 45.3818 68.3263 46.062 69.0193 46.6958L69.3151 46.9626C71.8497 49.2826 77.7947 54.7346 77.5569 61.8744C77.5405 63.5539 77.0995 65.2019 76.2751 66.6652C75.3856 66.852 74.5225 67.1481 73.7057 67.5468L67.4533 70.557C67.2854 69.6452 66.8062 68.82 66.0974 68.2223C65.3887 67.6246 64.4944 67.2915 63.5673 67.28H56.8393C54.7537 65.1324 52.0098 63.7441 49.0441 63.336C48.9654 62.8523 48.917 62.3641 48.8991 61.8744C48.6671 54.7346 54.6063 49.3 57.1467 46.98ZM33.9467 79.982V62.5008H39.8627V79.9588L33.9467 79.982ZM81.7793 70.5454L63.7993 80.881L63.5673 80.997C60.3947 82.5804 58.4749 83.5374 55.6503 82.5398L42.1595 77.14V65.54H47.1707C48.7323 65.5406 50.276 65.8716 51.7005 66.5114C53.125 67.1511 54.398 68.0851 55.4357 69.252C55.5443 69.3739 55.6774 69.4716 55.8263 69.5385C55.9752 69.6055 56.1366 69.6403 56.2999 69.6406H63.5673C63.9537 69.6464 64.3257 69.7878 64.6183 70.0401C64.911 70.2925 65.1056 70.6397 65.1681 71.021C65.1786 71.3416 65.085 71.657 64.9013 71.92C64.9013 71.92 64.9013 71.92 64.8665 71.9664C64.7274 72.142 64.5514 72.285 64.351 72.3853C64.1505 72.4855 63.9305 72.5405 63.7065 72.5464H50.7319C50.4243 72.5464 50.1292 72.6686 49.9117 72.8861C49.6941 73.1037 49.5719 73.3987 49.5719 73.7064C49.5719 74.014 49.6941 74.3091 49.9117 74.5266C50.1292 74.7442 50.4243 74.8664 50.7319 74.8664H63.6949C64.1926 74.868 64.6857 74.771 65.1457 74.5808C65.6056 74.3907 66.0233 74.1112 66.3745 73.7586C66.4499 73.6832 66.5253 73.602 66.5949 73.5208L74.7149 69.6116C75.4448 69.241 76.2272 68.9847 77.0349 68.8518C78.6556 68.617 80.3095 68.8779 81.7793 69.6C81.8616 69.6372 81.9312 69.6977 81.9796 69.7739C82.0281 69.8502 82.0532 69.9389 82.0519 70.0292C82.0601 70.1322 82.0388 70.2354 81.9905 70.3268C81.9423 70.4182 81.869 70.494 81.7793 70.5454Z" fill="white"/>
<path d="M64.9598 61.1029H62.2918C62.2053 61.1037 62.1194 61.0873 62.0392 61.0547C61.959 61.0221 61.8861 60.974 61.8246 60.913C61.7631 60.8521 61.7143 60.7796 61.681 60.6997C61.6477 60.6198 61.6306 60.5341 61.6306 60.4475C61.6306 60.1399 61.5084 59.8448 61.2909 59.6273C61.0733 59.4098 60.7783 59.2875 60.4706 59.2875C60.163 59.2875 59.8679 59.4098 59.6504 59.6273C59.4328 59.8448 59.3106 60.1399 59.3106 60.4475C59.3121 61.2372 59.6269 61.994 60.1858 62.5518C60.7447 63.1096 61.5022 63.4229 62.2918 63.4229H62.4658V64.2929C62.4658 64.6006 62.588 64.8956 62.8056 65.1132C63.0231 65.3307 63.3182 65.4529 63.6258 65.4529C63.9335 65.4529 64.2285 65.3307 64.4461 65.1132C64.6636 64.8956 64.7858 64.6006 64.7858 64.2929V63.4229H64.9598C65.3505 63.4229 65.7375 63.346 66.0984 63.1965C66.4594 63.0469 66.7874 62.8278 67.0637 62.5515C67.34 62.2752 67.5592 61.9472 67.7087 61.5862C67.8582 61.2252 67.9352 60.8383 67.9352 60.4475V58.5219C67.9337 57.7333 67.6197 56.9774 67.062 56.4197C66.5044 55.862 65.7485 55.5481 64.9598 55.5465H62.2918C62.2053 55.5473 62.1194 55.5309 62.0392 55.4983C61.959 55.4657 61.8861 55.4176 61.8246 55.3566C61.7631 55.2957 61.7143 55.2232 61.681 55.1433C61.6477 55.0634 61.6306 54.9777 61.6306 54.8911V52.9655C61.6321 52.7912 61.7025 52.6245 61.8263 52.5018C61.9501 52.379 62.1174 52.3101 62.2918 52.3101H64.9598C65.1332 52.3117 65.299 52.3812 65.4216 52.5038C65.5442 52.6264 65.6137 52.7922 65.6152 52.9655C65.6152 53.2732 65.7374 53.5682 65.955 53.7858C66.1725 54.0033 66.4676 54.1255 66.7752 54.1255C67.0829 54.1255 67.3779 54.0033 67.5955 53.7858C67.813 53.5682 67.9352 53.2732 67.9352 52.9655C67.9352 52.5748 67.8582 52.1879 67.7087 51.8269C67.5592 51.4659 67.34 51.1379 67.0637 50.8616C66.7874 50.5853 66.4594 50.3662 66.0984 50.2166C65.7375 50.0671 65.3505 49.9901 64.9598 49.9901H64.7858V49.1201C64.7858 48.8125 64.6636 48.5174 64.4461 48.2999C64.2285 48.0824 63.9335 47.9601 63.6258 47.9601C63.3182 47.9601 63.0231 48.0824 62.8056 48.2999C62.588 48.5174 62.4658 48.8125 62.4658 49.1201V49.9901H62.2918C61.5022 49.9901 60.7447 50.3034 60.1858 50.8613C59.6269 51.4191 59.3121 52.1759 59.3106 52.9655V54.8911C59.3121 55.6808 59.6269 56.4376 60.1858 56.9954C60.7447 57.5533 61.5022 57.8665 62.2918 57.8665H64.9598C65.1332 57.8681 65.299 57.9376 65.4216 58.0602C65.5442 58.1828 65.6137 58.3486 65.6152 58.5219V60.4475C65.6152 60.6214 65.5462 60.7881 65.4232 60.911C65.3003 61.0339 65.1336 61.1029 64.9598 61.1029Z" fill="white"/>
<defs>
<radialGradient id="paint0_radial_3_94" cx="0" cy="0" r="1" gradientTransform="matrix(-180.306 -11.4999 11.4999 -3356.05 177.641 57.5)" gradientUnits="userSpaceOnUse">
<stop offset="0.012763" stop-color="#E2A4FF"/>
<stop offset="1" stop-color="#9227FF"/>
</radialGradient>
</defs>
</svg>
