<svg width="81" height="81" viewBox="0 0 81 81" fill="none" xmlns="http://www.w3.org/2000/svg">
<circle cx="40.237" cy="40.2371" r="40.237" fill="url(#paint0_linear_2_223)"/>
<g clip-path="url(#clip0_2_223)">
<path d="M60.2125 56.3032L58.8186 54.9093C58.5761 54.6669 58.2125 54.6669 57.9701 54.9093C57.7277 55.1517 57.7277 55.5154 57.9701 55.7578L58.3337 56.1214H24.6974V51.879H26.4549C27.9701 51.879 29.3034 50.8487 29.6671 49.3941C29.7883 48.9699 30.1519 48.6669 30.5761 48.6669C32.0913 48.6669 33.4246 47.8184 34.2125 46.6063L36.8186 50.3032C37.4246 51.1517 38.3943 51.6366 39.4852 51.576C40.5155 51.5154 41.4852 50.9093 41.9701 50.0002L44.2731 45.879C44.4549 46.1214 44.6974 46.3032 44.9398 46.4244C47.364 47.879 49.7277 44.6669 53.9701 47.576C54.2731 47.7578 54.6367 47.6972 54.8186 47.3941C55.0004 47.0911 54.9398 46.7275 54.6367 46.5457C49.9701 43.3335 47.3034 46.4244 45.5458 45.3335C45.2428 45.1517 45.061 44.9093 44.8792 44.6669L49.9701 35.576C50.9398 33.8184 53.7277 34.4851 53.7277 36.5457V37.3335C53.7277 37.6972 53.9701 37.9396 54.3337 37.9396C54.6974 37.9396 54.9398 37.6972 54.9398 37.3335V36.5457C54.9398 33.2729 50.5155 32.1214 48.9398 34.9699L44.5155 42.9093L42.3337 29.2729C41.8489 26.182 37.4852 26.1214 36.8186 29.1517L33.7277 43.879L31.7277 41.0911C31.6064 40.9093 31.4246 40.8487 31.2428 40.8487H24.6974V22.8487L25.061 23.2123C25.3034 23.4548 25.6671 23.4548 25.9095 23.2123C26.1519 22.9699 26.1519 22.6063 25.9095 22.3638L24.5155 20.9699C24.2731 20.7275 23.9095 20.7275 23.6671 20.9699L22.2731 22.3638C22.0307 22.6063 22.0307 22.9699 22.2731 23.2123C22.5155 23.4548 22.8792 23.4548 23.1216 23.2123L23.4852 22.8487V24.9093H22.2125C21.8489 24.9093 21.6064 25.1517 21.6064 25.5154C21.6064 25.879 21.8489 26.1214 22.2125 26.1214H23.4852V28.1214H22.2125C21.8489 28.1214 21.6064 28.3638 21.6064 28.7275C21.6064 29.0911 21.8489 29.3335 22.2125 29.3335H23.4852V31.3335H22.2125C21.8489 31.3335 21.6064 31.576 21.6064 31.9396C21.6064 32.3032 21.8489 32.5457 22.2125 32.5457H23.4852V34.5457H22.2125C21.8489 34.5457 21.6064 34.7881 21.6064 35.1517C21.6064 35.5154 21.8489 35.7578 22.2125 35.7578H23.4852V37.7578H22.2125C21.8489 37.7578 21.6064 38.0002 21.6064 38.3638C21.6064 38.7275 21.8489 38.9699 22.2125 38.9699H23.4852V40.9699H22.2125C21.8489 40.9699 21.6064 41.2123 21.6064 41.576C21.6064 41.9396 21.8489 42.182 22.2125 42.182H23.4852V44.2426H22.2125C21.8489 44.2426 21.6064 44.4851 21.6064 44.8487C21.6064 45.2123 21.8489 45.4548 22.2125 45.4548H23.4852V47.4548H22.2125C21.8489 47.4548 21.6064 47.6972 21.6064 48.0608C21.6064 48.4244 21.8489 48.6669 22.2125 48.6669H23.4852V50.6669H22.2125C21.8489 50.6669 21.6064 50.9093 21.6064 51.2729C21.6064 51.6366 21.8489 51.879 22.2125 51.879H23.4852V53.879H22.2125C21.8489 53.879 21.6064 54.1214 21.6064 54.4851C21.6064 54.8487 21.8489 55.0911 22.2125 55.0911H23.4852V56.7275C23.4852 57.0911 23.7277 57.3335 24.0913 57.3335H25.9095V58.6063C25.9095 58.9699 26.1519 59.2123 26.5155 59.2123C26.8792 59.2123 27.1216 58.9699 27.1216 58.6063V57.3335H29.1216V58.6063C29.1216 58.9699 29.364 59.2123 29.7277 59.2123C30.0913 59.2123 30.3337 58.9699 30.3337 58.6063V57.3335H32.3337V58.6063C32.3337 58.9699 32.5761 59.2123 32.9398 59.2123C33.3034 59.2123 33.5458 58.9699 33.5458 58.6063V57.3335H35.5458V58.6063C35.5458 58.9699 35.7883 59.2123 36.1519 59.2123C36.5155 59.2123 36.758 58.9699 36.758 58.6063V57.3335H38.758V58.6063C38.758 58.9699 39.0004 59.2123 39.364 59.2123C39.7277 59.2123 39.9701 58.9699 39.9701 58.6063V57.3335H41.9701V58.6063C41.9701 58.9699 42.2125 59.2123 42.5761 59.2123C42.9398 59.2123 43.1822 58.9699 43.1822 58.6063V57.3335H45.2428V58.6063C45.2428 58.9699 45.4852 59.2123 45.8489 59.2123C46.2125 59.2123 46.4549 58.9699 46.4549 58.6063V57.3335H48.4549V58.6063C48.4549 58.9699 48.6974 59.2123 49.061 59.2123C49.4246 59.2123 49.6671 58.9699 49.6671 58.6063V57.3335H51.6671V58.6063C51.6671 58.9699 51.9095 59.2123 52.2731 59.2123C52.6367 59.2123 52.8792 58.9699 52.8792 58.6063V57.3335H54.8792V58.6063C54.8792 58.9699 55.1216 59.2123 55.4852 59.2123C55.8489 59.2123 56.0913 58.9699 56.0913 58.6063V57.3335H58.3337L57.9701 57.6972C57.7277 57.9396 57.7277 58.3032 57.9701 58.5457C58.2125 58.7881 58.5761 58.7881 58.8186 58.5457L60.2125 57.1517C60.4549 56.9093 60.4549 56.5457 60.2125 56.3032ZM37.9701 29.3941C38.3337 27.6972 40.8186 27.7578 41.061 29.4548L43.4246 44.182C43.4246 44.3032 43.4852 44.4244 43.4852 44.5457L40.8186 49.3335C40.1519 50.4851 38.5155 50.6063 37.7277 49.5154L34.6367 45.2123L37.9701 29.3941ZM30.9398 42.0002L33.364 45.4548C32.9398 46.6063 31.8489 47.4548 30.5761 47.4548C29.6064 47.4548 28.6974 48.1214 28.5155 49.0911C28.2731 50.0002 27.4246 50.6669 26.4549 50.6669H24.6974V42.0002H30.9398Z" fill="white"/>
</g>
<defs>
<linearGradient id="paint0_linear_2_223" x1="40.237" y1="6.10352e-05" x2="40.237" y2="80.4741" gradientUnits="userSpaceOnUse">
<stop stop-color="#B46AFF"/>
<stop offset="1" stop-color="#8F2CF3"/>
</linearGradient>
<clipPath id="clip0_2_223">
<rect width="40" height="40" fill="white" transform="translate(21 20)"/>
</clipPath>
</defs>
</svg>
