<svg width="26" height="26" viewBox="0 0 26 26" fill="none" xmlns="http://www.w3.org/2000/svg">
<g clip-path="url(#clip0_7_24)">
<path d="M9.61914 7.52378H21.3315C21.5418 7.52378 21.7123 7.35327 21.7123 7.14293C21.7123 6.9326 21.5418 6.76208 21.3315 6.76208H9.61914C9.4088 6.76208 9.23828 6.9326 9.23828 7.14293C9.23828 7.35327 9.4088 7.52378 9.61914 7.52378Z" fill="white"/>
<path d="M21.7123 9.83507C21.7123 9.62474 21.5418 9.45422 21.3315 9.45422H9.61914C9.4088 9.45422 9.23828 9.62474 9.23828 9.83507C9.23828 10.0454 9.4088 10.2159 9.61914 10.2159H21.3315C21.5418 10.2159 21.7123 10.0454 21.7123 9.83507Z" fill="white"/>
<path d="M21.7124 12.6367C21.7124 12.4264 21.5419 12.2559 21.3315 12.2559H14.0897C13.8793 12.2559 13.7088 12.4264 13.7088 12.6367C13.7088 12.847 13.8793 13.0176 14.0897 13.0176H21.3315C21.5419 13.0176 21.7124 12.847 21.7124 12.6367Z" fill="white"/>
<path d="M21.6398 14.7234H17.8574C17.6471 14.7234 17.4766 14.8939 17.4766 15.1042C17.4766 15.3146 17.6471 15.4851 17.8574 15.4851H21.6398C21.8501 15.4851 22.0206 15.3146 22.0206 15.1042C22.0206 14.8939 21.8501 14.7234 21.6398 14.7234Z" fill="white"/>
<path d="M24.6095 3.72635L20.7645 0.196041L20.7518 0.18424C20.6184 0.0595464 20.5156 0.000213623 20.2923 0.000213623H6.5113C5.93079 0.000213623 5.45849 0.472281 5.45849 1.05255V13.2367H3.28356C2.78842 13.2367 2.65249 13.5746 2.61545 13.7765C2.52822 14.2548 2.16529 14.6345 1.71106 14.7216C1.10397 14.8403 1.11265 15.28 1.11838 15.5709C1.11919 15.6125 1.12011 15.6576 1.12011 15.7068V20.7636C1.12011 21.9599 1.57935 22.5194 2.42728 23.1272L5.37027 25.6184C5.37838 25.6253 5.38681 25.6318 5.39546 25.638C5.73605 25.8804 6.06846 25.9997 6.40607 25.9997C6.45378 25.9997 6.50161 25.9973 6.54957 25.9926C6.93209 26.0299 7.32021 25.9108 7.70342 25.638C7.7121 25.6318 7.7205 25.6253 7.72864 25.6184L10.1301 23.5856H23.8281C24.4087 23.5856 24.881 23.1135 24.881 22.5332V4.51708C24.881 4.48991 24.8813 4.46447 24.8817 4.44049C24.8847 4.23604 24.8884 3.98159 24.6095 3.72635ZM24.0948 4.28783C24.1075 4.29946 24.1148 4.30755 24.1187 4.31221C24.119 4.31449 24.1191 4.31816 24.1193 4.32098H20.3657C20.3215 4.32098 20.268 4.32098 20.2242 4.3191V0.761912H20.2545L24.0948 4.28783ZM7.24922 25.0263C7.01024 25.1937 6.80352 25.2591 6.6 25.2318C6.58321 25.2295 6.56633 25.2284 6.54944 25.2284C6.53263 25.2284 6.51582 25.2295 6.49913 25.2317C6.29497 25.259 6.08854 25.1936 5.84969 25.0263L2.90757 22.5358C2.89958 22.529 2.89133 22.5226 2.88282 22.5165C2.17692 22.0125 1.88183 21.6575 1.88183 20.7636V15.7068C1.88183 15.6522 1.88087 15.602 1.87995 15.5559C1.87938 15.5267 1.87873 15.4942 1.87866 15.4649C2.59983 15.3169 3.1791 14.7354 3.34734 13.9984H9.75144C9.91854 14.7358 10.4982 15.3173 11.2202 15.4649C11.2202 15.4942 11.2195 15.5267 11.219 15.556C11.218 15.6021 11.2171 15.6522 11.2171 15.7068V20.7636C11.2171 21.6575 10.922 22.0125 10.2161 22.5165C10.2076 22.5226 10.1993 22.529 10.1913 22.5358L9.75281 22.907C9.74826 22.9106 9.74389 22.9144 9.73951 22.9183L7.24922 25.0263ZM23.8281 22.8239H11.0629C11.6597 22.315 11.9788 21.7603 11.9788 20.7636V15.7068C11.9788 15.6576 11.9797 15.6125 11.9805 15.571C11.9863 15.28 11.9949 14.8404 11.3865 14.7214C10.9324 14.6343 10.5696 14.2549 10.4834 13.7761C10.4464 13.5746 10.3105 13.2367 9.81534 13.2367H6.22021V1.05255C6.22021 0.892278 6.3508 0.761907 6.5113 0.761907H19.4625V4.33529C19.4625 4.73555 19.6574 4.91618 19.8209 4.99724C19.9933 5.08268 20.1826 5.08268 20.3657 5.08268H24.1193V22.5332C24.1193 22.6935 23.9887 22.8239 23.8281 22.8239Z" fill="white"/>
<path d="M8.98769 17.222C8.83661 17.0757 8.5955 17.0795 8.44913 17.2306L5.5625 20.2106L4.58445 19.5494C4.41021 19.4315 4.17341 19.4773 4.05561 19.6516C3.93781 19.8258 3.98356 20.0626 4.15782 20.1804L5.40049 21.0205C5.46543 21.0644 5.53977 21.0859 5.61366 21.0859C5.71393 21.0859 5.81336 21.0464 5.88737 20.97L8.99627 17.7606C9.1426 17.6095 9.13876 17.3684 8.98769 17.222Z" fill="white"/>
</g>
<defs>
<clipPath id="clip0_7_24">
<rect width="26" height="26" fill="white"/>
</clipPath>
</defs>
</svg>
