<svg width="42" height="42" viewBox="0 0 42 42" fill="none" xmlns="http://www.w3.org/2000/svg">
<path d="M15.5371 12.1538H34.457C34.7968 12.1538 35.0722 11.8783 35.0722 11.5386C35.0722 11.1988 34.7968 10.9233 34.457 10.9233H15.5371C15.1973 10.9233 14.9219 11.1988 14.9219 11.5386C14.9219 11.8783 15.1973 12.1538 15.5371 12.1538Z" fill="#212121"/>
<path d="M35.0722 15.8872C35.0722 15.5474 34.7968 15.272 34.457 15.272H15.5371C15.1973 15.272 14.9219 15.5474 14.9219 15.8872C14.9219 16.227 15.1973 16.5024 15.5371 16.5024H34.457C34.7968 16.5024 35.0722 16.227 35.0722 15.8872Z" fill="#212121"/>
<path d="M35.0753 20.4131C35.0753 20.0733 34.7999 19.7979 34.4601 19.7979H22.7617C22.4219 19.7979 22.1465 20.0733 22.1465 20.4131C22.1465 20.7528 22.4219 21.0283 22.7617 21.0283H34.4601C34.7999 21.0283 35.0753 20.7528 35.0753 20.4131Z" fill="#212121"/>
<path d="M34.9556 23.7839H28.8457C28.5059 23.7839 28.2305 24.0594 28.2305 24.3992C28.2305 24.7389 28.5059 25.0144 28.8457 25.0144H34.9556C35.2954 25.0144 35.5709 24.7389 35.5709 24.3992C35.5709 24.0594 35.2954 23.7839 34.9556 23.7839Z" fill="#212121"/>
<path d="M39.7538 6.01939L33.5426 0.316581L33.5221 0.297517C33.3066 0.0960895 33.1406 0.000244141 32.7799 0.000244141H10.5183C9.58051 0.000244141 8.81756 0.762815 8.81756 1.70018V21.3822H5.30421C4.50438 21.3822 4.2848 21.9281 4.22495 22.2542C4.08404 23.0268 3.49777 23.6403 2.76402 23.781C1.78333 23.9727 1.79735 24.683 1.80661 25.1529C1.80793 25.22 1.80941 25.293 1.80941 25.3724V33.5411C1.80941 35.4735 2.55125 36.3774 3.92099 37.3592L8.67505 41.3835C8.68815 41.3946 8.70177 41.4052 8.71575 41.4151C9.26593 41.8068 9.8029 41.9995 10.3483 41.9994C10.4253 41.9994 10.5026 41.9956 10.5801 41.9879C11.198 42.0482 11.825 41.8558 12.444 41.4151C12.458 41.4052 12.4716 41.3946 12.4847 41.3835L16.364 38.0997H38.4916C39.4294 38.0997 40.1923 37.3371 40.1923 36.3998V7.29673C40.1923 7.25283 40.1929 7.21174 40.1935 7.173C40.1983 6.84273 40.2044 6.4317 39.7538 6.01939ZM38.9224 6.9264C38.9429 6.94518 38.9548 6.95824 38.961 6.96577C38.9614 6.96946 38.9616 6.97539 38.9619 6.97995H32.8984C32.827 6.97995 32.7406 6.97995 32.6699 6.9769V1.23068H32.7188L38.9224 6.9264ZM11.7103 40.427C11.3242 40.6974 10.9903 40.803 10.6615 40.7589C10.6344 40.7553 10.6071 40.7535 10.5799 40.7535C10.5527 40.7535 10.5256 40.7553 10.4986 40.7589C10.1688 40.8029 9.83534 40.6972 9.4495 40.427L4.69684 36.4039C4.68394 36.3929 4.67061 36.3826 4.65686 36.3728C3.51656 35.5585 3.03988 34.9851 3.03988 33.5411V25.3724C3.03988 25.2842 3.03832 25.2032 3.03684 25.1287C3.03592 25.0814 3.03488 25.029 3.03475 24.9817C4.19973 24.7426 5.13547 23.8032 5.40724 22.6127H15.7523C16.0223 23.804 16.9587 24.7433 18.125 24.9817C18.1249 25.029 18.1238 25.0815 18.1229 25.1288C18.1214 25.2033 18.1199 25.2842 18.1199 25.3724V33.5411C18.1199 34.9851 17.6432 35.5585 16.5029 36.3728C16.4892 36.3826 16.4758 36.3929 16.4629 36.4039L15.7545 37.0035C15.7472 37.0094 15.7401 37.0155 15.7331 37.0217L11.7103 40.427ZM38.4916 36.8693H17.8708C18.8349 36.0472 19.3504 35.1512 19.3504 33.5411V25.3724C19.3504 25.293 19.3518 25.2201 19.3532 25.153C19.3624 24.683 19.3764 23.9728 18.3936 23.7806C17.6601 23.6399 17.0739 23.027 16.9347 22.2535C16.875 21.9281 16.6554 21.3822 15.8555 21.3822H10.048V1.70018C10.048 1.44127 10.259 1.23067 10.5183 1.23067H31.4394V7.00306C31.4394 7.64963 31.7543 7.94142 32.0184 8.07236C32.2968 8.21038 32.6027 8.21038 32.8984 8.21038H38.9619V36.3998C38.9619 36.6587 38.7509 36.8693 38.4916 36.8693Z" fill="#212121"/>
<path d="M14.5201 27.8203C14.276 27.5839 13.8865 27.5901 13.6501 27.8342L8.98708 32.648L7.40715 31.5799C7.12569 31.3895 6.74317 31.4635 6.55288 31.7449C6.36258 32.0264 6.43648 32.4089 6.71798 32.5992L8.72537 33.9563C8.83028 34.0273 8.95036 34.0619 9.06972 34.0619C9.2317 34.0619 9.39231 33.9981 9.51187 33.8747L14.5339 28.6903C14.7703 28.4462 14.7641 28.0567 14.5201 27.8203Z" fill="#212121"/>
</svg>
