<svg width="17" height="17" viewBox="0 0 17 17" fill="none" xmlns="http://www.w3.org/2000/svg">
<g clip-path="url(#clip0_629_973)">
<path d="M13.7821 8.30634C15.5244 6.74003 15.6671 4.05788 14.1008 2.31558C12.6642 0.717603 10.2597 0.446133 8.50302 1.68363C6.58804 0.332152 3.94008 0.788965 2.5886 2.70391C1.3485 4.46105 1.61887 6.86806 3.21788 8.30631C1.23107 9.35362 -0.00895171 11.4184 4.86655e-05 13.6643V15.4857C4.86655e-05 15.8211 0.271874 16.0929 0.6072 16.0929H16.3928C16.7281 16.0929 17 15.8211 17 15.4857V13.6643C17.0089 11.4184 15.7689 9.35362 13.7821 8.30634ZM10.9285 2.12867C12.6027 2.12682 13.9615 3.48253 13.9634 5.15674C13.9647 6.35077 13.265 7.43434 12.1762 7.92441C12.1295 7.94565 12.0827 7.96507 12.0354 7.98514C11.8855 8.04558 11.731 8.09368 11.5733 8.12904C11.543 8.13573 11.5126 8.13935 11.4816 8.14544C11.3055 8.1792 11.1267 8.19727 10.9473 8.19948C10.8666 8.19948 10.7852 8.19339 10.7045 8.18614C10.6741 8.18614 10.6438 8.18613 10.6134 8.18005C10.2683 8.13943 9.93265 8.04049 9.62074 7.88741C9.60921 7.88194 9.59583 7.88254 9.58431 7.8777C9.52358 7.84857 9.46289 7.82306 9.40885 7.79026C9.41373 7.78418 9.41675 7.77753 9.42159 7.77144C9.7 7.4137 9.91949 7.01384 10.0718 6.58691L10.0906 6.5359C10.1599 6.33199 10.2137 6.12316 10.2515 5.91114C10.257 5.88019 10.2613 5.85041 10.2661 5.81704C10.3012 5.60121 10.3197 5.38303 10.3214 5.16436C10.3196 4.94611 10.3012 4.72832 10.2661 4.51288C10.2613 4.48132 10.257 4.45215 10.2515 4.41878C10.2137 4.2068 10.1599 3.99794 10.0906 3.79402L10.0718 3.74301C9.91949 3.31608 9.69996 2.91622 9.42159 2.55848C9.41672 2.5524 9.41369 2.54575 9.40885 2.53966C9.87011 2.27058 10.3945 2.1287 10.9285 2.12867ZM3.03574 5.16439C3.03143 3.49217 4.38352 2.13308 6.05574 2.12878C6.83959 2.12675 7.5937 2.42881 8.1594 2.9714C8.19462 3.00541 8.22924 3.03938 8.26321 3.0746C8.36748 3.18385 8.46364 3.30053 8.55101 3.42369C8.57773 3.46133 8.60202 3.50142 8.62689 3.54027C8.71173 3.67086 8.78623 3.8079 8.84969 3.95009C8.86488 3.9847 8.87641 4.01992 8.88975 4.0545C8.95375 4.21178 9.00412 4.37428 9.04034 4.5402C9.04461 4.55841 9.04582 4.57663 9.04945 4.59545C9.12636 4.97243 9.12636 5.36108 9.04945 5.73807C9.04582 5.75689 9.04457 5.7751 9.04034 5.79332C9.00416 5.95924 8.95378 6.12174 8.88975 6.27902C8.87641 6.31363 8.86485 6.34885 8.84969 6.38343C8.78616 6.52541 8.71166 6.66223 8.62689 6.79264C8.60199 6.83149 8.57773 6.87158 8.55101 6.90922C8.46367 7.03242 8.36748 7.14906 8.26321 7.25831C8.2292 7.29353 8.19459 7.32754 8.1594 7.36152C7.91358 7.59577 7.63016 7.78706 7.32095 7.92737C7.27178 7.94981 7.22198 7.97048 7.1716 7.98809C7.02525 8.04618 6.87466 8.09286 6.72112 8.12772C6.68288 8.13622 6.64339 8.14106 6.60454 8.14775C6.43969 8.17845 6.27253 8.19528 6.10486 8.19816H6.03809C5.87043 8.19531 5.70326 8.17845 5.53841 8.14775C5.49956 8.14106 5.46007 8.13622 5.42183 8.12772C5.26829 8.09286 5.11767 8.04618 4.97135 7.98809C4.92094 7.96806 4.87117 7.94743 4.82201 7.92737C3.73577 7.43693 3.03712 6.35618 3.03574 5.16439ZM10.9285 14.8786H1.21432V13.6643C1.20542 11.607 2.50169 9.77006 4.44307 9.08895C5.48526 9.52285 6.65755 9.52285 7.69978 9.08895C7.90248 9.16301 8.10003 9.25042 8.29114 9.35063C8.41743 9.41559 8.534 9.48966 8.65542 9.56433C8.73436 9.61349 8.81447 9.66148 8.89039 9.71552C9.00757 9.7987 9.11807 9.88916 9.22675 9.98205C9.29658 10.0428 9.36577 10.1035 9.43134 10.1642C9.53152 10.2589 9.62561 10.3591 9.71608 10.4617C9.78104 10.5358 9.84418 10.611 9.9043 10.6888C9.98385 10.7908 10.0597 10.8952 10.1302 11.0026C10.1909 11.0937 10.2449 11.1884 10.2983 11.2832C10.3591 11.3876 10.4149 11.492 10.4659 11.6007C10.5169 11.7094 10.5618 11.8284 10.6055 11.9443C10.6438 12.0451 10.6845 12.1453 10.716 12.2479C10.7585 12.3887 10.7883 12.5345 10.818 12.6802C10.8362 12.7664 10.8599 12.8508 10.8732 12.9382C10.9092 13.1786 10.9277 13.4213 10.9285 13.6643L10.9285 14.8786ZM15.7857 14.8786H12.1428V13.6643C12.1428 13.4743 12.1319 13.2861 12.1149 13.0997C12.11 13.0451 12.1016 12.991 12.0955 12.9364C12.0791 12.8022 12.0603 12.6692 12.0348 12.5375C12.0238 12.4812 12.0123 12.4247 12.0001 12.3681C11.971 12.2329 11.9372 12.0989 11.8988 11.9661C11.886 11.9224 11.8745 11.8781 11.8611 11.835C11.6911 11.2915 11.4448 10.775 11.1295 10.3008L11.1058 10.2662C11.0014 10.1111 10.8899 9.9612 10.7713 9.81631L10.7671 9.81083C10.6456 9.66027 10.5139 9.51392 10.3755 9.3755C10.3833 9.3755 10.3919 9.3755 10.4004 9.3755C10.5717 9.39802 10.7442 9.41019 10.917 9.41193H10.9504C11.1104 9.41054 11.2701 9.40019 11.4289 9.38098C11.4787 9.3749 11.5279 9.36579 11.5776 9.35789C11.7068 9.33808 11.8343 9.31236 11.9601 9.2808C11.9959 9.27169 12.0324 9.26319 12.0688 9.25288C12.234 9.20794 12.3962 9.15277 12.5545 9.08774C14.4973 9.76817 15.7947 11.6059 15.7857 13.6644V14.8786H15.7857Z" fill="white"/>
</g>
<defs>
<clipPath id="clip0_629_973">
<rect width="17" height="17" fill="white"/>
</clipPath>
</defs>
</svg>
