<svg width="34" height="34" viewBox="0 0 34 34" fill="none" xmlns="http://www.w3.org/2000/svg">
<path d="M31.7751 13.2342C31.6579 12.8573 31.4223 12.5282 31.1031 12.2959C30.7839 12.0636 30.3983 11.9405 30.0036 11.9448H21.9546C21.8035 11.9455 21.6562 11.8976 21.5343 11.8082C21.4125 11.7188 21.3227 11.5925 21.2781 11.4482L18.7837 3.43513C18.6654 3.05432 18.4283 2.72134 18.1072 2.48487C17.7861 2.24841 17.3978 2.12085 16.999 2.12085C16.6003 2.12085 16.2119 2.24841 15.8908 2.48487C15.5697 2.72134 15.3327 3.05432 15.2144 3.43513L12.72 11.4482C12.6754 11.5925 12.5855 11.7188 12.4637 11.8082C12.3419 11.8976 12.1946 11.9455 12.0435 11.9448H3.99447C3.60076 11.9448 3.21718 12.0696 2.89886 12.3013C2.58055 12.533 2.34388 12.8596 2.22289 13.2343C2.1019 13.6089 2.10281 14.0123 2.2255 14.3864C2.34819 14.7605 2.58633 15.0861 2.90569 15.3163L9.15756 19.8278C9.27417 19.9125 9.36233 20.0306 9.41039 20.1664C9.45846 20.3023 9.46415 20.4495 9.42672 20.5887L6.97792 29.5065C6.87477 29.8831 6.89215 30.2825 7.0276 30.6488C7.16305 31.015 7.40978 31.3296 7.73315 31.5484C8.05652 31.7673 8.44031 31.8793 8.83063 31.8689C9.22096 31.8585 9.59823 31.7262 9.90948 31.4904L16.5708 26.438C16.6943 26.3451 16.8445 26.2948 16.999 26.2948C17.1535 26.2948 17.3038 26.3451 17.4272 26.438L24.0886 31.4904C24.3999 31.7263 24.7773 31.8587 25.1678 31.869C25.5582 31.8793 25.9421 31.7671 26.2655 31.5481C26.5888 31.329 26.8355 31.0142 26.9707 30.6477C27.1059 30.2813 27.123 29.8817 27.0195 29.5051L24.5721 20.59C24.5343 20.4508 24.5397 20.3032 24.5876 20.1671C24.6355 20.031 24.7237 19.9126 24.8405 19.8278L31.0924 15.3163C31.4151 15.0889 31.6559 14.7635 31.7789 14.3884C31.9019 14.0133 31.9006 13.6085 31.7751 13.2342ZM30.2637 14.1681L24.0118 18.6795C23.6616 18.9338 23.3969 19.2886 23.253 19.6968C23.109 20.105 23.0926 20.5473 23.2059 20.965L25.6533 29.8801C25.6785 29.9712 25.6745 30.0679 25.642 30.1566C25.6094 30.2453 25.5498 30.3216 25.4717 30.3747C25.3935 30.4278 25.3007 30.4551 25.2062 30.4527C25.1117 30.4504 25.0204 30.4185 24.945 30.3615L18.2836 25.3091C17.9135 25.0299 17.4626 24.8789 16.999 24.8789C16.5355 24.8789 16.0845 25.0299 15.7145 25.3091L9.05311 30.3615C8.97777 30.4183 8.88654 30.4502 8.79218 30.4526C8.69783 30.4551 8.60508 30.4279 8.52693 30.375C8.44877 30.3221 8.38912 30.246 8.35634 30.1575C8.32355 30.069 8.31926 29.9725 8.34408 29.8814L10.7928 20.9636C10.9057 20.546 10.889 20.104 10.745 19.6961C10.601 19.2881 10.3363 18.9336 9.98625 18.6795L3.73439 14.1681C3.65804 14.113 3.60111 14.0352 3.57177 13.9457C3.54243 13.8562 3.54218 13.7598 3.57107 13.6702C3.59997 13.5806 3.65651 13.5025 3.73258 13.447C3.80865 13.3915 3.90033 13.3616 3.99447 13.3615H12.0435C12.4971 13.3631 12.9393 13.2189 13.3047 12.9501C13.6701 12.6813 13.9394 12.3022 14.073 11.8687L16.5674 3.85571C16.596 3.76356 16.6533 3.68297 16.7309 3.62574C16.8086 3.56851 16.9026 3.53763 16.999 3.53763C17.0955 3.53763 17.1895 3.56851 17.2671 3.62574C17.3448 3.68297 17.4021 3.76356 17.4307 3.85571L19.9251 11.8687C20.0587 12.3022 20.328 12.6813 20.6934 12.9501C21.0589 13.2189 21.501 13.3631 21.9546 13.3615H30.0036C30.0977 13.3616 30.1894 13.3915 30.2655 13.447C30.3416 13.5024 30.3981 13.5806 30.427 13.6702C30.4559 13.7598 30.4556 13.8562 30.4263 13.9457C30.397 14.0351 30.34 14.113 30.2637 14.1681Z" fill="#212121"/>
<path d="M32.8986 12.9484C32.7726 12.5428 32.519 12.1887 32.1755 11.9388C31.8321 11.6888 31.4172 11.5564 30.9925 11.5611H22.3319C22.1693 11.5618 22.0108 11.5103 21.8797 11.4141C21.7486 11.3178 21.652 11.182 21.604 11.0267L18.92 2.40475C18.7927 1.995 18.5377 1.63672 18.1922 1.38229C17.8467 1.12785 17.4288 0.990601 16.9998 0.990601C16.5707 0.990601 16.1529 1.12785 15.8074 1.38229C15.4619 1.63672 15.2068 1.995 15.0795 2.40475L12.3956 11.0267C12.3476 11.182 12.2509 11.3178 12.1198 11.4141C11.9888 11.5103 11.8302 11.5618 11.6676 11.5611H3.00703C2.5834 11.561 2.17067 11.6953 1.82817 11.9446C1.48566 12.1939 1.23101 12.5454 1.10083 12.9485C0.970646 13.3516 0.971629 13.7856 1.10364 14.1882C1.23565 14.5907 1.49188 14.941 1.83552 15.1887L8.56244 20.043C8.68791 20.1341 8.78277 20.2612 8.83449 20.4074C8.8862 20.5536 8.89233 20.712 8.85206 20.8618L6.21717 30.4572C6.10619 30.8624 6.12489 31.2922 6.27063 31.6862C6.41637 32.0803 6.68185 32.4188 7.0298 32.6543C7.37774 32.8897 7.79069 33.0103 8.21067 32.9991C8.63065 32.9879 9.03659 32.8455 9.3715 32.5918L16.539 27.1555C16.6718 27.0555 16.8335 27.0014 16.9998 27.0014C17.166 27.0014 17.3277 27.0555 17.4605 27.1555L24.628 32.5918C24.963 32.8456 25.3691 32.9881 25.7892 32.9992C26.2093 33.0103 26.6224 32.8896 26.9703 32.6539C27.3183 32.4182 27.5836 32.0794 27.7291 31.6852C27.8747 31.2909 27.893 30.8609 27.7816 30.4557L25.1483 20.8632C25.1076 20.7133 25.1134 20.5546 25.165 20.4081C25.2165 20.2616 25.3115 20.1343 25.4371 20.043L32.164 15.1887C32.5113 14.9441 32.7703 14.594 32.9027 14.1903C33.035 13.7867 33.0336 13.3512 32.8986 12.9484ZM31.2723 13.9532L24.5454 18.8075C24.1685 19.0811 23.8838 19.4628 23.7289 19.9021C23.574 20.3413 23.5564 20.8172 23.6783 21.2667L26.3116 30.8592C26.3388 30.9572 26.3345 31.0612 26.2994 31.1567C26.2644 31.2521 26.2003 31.3342 26.1162 31.3913C26.0321 31.4485 25.9322 31.4779 25.8306 31.4753C25.7289 31.4728 25.6306 31.4385 25.5495 31.3772L18.3819 25.9409C17.9838 25.6404 17.4986 25.4779 16.9998 25.4779C16.501 25.4779 16.0158 25.6404 15.6176 25.9409L8.45005 31.3772C8.36899 31.4383 8.27082 31.4726 8.1693 31.4752C8.06778 31.4778 7.96798 31.4486 7.88389 31.3917C7.79979 31.3347 7.73561 31.2529 7.70033 31.1577C7.66505 31.0625 7.66044 30.9586 7.68715 30.8606L10.322 21.2652C10.4434 20.8158 10.4255 20.3402 10.2705 19.9013C10.1155 19.4624 9.8308 19.0809 9.4541 18.8075L2.72718 13.9533C2.64503 13.894 2.58377 13.8102 2.5522 13.714C2.52063 13.6177 2.52037 13.514 2.55146 13.4176C2.58254 13.3211 2.64338 13.2371 2.72523 13.1774C2.80708 13.1177 2.90573 13.0855 3.00703 13.0854H11.6677C12.1558 13.0871 12.6315 12.9319 13.0247 12.6427C13.4178 12.3535 13.7077 11.9456 13.8514 11.4792L16.5353 2.85729C16.5661 2.75814 16.6277 2.67143 16.7113 2.60984C16.7949 2.54826 16.896 2.51504 16.9998 2.51504C17.1036 2.51504 17.2047 2.54826 17.2882 2.60984C17.3718 2.67143 17.4335 2.75814 17.4642 2.85729L20.1481 11.4792C20.2919 11.9456 20.5817 12.3535 20.9749 12.6427C21.3681 12.9319 21.8438 13.0871 22.3319 13.0854H30.9925C31.0938 13.0855 31.1924 13.1177 31.2743 13.1774C31.3561 13.237 31.417 13.3211 31.4481 13.4175C31.4792 13.5139 31.4789 13.6177 31.4473 13.714C31.4158 13.8102 31.3545 13.894 31.2723 13.9532Z" fill="#212121"/>
</svg>
