<svg width="24" height="24" viewBox="0 0 24 24" fill="none" xmlns="http://www.w3.org/2000/svg">
<path d="M22.4298 9.3418C22.3471 9.07571 22.1808 8.84341 21.9555 8.67944C21.7302 8.51546 21.458 8.42855 21.1794 8.43164H15.4977C15.391 8.43213 15.287 8.39832 15.2011 8.3352C15.1151 8.27207 15.0517 8.18297 15.0202 8.08105L13.2594 2.4248C13.1759 2.15599 13.0086 1.92095 12.7819 1.75403C12.5553 1.58711 12.2812 1.49707 11.9997 1.49707C11.7182 1.49707 11.4441 1.58711 11.2174 1.75403C10.9907 1.92095 10.8234 2.15599 10.7399 2.4248L8.97915 8.08105C8.94767 8.18297 8.88426 8.27207 8.79827 8.3352C8.71229 8.39832 8.60828 8.43213 8.50161 8.43164H2.81997C2.54206 8.43161 2.2713 8.51971 2.0466 8.68325C1.82191 8.8468 1.65485 9.07737 1.56944 9.34183C1.48404 9.6063 1.48468 9.89103 1.57129 10.1551C1.65789 10.4192 1.82599 10.649 2.05142 10.8115L6.4645 13.9961C6.54682 14.0559 6.60905 14.1392 6.64298 14.2351C6.6769 14.331 6.68092 14.435 6.6545 14.5332L4.92593 20.8281C4.85313 21.0939 4.86539 21.3759 4.961 21.6344C5.05661 21.8929 5.23078 22.115 5.45904 22.2695C5.6873 22.4239 5.95821 22.5031 6.23373 22.4957C6.50925 22.4884 6.77556 22.3949 6.99527 22.2285L11.6974 18.6621C11.7845 18.5965 11.8906 18.561 11.9997 18.561C12.1087 18.561 12.2148 18.5965 12.3019 18.6621L17.0041 22.2285C17.2238 22.395 17.4902 22.4885 17.7658 22.4958C18.0414 22.5031 18.3124 22.4238 18.5407 22.2692C18.7689 22.1146 18.943 21.8923 19.0385 21.6337C19.1339 21.375 19.146 21.093 19.0729 20.8272L17.3454 14.5341C17.3186 14.4358 17.3225 14.3317 17.3563 14.2356C17.3901 14.1395 17.4524 14.056 17.5348 13.9961L21.9479 10.8115C22.1757 10.651 22.3457 10.4213 22.4325 10.1565C22.5193 9.89175 22.5184 9.60601 22.4298 9.3418ZM21.3629 10.001L16.9499 13.1855C16.7026 13.365 16.5158 13.6155 16.4142 13.9036C16.3126 14.1917 16.301 14.504 16.381 14.7988L18.1086 21.0918C18.1263 21.1561 18.1235 21.2244 18.1006 21.287C18.0776 21.3496 18.0355 21.4035 17.9804 21.441C17.9252 21.4784 17.8596 21.4977 17.793 21.4961C17.7263 21.4944 17.6618 21.4719 17.6086 21.4317L12.9064 17.8653C12.6452 17.6682 12.3269 17.5616 11.9997 17.5616C11.6724 17.5616 11.3541 17.6682 11.0929 17.8653L6.39077 21.4316C6.33759 21.4718 6.27319 21.4943 6.20659 21.496C6.13999 21.4977 6.07452 21.4785 6.01935 21.4412C5.96418 21.4038 5.92208 21.3501 5.89893 21.2877C5.87579 21.2252 5.87277 21.157 5.89028 21.0928L7.6188 14.7978C7.6985 14.5031 7.68673 14.191 7.58505 13.9031C7.48337 13.6152 7.29659 13.3649 7.04946 13.1855L2.63638 10.001C2.58249 9.96212 2.5423 9.90717 2.52159 9.84402C2.50088 9.78088 2.50071 9.7128 2.5211 9.64956C2.5415 9.58631 2.58141 9.53115 2.6351 9.49201C2.6888 9.45286 2.75352 9.43173 2.81997 9.43166H8.50166C8.82186 9.43278 9.13393 9.33097 9.39187 9.14124C9.6498 8.95152 9.83994 8.68392 9.93423 8.37793L11.695 2.72168C11.7151 2.65663 11.7556 2.59975 11.8104 2.55935C11.8652 2.51895 11.9316 2.49715 11.9997 2.49715C12.0678 2.49715 12.1341 2.51895 12.1889 2.55935C12.2437 2.59975 12.2842 2.65663 12.3044 2.72168L14.0651 8.37793C14.1594 8.68393 14.3495 8.95152 14.6075 9.14124C14.8654 9.33097 15.1775 9.43277 15.4977 9.43164H21.1794C21.2458 9.43171 21.3105 9.45284 21.3642 9.49199C21.4179 9.53113 21.4578 9.58629 21.4782 9.64954C21.4986 9.71278 21.4984 9.78086 21.4777 9.844C21.457 9.90715 21.4168 9.9621 21.3629 10.001Z" fill="white"/>
</svg>
