<svg width="81" height="81" viewBox="0 0 81 81" fill="none" xmlns="http://www.w3.org/2000/svg">
<circle cx="40.237" cy="40.237" r="40.237" fill="url(#paint0_linear_142_2395)"/>
<path d="M45.8164 56.8051H48.9274C50.1179 56.8051 51.1725 56.0915 51.6164 54.9873L53.0122 51.509" fill="url(#paint1_linear_142_2395)"/>
<path d="M45.8164 56.8051H48.9274C50.1179 56.8051 51.1725 56.0915 51.6164 54.9873L53.0122 51.509" stroke="white" stroke-width="1.26863" stroke-miterlimit="10" stroke-linecap="round" stroke-linejoin="round"/>
<path d="M45.8164 59.4157H48.9274C51.19 59.4157 53.1958 58.0599 54.039 55.96L55.8552 51.4358" fill="url(#paint2_linear_142_2395)"/>
<path d="M45.8164 59.4157H48.9274C51.19 59.4157 53.1958 58.0599 54.039 55.96L55.8552 51.4358" stroke="white" stroke-width="1.26863" stroke-miterlimit="10" stroke-linecap="round" stroke-linejoin="round"/>
<path d="M51.6816 51.4232L54.7843 51.6238C55.8006 51.6895 56.7383 51.0776 57.0866 50.1199L57.7176 48.3862" fill="url(#paint3_linear_142_2395)"/>
<path d="M51.6816 51.4232L54.7843 51.6238C55.8006 51.6895 56.7383 51.0776 57.0866 50.1199L57.7176 48.3862" stroke="white" stroke-width="1.26863" stroke-miterlimit="10" stroke-linecap="round" stroke-linejoin="round"/>
<path d="M55.6953 40.3955L58.2008 42.2372C59.0218 42.8405 59.3459 43.9121 58.9985 44.8688L58.753 45.543" fill="url(#paint4_linear_142_2395)"/>
<path d="M55.6953 40.3955L58.2008 42.2372C59.0218 42.8405 59.3459 43.9121 58.9985 44.8688L58.753 45.543" stroke="white" stroke-width="1.26863" stroke-miterlimit="10" stroke-linecap="round" stroke-linejoin="round"/>
<path d="M54.3714 37.9707C55.4565 38.3656 56.0159 39.5653 55.6211 40.6504L51.7883 51.1806C51.3935 52.2656 50.1937 52.8251 49.1087 52.4302C48.0236 52.0353 47.4642 50.8355 47.8591 49.7505L51.6918 39.2203C52.0866 38.1352 53.2864 37.5757 54.3714 37.9707Z" fill="url(#paint5_linear_142_2395)" stroke="white" stroke-width="1.26863" stroke-miterlimit="10" stroke-linecap="round" stroke-linejoin="round"/>
<path d="M43.291 60.9524C44.8605 60.9524 46.1328 59.6801 46.1328 58.1106C46.1328 56.5411 44.8605 55.2688 43.291 55.2688C41.7215 55.2688 40.4492 56.5411 40.4492 58.1106C40.4492 59.6801 41.7215 60.9524 43.291 60.9524Z" fill="url(#paint6_linear_142_2395)" stroke="white" stroke-width="1.26863" stroke-miterlimit="10" stroke-linecap="round" stroke-linejoin="round"/>
<path d="M28.0357 52.3636H30.2076L35.8866 57.2225C36.6471 57.8733 37.8208 57.3331 37.8208 56.3323V52.3637H41.5777C43.7962 52.3637 45.5938 50.5652 45.5938 48.3475V37.4526C45.5938 35.2341 43.7962 33.4355 41.5777 33.4355H23.6099C21.3922 33.4355 19.5938 35.234 19.5938 37.4526V48.3474C19.5938 50.565 21.3922 52.3635 23.6099 52.3635H25.0109" fill="url(#paint7_linear_142_2395)"/>
<path d="M28.0357 52.3636H30.2076L35.8866 57.2225C36.6471 57.8733 37.8208 57.3331 37.8208 56.3323V52.3637H41.5777C43.7962 52.3637 45.5938 50.5652 45.5938 48.3475V37.4526C45.5938 35.2341 43.7962 33.4355 41.5777 33.4355H23.6099C21.3922 33.4355 19.5938 35.234 19.5938 37.4526V48.3474C19.5938 50.565 21.3922 52.3635 23.6099 52.3635H25.0109" stroke="white" stroke-width="1.26863" stroke-miterlimit="10" stroke-linecap="round" stroke-linejoin="round"/>
<path d="M23.7744 40.5942H41.4145" stroke="white" stroke-width="1.26863" stroke-miterlimit="10" stroke-linecap="round" stroke-linejoin="round"/>
<path d="M23.7744 43.6902H41.4145" stroke="white" stroke-width="1.26863" stroke-miterlimit="10" stroke-linecap="round" stroke-linejoin="round"/>
<path d="M23.7744 46.7859H38.5289" stroke="white" stroke-width="1.26863" stroke-miterlimit="10" stroke-linecap="round" stroke-linejoin="round"/>
<path d="M22.4736 33.5991C23.2791 30.1879 25.0162 27.0567 27.5571 24.5158C31.1671 20.9067 35.9664 18.9189 41.0706 18.9189C46.1748 18.9189 50.974 20.9067 54.5841 24.5158C58.1931 28.1258 60.1809 32.925 60.1809 38.0293C60.1809 40.17 59.8222 42.2875 59.1283 44.2908" fill="url(#paint8_linear_142_2395)"/>
<path d="M22.4736 33.5991C23.2791 30.1879 25.0162 27.0567 27.5571 24.5158C31.1671 20.9067 35.9664 18.9189 41.0706 18.9189C46.1748 18.9189 50.974 20.9067 54.5841 24.5158C58.1931 28.1258 60.1809 32.925 60.1809 38.0293C60.1809 40.17 59.8222 42.2875 59.1283 44.2908" stroke="white" stroke-width="1.26863" stroke-miterlimit="10" stroke-linecap="round" stroke-linejoin="round"/>
<path d="M25.2031 33.4358C27.1978 26.5555 33.557 21.5117 41.0708 21.5117C50.1783 21.5117 57.5884 28.9218 57.5884 38.0293C57.5884 39.2056 57.4631 40.374 57.2176 41.514" fill="url(#paint9_linear_142_2395)"/>
<path d="M25.2031 33.4358C27.1978 26.5555 33.557 21.5117 41.0708 21.5117C50.1783 21.5117 57.5884 28.9218 57.5884 38.0293C57.5884 39.2056 57.4631 40.374 57.2176 41.514" stroke="white" stroke-width="1.26863" stroke-miterlimit="10" stroke-linecap="round" stroke-linejoin="round"/>
<defs>
<linearGradient id="paint0_linear_142_2395" x1="40.237" y1="0" x2="40.237" y2="80.474" gradientUnits="userSpaceOnUse">
<stop stop-color="#B46AFF"/>
<stop offset="1" stop-color="#8F2CF3"/>
</linearGradient>
<linearGradient id="paint1_linear_142_2395" x1="49.4143" y1="51.509" x2="49.4143" y2="56.8051" gradientUnits="userSpaceOnUse">
<stop stop-color="#B46AFF"/>
<stop offset="1" stop-color="#8F2CF3"/>
</linearGradient>
<linearGradient id="paint2_linear_142_2395" x1="50.8358" y1="51.4358" x2="50.8358" y2="59.4157" gradientUnits="userSpaceOnUse">
<stop stop-color="#B46AFF"/>
<stop offset="1" stop-color="#8F2CF3"/>
</linearGradient>
<linearGradient id="paint3_linear_142_2395" x1="54.6996" y1="48.3862" x2="54.6996" y2="51.6286" gradientUnits="userSpaceOnUse">
<stop stop-color="#B46AFF"/>
<stop offset="1" stop-color="#8F2CF3"/>
</linearGradient>
<linearGradient id="paint4_linear_142_2395" x1="57.4159" y1="40.3955" x2="57.4159" y2="45.543" gradientUnits="userSpaceOnUse">
<stop stop-color="#B46AFF"/>
<stop offset="1" stop-color="#8F2CF3"/>
</linearGradient>
<linearGradient id="paint5_linear_142_2395" x1="51.7401" y1="37.844" x2="51.7401" y2="52.5568" gradientUnits="userSpaceOnUse">
<stop stop-color="#B46AFF"/>
<stop offset="1" stop-color="#8F2CF3"/>
</linearGradient>
<linearGradient id="paint6_linear_142_2395" x1="43.291" y1="55.2688" x2="43.291" y2="60.9524" gradientUnits="userSpaceOnUse">
<stop stop-color="#B46AFF"/>
<stop offset="1" stop-color="#8F2CF3"/>
</linearGradient>
<linearGradient id="paint7_linear_142_2395" x1="32.5938" y1="33.4355" x2="32.5938" y2="57.5064" gradientUnits="userSpaceOnUse">
<stop stop-color="#B46AFF"/>
<stop offset="1" stop-color="#8F2CF3"/>
</linearGradient>
<linearGradient id="paint8_linear_142_2395" x1="41.3273" y1="18.9189" x2="41.3273" y2="44.2908" gradientUnits="userSpaceOnUse">
<stop stop-color="#B46AFF"/>
<stop offset="1" stop-color="#8F2CF3"/>
</linearGradient>
<linearGradient id="paint9_linear_142_2395" x1="41.3958" y1="21.5117" x2="41.3958" y2="41.514" gradientUnits="userSpaceOnUse">
<stop stop-color="#B46AFF"/>
<stop offset="1" stop-color="#8F2CF3"/>
</linearGradient>
</defs>
</svg>
