<svg width="81" height="81" viewBox="0 0 81 81" fill="none" xmlns="http://www.w3.org/2000/svg">
<circle cx="40.237" cy="40.237" r="40.237" fill="url(#paint0_linear_5_784)"/>
<g clip-path="url(#clip0_5_784)">
<path d="M43.0139 28.7062C41.8752 28.3941 40.6929 28.2359 39.5 28.2359C32.1863 28.2359 26.2362 34.186 26.2362 41.4997C26.2362 48.8134 32.1863 54.7635 39.5 54.7635C46.8137 54.7635 52.7638 48.8134 52.7638 41.4997C52.7638 40.3068 52.6056 39.1245 52.2935 37.9858C52.079 37.2035 52.5394 36.3955 53.3217 36.1811C54.1035 35.9667 54.912 36.427 55.1264 37.2093C55.5078 38.601 55.7013 40.0445 55.7013 41.4997C55.7013 50.4331 48.4334 57.701 39.5 57.701C30.5666 57.701 23.2987 50.4331 23.2987 41.4997C23.2987 32.5663 30.5666 25.2984 39.5 25.2984C40.9553 25.2984 42.3987 25.4918 43.7904 25.8733C44.4428 26.0521 44.8713 26.6438 44.8712 27.2892C44.8712 27.4176 44.8541 27.5481 44.8186 27.678C44.6043 28.4603 43.7964 28.9209 43.0139 28.7062ZM60.211 33.8291C59.4332 34.0595 58.9893 34.8765 59.2196 35.6544C59.7789 37.5436 60.0625 39.5102 60.0625 41.4997C60.0625 52.8379 50.8382 62.0622 39.5 62.0622C28.1618 62.0622 18.9375 52.8379 18.9375 41.4997C18.9375 30.1615 28.1618 20.9372 39.5 20.9372C41.4896 20.9372 43.4562 21.2207 45.345 21.78C46.1229 22.0104 46.94 21.5663 47.1703 20.7886C47.2114 20.6495 47.231 20.5093 47.231 20.3713C47.2312 19.7375 46.8177 19.1525 46.1789 18.9633C44.0191 18.3238 41.7721 17.9997 39.5 17.9997C33.2229 17.9997 27.3215 20.4441 22.8829 24.8826C18.4445 29.3213 16 35.2226 16 41.4997C16 47.7768 18.4445 53.6782 22.8829 58.1168C27.3214 62.5553 33.2229 64.9997 39.5 64.9997C45.7771 64.9997 51.6784 62.5552 56.1171 58.1168C60.5555 53.6782 63 47.7768 63 41.4997C63 39.2278 62.6758 36.9806 62.0363 34.8205C61.8061 34.0428 60.9887 33.5992 60.211 33.8291ZM39.5 35.6247C39.716 35.6247 39.9341 35.6366 40.1484 35.6601C40.9551 35.7489 41.6802 35.1666 41.7685 34.3604C41.857 33.554 41.2751 32.8286 40.4687 32.7402C40.1484 32.705 39.8226 32.6872 39.5 32.6872C34.6407 32.6872 30.6875 36.6404 30.6875 41.4997C30.6875 46.359 34.6407 50.3122 39.5 50.3122C44.3593 50.3122 48.3125 46.359 48.3125 41.4997C48.3125 40.6885 47.655 40.0309 46.8438 40.0309C46.0325 40.0309 45.375 40.6885 45.375 41.4997C45.375 44.7392 42.7395 47.3747 39.5 47.3747C36.2605 47.3747 33.625 44.7392 33.625 41.4997C33.625 38.2602 36.2605 35.6247 39.5 35.6247ZM46.9993 31.9235L47.7309 24.5846C47.7645 24.247 47.9139 23.9316 48.1538 23.6917L53.4159 18.4298C53.8212 18.0246 54.4251 17.8921 54.9629 18.0905C55.5006 18.2888 55.8738 18.782 55.9187 19.3534L56.3359 24.6639L61.6463 25.081C62.2177 25.1259 62.7108 25.4991 62.9092 26.0368C63.1076 26.5745 62.9751 27.1785 62.5698 27.5838L57.3079 32.8457C57.0681 33.0856 56.7526 33.235 56.415 33.2686L49.0763 34.0006L40.5386 42.5383C40.2517 42.825 39.8759 42.9684 39.5 42.9684C39.124 42.9684 38.7483 42.825 38.4615 42.5382C37.8879 41.9646 37.8879 41.0346 38.4615 40.4611L46.9993 31.9235ZM50.0482 30.9517L55.6015 30.3978L58.2393 27.76L54.855 27.4941C54.1345 27.4375 53.5624 26.8652 53.5057 26.1449L53.2399 22.7603L50.6019 25.3981L50.0482 30.9517Z" fill="white"/>
</g>
<defs>
<linearGradient id="paint0_linear_5_784" x1="40.237" y1="0" x2="40.237" y2="80.474" gradientUnits="userSpaceOnUse">
<stop stop-color="#B46AFF"/>
<stop offset="1" stop-color="#8F2CF3"/>
</linearGradient>
<clipPath id="clip0_5_784">
<rect width="47" height="47" fill="white" transform="translate(16 18)"/>
</clipPath>
</defs>
</svg>
