<svg width="22" height="22" viewBox="0 0 22 22" fill="none" xmlns="http://www.w3.org/2000/svg">
<path d="M10.9993 11.6875C8.09352 11.6875 5.72852 9.32254 5.72852 6.41671C5.72852 3.51087 8.09352 1.14587 10.9993 1.14587C13.9052 1.14587 16.2702 3.51087 16.2702 6.41671C16.2702 9.32254 13.9052 11.6875 10.9993 11.6875ZM10.9993 2.52087C8.85435 2.52087 7.10352 4.27171 7.10352 6.41671C7.10352 8.56171 8.85435 10.3125 10.9993 10.3125C13.1443 10.3125 14.8952 8.56171 14.8952 6.41671C14.8952 4.27171 13.1443 2.52087 10.9993 2.52087Z" fill="white"/>
<path d="M18.8733 20.8543C18.4974 20.8543 18.1858 20.5426 18.1858 20.1668C18.1858 17.0043 14.9592 14.4376 10.9992 14.4376C7.03916 14.4376 3.8125 17.0043 3.8125 20.1668C3.8125 20.5426 3.50083 20.8543 3.125 20.8543C2.74917 20.8543 2.4375 20.5426 2.4375 20.1668C2.4375 16.2526 6.27832 13.0626 10.9992 13.0626C15.72 13.0626 19.5608 16.2526 19.5608 20.1668C19.5608 20.5426 19.2491 20.8543 18.8733 20.8543Z" fill="white"/>
</svg>
