<svg width="46" height="46" viewBox="0 0 46 46" fill="none" xmlns="http://www.w3.org/2000/svg">
<g clip-path="url(#clip0_9_275)">
<path d="M43.9085 23.1929V16.7277C43.9085 14.5354 42.208 12.7525 40.0595 12.5796L34.0555 2.0926C33.499 1.1227 32.6006 0.429472 31.5255 0.141618C30.4556 -0.144277 29.3367 0.00587422 28.379 0.563256L7.79668 12.5459H4.18178C1.87551 12.5459 0 14.4213 0 16.7277V41.8182C0 44.1245 1.87542 46 4.18178 46H39.7267C42.033 46 43.9085 44.1246 43.9085 41.8182V35.353C45.1227 34.92 45.9993 33.7704 45.9993 32.4093V26.1366C45.9993 24.7755 45.1227 23.6259 43.9085 23.1929ZM37.63 12.5459H28.5179L35.352 8.56712L37.63 12.5459ZM34.3132 6.75267L24.3624 12.5459H20.2349L33.2812 4.95017L34.3132 6.75267ZM29.4315 2.37026C29.9042 2.09358 30.4565 2.02007 30.9844 2.16101C31.5184 2.30391 31.9635 2.649 32.2402 3.1319L32.2424 3.13572L16.0796 12.5459H11.9523L29.4315 2.37026ZM41.8175 41.8182C41.8175 42.9708 40.8793 43.9091 39.7267 43.9091H4.18178C3.02919 43.9091 2.09094 42.9708 2.09094 41.8182V16.7277C2.09094 15.5751 3.02919 14.6369 4.18178 14.6369H39.7267C40.8793 14.6369 41.8175 15.5751 41.8175 16.7277V23.0003H35.5449C32.0859 23.0003 29.2723 25.814 29.2723 29.273C29.2723 32.7319 32.0859 35.5456 35.5449 35.5456H41.8175V41.8182ZM43.9085 32.4093C43.9085 32.9861 43.4399 33.4547 42.863 33.4547H35.5449C33.2386 33.4547 31.3631 31.5793 31.3631 29.273C31.3631 26.9667 33.2385 25.0912 35.5449 25.0912H42.863C43.4398 25.0912 43.9085 25.5598 43.9085 26.1366V32.4093Z" fill="#212121"/>
<path d="M35.5459 27.1821C34.3933 27.1821 33.4551 28.1204 33.4551 29.273C33.4551 30.4256 34.3933 31.3638 35.5459 31.3638C36.6985 31.3638 37.6368 30.4256 37.6368 29.273C37.6369 28.1204 36.6986 27.1821 35.5459 27.1821Z" fill="#212121"/>
</g>
<defs>
<clipPath id="clip0_9_275">
<rect width="46" height="46" fill="white"/>
</clipPath>
</defs>
</svg>
