<svg width="81" height="81" viewBox="0 0 81 81" fill="none" xmlns="http://www.w3.org/2000/svg">
<circle cx="40.237" cy="40.237" r="40.237" fill="url(#paint0_linear_22_32)"/>
<path fill-rule="evenodd" clip-rule="evenodd" d="M30.0128 23C26.6071 23 23.8462 25.9101 23.8462 29.5V49.5C23.8462 53.0899 26.6071 56 30.0128 56H48.9871C52.3929 56 55.1538 53.0899 55.1538 49.5V29.5C55.1538 25.9101 52.3929 23 48.9871 23H30.0128ZM21 29.5C21 24.2533 25.0352 20 30.0128 20H48.9871C53.9648 20 58 24.2533 58 29.5V49.5C58 54.7467 53.9648 59 48.9871 59H30.0128C25.0352 59 21 54.7467 21 49.5V29.5Z" fill="white"/>
<path fill-rule="evenodd" clip-rule="evenodd" d="M49.9854 31.5648C50.6012 32.0796 50.7045 33.0232 50.2161 33.6723L42.2848 44.2122C41.8247 44.8236 40.9966 44.961 40.3805 44.5282L35.2763 40.9414L29.2387 49.1212C28.7561 49.7749 27.862 49.8927 27.2417 49.384C26.6214 48.8753 26.5097 47.9328 26.9923 47.2789L33.8421 37.999C34.2998 37.3787 35.1342 37.236 35.7546 37.672L40.8691 41.266L47.9862 31.8079C48.4746 31.1589 49.3698 31.05 49.9854 31.5648Z" fill="white"/>
<path fill-rule="evenodd" clip-rule="evenodd" d="M42.4944 32.5C42.4944 31.6715 43.1315 31 43.9175 31H49.9133C50.6993 31 51.3364 31.6715 51.3364 32.5V38.8C51.3364 39.6284 50.6993 40.3 49.9133 40.3C49.1274 40.3 48.4902 39.6284 48.4902 38.8V34H43.9175C43.1315 34 42.4944 33.3284 42.4944 32.5Z" fill="white"/>
<defs>
<linearGradient id="paint0_linear_22_32" x1="40.237" y1="0" x2="40.237" y2="80.474" gradientUnits="userSpaceOnUse">
<stop stop-color="#B46AFF"/>
<stop offset="1" stop-color="#8F2CF3"/>
</linearGradient>
</defs>
</svg>
