<svg width="81" height="81" viewBox="0 0 81 81" fill="none" xmlns="http://www.w3.org/2000/svg">
<circle cx="40.237" cy="40.237" r="40.237" fill="url(#paint0_linear_22_35)"/>
<g clip-path="url(#clip0_22_35)">
<path d="M41.9121 63H39.0879C36.8037 63 34.9452 61.1416 34.9452 58.8575V57.902C33.9741 57.5917 33.0306 57.2001 32.1242 56.731L31.4471 57.4081C29.8071 59.0501 27.1802 59.0019 25.5879 57.4075L23.5918 55.4115C21.9967 53.8182 21.9508 51.1921 23.5923 49.5523L24.2689 48.8757C23.7998 47.9693 23.4083 47.026 23.0979 46.0547H22.1425C19.8584 46.0547 18 44.1963 18 41.9121V39.0879C18 36.8037 19.8584 34.9453 22.1426 34.9453H23.098C23.4083 33.9741 23.7999 33.0307 24.269 32.1243L23.5919 31.4473C21.9513 29.8085 21.9966 27.1821 23.5924 25.588L25.5887 23.5919C27.1847 21.9937 29.811 21.9538 31.4478 23.5924L32.1243 24.2689C33.0307 23.7999 33.9742 23.4083 34.9453 23.0979V22.1425C34.9453 19.8584 36.8037 18 39.0879 18H41.9121C44.1963 18 46.0547 19.8584 46.0547 22.1425V23.098C47.0258 23.4083 47.9693 23.7999 48.8757 24.269L49.5528 23.5919C51.1928 21.9499 53.8197 21.9981 55.412 23.5925L57.4081 25.5885C59.0033 27.1818 59.0491 29.8079 57.4076 31.4477L56.731 32.1243C57.2001 33.0307 57.5917 33.974 57.902 34.9453H58.8574C61.1416 34.9453 63 36.8037 63 39.0879V41.9121C63 44.1963 61.1416 46.0547 58.8574 46.0547H57.902C57.5917 47.0259 57.2001 47.9693 56.731 48.8757L57.4081 49.5528C59.0487 51.1916 59.0034 53.818 57.4076 55.412L55.4113 57.4082C53.8153 59.0064 51.189 59.0463 49.5522 57.4077L48.8757 56.7312C47.9693 57.2002 47.0258 57.5918 46.0547 57.9022V58.8576C46.0547 61.1416 44.1963 63 41.9121 63ZM32.565 53.9622C33.8242 54.7069 35.1795 55.2695 36.5931 55.6343C37.1753 55.7845 37.582 56.3096 37.582 56.9108V58.8575C37.582 59.6878 38.2576 60.3633 39.0879 60.3633H41.9121C42.7424 60.3633 43.4181 59.6878 43.4181 58.8575V56.9108C43.4181 56.3096 43.8248 55.7845 44.407 55.6343C45.8206 55.2695 47.1759 54.7069 48.4351 53.9622C48.9532 53.6558 49.6129 53.7391 50.0385 54.1648L51.4173 55.5437C52.0118 56.1389 52.9665 56.1251 53.5464 55.5443L55.5439 53.5469C56.1224 52.9691 56.1417 52.0143 55.5444 51.4178L54.165 50.0383C53.7394 49.6128 53.6561 48.9531 53.9624 48.435C54.7071 47.1759 55.2696 45.8206 55.6344 44.4069C55.7847 43.8247 56.3098 43.4181 56.9109 43.4181H58.8575C59.6878 43.4181 60.3634 42.7425 60.3634 41.9122V39.0879C60.3634 38.2576 59.6878 37.5821 58.8575 37.5821H56.9109C56.3097 37.5821 55.7847 37.1754 55.6344 36.5933C55.2696 35.1795 54.707 33.8243 53.9624 32.5651C53.6561 32.0471 53.7394 31.3874 54.165 30.9618L55.5439 29.5829C56.14 28.9876 56.1244 28.0331 55.5444 27.4538L53.5471 25.4565C52.9682 24.8767 52.0133 24.8598 51.4179 25.4559L50.0386 26.8354C49.613 27.261 48.9531 27.3444 48.4352 27.038C47.176 26.2933 45.8207 25.7307 44.4071 25.3658C43.8249 25.2156 43.4181 24.6906 43.4181 24.0893V22.1425C43.4181 21.3122 42.7425 20.6367 41.9122 20.6367H39.088C38.2577 20.6367 37.5821 21.3122 37.5821 22.1425V24.0892C37.5821 24.6904 37.1754 25.2155 36.5932 25.3657C35.1795 25.7305 33.8243 26.2931 32.5651 27.0378C32.0469 27.3441 31.3872 27.2608 30.9617 26.8352L29.5828 25.4563C28.9883 24.8611 28.0336 24.8749 27.4538 25.4557L25.4563 27.4531C24.8778 28.0309 24.8585 28.9856 25.4558 29.5822L26.8352 30.9617C27.2608 31.3872 27.3441 32.0469 27.0378 32.565C26.2931 33.8241 25.7306 35.1794 25.3658 36.5931C25.2155 37.1753 24.6904 37.5819 24.0892 37.5819H22.1426C21.3123 37.582 20.6367 38.2576 20.6367 39.0879V41.9121C20.6367 42.7424 21.3123 43.418 22.1426 43.418H24.0892C24.6904 43.418 25.2154 43.8247 25.3657 44.4068C25.7305 45.8205 26.2931 47.1758 27.0377 48.4349C27.344 48.953 27.2607 49.6127 26.8351 50.0382L25.4562 51.4172C24.8601 52.0125 24.8757 52.967 25.4557 53.5463L27.453 55.5436C28.0319 56.1233 28.9868 56.1403 29.5821 55.5442L30.9615 54.1647C31.2751 53.8512 31.9275 53.5852 32.565 53.9622Z" fill="white"/>
<path d="M40.502 50.291C35.1031 50.291 30.7109 45.8988 30.7109 40.5C30.7109 35.1012 35.1031 30.709 40.502 30.709C45.9008 30.709 50.293 35.1012 50.293 40.5C50.293 45.8988 45.9008 50.291 40.502 50.291ZM40.502 33.3457C36.557 33.3457 33.3477 36.5551 33.3477 40.5C33.3477 44.4449 36.5571 47.6543 40.502 47.6543C44.4468 47.6543 47.6562 44.4449 47.6562 40.5C47.6562 36.5551 44.4469 33.3457 40.502 33.3457Z" fill="white"/>
</g>
<defs>
<linearGradient id="paint0_linear_22_35" x1="40.237" y1="0" x2="40.237" y2="80.474" gradientUnits="userSpaceOnUse">
<stop stop-color="#B46AFF"/>
<stop offset="1" stop-color="#8F2CF3"/>
</linearGradient>
<clipPath id="clip0_22_35">
<rect width="45" height="45" fill="white" transform="translate(18 18)"/>
</clipPath>
</defs>
</svg>
