<svg width="81" height="81" viewBox="0 0 81 81" fill="none" xmlns="http://www.w3.org/2000/svg">
<circle cx="40.237" cy="40.237" r="40.237" fill="url(#paint0_linear_22_33)"/>
<path d="M58.6562 22.9531H23.3438C22.0514 22.9531 21 24.0045 21 25.2969V48.5781C21 49.8705 22.0514 50.9219 23.3438 50.9219H34.8281V56.7031H28.5C27.8528 56.7031 27.3281 57.2278 27.3281 57.875C27.3281 58.5222 27.8528 59.0469 28.5 59.0469H53.5C54.1472 59.0469 54.6719 58.5222 54.6719 57.875C54.6719 57.2278 54.1472 56.7031 53.5 56.7031H47.1719V50.9219H58.6562C59.9486 50.9219 61 49.8705 61 48.5781V25.2969C61 24.0045 59.9486 22.9531 58.6562 22.9531ZM44.8281 56.7031H37.1719V50.9219H44.8281V56.7031ZM58.6562 48.5781C57.6284 48.5781 24.1675 48.5781 23.3438 48.5781V25.2969H58.6562C58.6577 49.0837 58.6641 48.5781 58.6562 48.5781Z" fill="white"/>
<defs>
<linearGradient id="paint0_linear_22_33" x1="40.237" y1="0" x2="40.237" y2="80.474" gradientUnits="userSpaceOnUse">
<stop stop-color="#B46AFF"/>
<stop offset="1" stop-color="#8F2CF3"/>
</linearGradient>
</defs>
</svg>
