<svg width="81" height="81" viewBox="0 0 81 81" fill="none" xmlns="http://www.w3.org/2000/svg">
<circle cx="40.237" cy="40.237" r="40.237" fill="url(#paint0_linear_6_16)"/>
<g clip-path="url(#clip0_6_16)">
<path d="M27.7297 58.3586C27.6415 58.3583 27.5544 58.3399 27.4736 58.3045C27.3929 58.2691 27.3203 58.2175 27.2604 58.1528C27.144 58.029 27.0814 57.8642 27.0862 57.6943C27.091 57.5245 27.1629 57.3634 27.2861 57.2464C30.599 54.1489 34.965 52.4258 39.5004 52.4258C44.0358 52.4258 48.4018 54.1489 51.7147 57.2464C51.826 57.3653 51.8879 57.5221 51.8881 57.6849C51.8883 57.8478 51.8267 58.0047 51.7157 58.1238C51.6047 58.243 51.4526 58.3156 51.2901 58.327C51.1276 58.3383 50.9669 58.2876 50.8404 58.185C47.7645 55.3145 43.714 53.7181 39.5068 53.7181C35.2996 53.7181 31.2491 55.3145 28.1732 58.185C28.0531 58.2975 27.8943 58.3596 27.7297 58.3586Z" fill="white"/>
<path d="M39.5006 63.0001C33.8113 63.0001 29.2148 54.9708 29.2148 45.1094C29.2148 44.9389 29.2826 44.7754 29.4031 44.6548C29.5237 44.5343 29.6872 44.4666 29.8577 44.4666C30.0282 44.4666 30.1917 44.5343 30.3123 44.6548C30.4328 44.7754 30.5006 44.9389 30.5006 45.1094C30.5006 54.2637 34.5248 61.7144 39.5006 61.7144C44.4763 61.7144 48.5006 54.2637 48.5006 45.1094C48.5006 44.9389 48.5683 44.7754 48.6888 44.6548C48.8094 44.5343 48.9729 44.4666 49.1434 44.4666C49.3139 44.4666 49.4774 44.5343 49.598 44.6548C49.7185 44.7754 49.7863 44.9389 49.7863 45.1094C49.7863 54.9708 45.1898 63.0001 39.5006 63.0001Z" fill="white"/>
<path d="M39.5003 63.0001C39.3298 63.0001 39.1663 62.9324 39.0457 62.8118C38.9252 62.6913 38.8574 62.5278 38.8574 62.3573V45.1094C38.8574 44.9389 38.9252 44.7754 39.0457 44.6548C39.1663 44.5343 39.3298 44.4666 39.5003 44.4666C39.6708 44.4666 39.8343 44.5343 39.9548 44.6548C40.0754 44.7754 40.1431 44.9389 40.1431 45.1094V62.3573C40.1431 62.5278 40.0754 62.6913 39.9548 62.8118C39.8343 62.9324 39.6708 63.0001 39.5003 63.0001Z" fill="white"/>
<path d="M39.5001 63.0001C34.7567 62.995 30.2091 61.1084 26.8551 57.7544C23.501 54.4003 21.6145 49.8527 21.6094 45.1094C21.6094 44.9389 21.6771 44.7754 21.7977 44.6548C21.9182 44.5342 22.0817 44.4665 22.2522 44.4665H56.7479C56.9184 44.4665 57.082 44.5342 57.2025 44.6548C57.3231 44.7754 57.3908 44.9389 57.3908 45.1094C57.3857 49.8527 55.4991 54.4003 52.1451 57.7544C48.791 61.1084 44.2434 62.995 39.5001 63.0001ZM22.9079 45.7522C23.0768 50.0397 24.8987 54.0954 27.9919 57.0692C31.0851 60.0429 35.2093 61.7039 39.5001 61.7039C43.7909 61.7039 47.9151 60.0429 51.0083 57.0692C54.1015 54.0954 55.9234 50.0397 56.0922 45.7522H22.9079Z" fill="white"/>
<path d="M30.4354 42.7308H26.8033C26.6328 42.7308 26.4692 42.663 26.3487 42.5425C26.2281 42.4219 26.1604 42.2584 26.1604 42.0879V38.07C26.1604 37.8995 26.2281 37.736 26.3487 37.6155C26.4692 37.4949 26.6328 37.4272 26.8033 37.4272H30.4354C30.6059 37.4272 30.7694 37.4949 30.89 37.6155C31.0105 37.736 31.0783 37.8995 31.0783 38.07V42.0879C31.0783 42.2584 31.0105 42.4219 30.89 42.5425C30.7694 42.663 30.6059 42.7308 30.4354 42.7308ZM27.4461 41.445H29.7925V38.7129H27.4461V41.445Z" fill="white"/>
<path d="M37.6865 42.7306H34.0608C33.8903 42.7306 33.7268 42.6628 33.6063 42.5423C33.4857 42.4217 33.418 42.2582 33.418 42.0877V33.3191C33.418 33.1486 33.4857 32.9851 33.6063 32.8646C33.7268 32.744 33.8903 32.6763 34.0608 32.6763H37.6865C37.857 32.6763 38.0205 32.744 38.1411 32.8646C38.2617 32.9851 38.3294 33.1486 38.3294 33.3191V42.0877C38.3294 42.2582 38.2617 42.4217 38.1411 42.5423C38.0205 42.6628 37.857 42.7306 37.6865 42.7306ZM34.7037 41.4448H37.0437V33.962H34.7037V41.4448Z" fill="white"/>
<path d="M44.9385 42.7307H41.3128C41.1423 42.7307 40.9788 42.663 40.8582 42.5424C40.7377 42.4219 40.6699 42.2584 40.6699 42.0879V29.0893C40.6699 28.9188 40.7377 28.7553 40.8582 28.6347C40.9788 28.5142 41.1423 28.4464 41.3128 28.4464H44.9385C45.109 28.4464 45.2725 28.5142 45.3931 28.6347C45.5136 28.7553 45.5813 28.9188 45.5813 29.0893V42.0879C45.5813 42.2584 45.5136 42.4219 45.3931 42.5424C45.2725 42.663 45.109 42.7307 44.9385 42.7307ZM41.9556 41.445H44.2956V29.7321H41.9556V41.445Z" fill="white"/>
<path d="M52.1969 42.7308H48.5647C48.3942 42.7308 48.2307 42.6631 48.1102 42.5425C47.9896 42.422 47.9219 42.2585 47.9219 42.088V23.4451C47.9219 23.2746 47.9896 23.1111 48.1102 22.9905C48.2307 22.87 48.3942 22.8022 48.5647 22.8022H52.1969C52.3674 22.8022 52.5309 22.87 52.6514 22.9905C52.772 23.1111 52.8397 23.2746 52.8397 23.4451V42.088C52.8397 42.2585 52.772 42.422 52.6514 42.5425C52.5309 42.6631 52.3674 42.7308 52.1969 42.7308ZM49.2076 41.4451H51.554V24.088H49.2076V41.4451Z" fill="white"/>
<path d="M28.6231 32.7149C28.5238 32.7156 28.4258 32.6934 28.3365 32.6499C28.2473 32.6064 28.1694 32.5428 28.1088 32.4642C28.0565 32.3972 28.0179 32.3206 27.9954 32.2386C27.9729 32.1567 27.9668 32.0711 27.9776 31.9868C27.9883 31.9025 28.0157 31.8212 28.0581 31.7476C28.1005 31.6739 28.1571 31.6094 28.2245 31.5577L45.151 18.5206C45.2865 18.4367 45.4485 18.4062 45.6053 18.435C45.7621 18.4638 45.9026 18.5499 45.9996 18.6764C46.0965 18.803 46.1429 18.9611 46.1299 19.12C46.1168 19.2789 46.0451 19.4273 45.9288 19.5363L29.0152 32.5799C28.903 32.667 28.7651 32.7144 28.6231 32.7149Z" fill="white"/>
<path d="M45.1575 24.0621H45.0996C44.93 24.0473 44.7732 23.966 44.6636 23.8358C44.5539 23.7057 44.5003 23.5374 44.5146 23.3678L44.8489 19.6199L41.101 19.2856C41.0166 19.278 40.9345 19.2539 40.8594 19.2146C40.7843 19.1752 40.7177 19.1215 40.6634 19.0564C40.6091 18.9914 40.5681 18.9162 40.5428 18.8353C40.5175 18.7544 40.5084 18.6693 40.516 18.5849C40.5236 18.5005 40.5478 18.4184 40.5871 18.3433C40.6264 18.2682 40.6802 18.2016 40.7452 18.1473C40.8103 18.093 40.8854 18.052 40.9663 18.0267C41.0472 18.0014 41.1323 17.9923 41.2167 17.9999L45.601 18.3921C45.7706 18.4068 45.9274 18.4881 46.037 18.6183C46.1467 18.7484 46.2003 18.9167 46.186 19.0863L45.8003 23.4706C45.7874 23.6321 45.7139 23.7827 45.5948 23.8923C45.4756 24.0019 45.3194 24.0626 45.1575 24.0621Z" fill="white"/>
</g>
<defs>
<linearGradient id="paint0_linear_6_16" x1="40.237" y1="0" x2="40.237" y2="80.474" gradientUnits="userSpaceOnUse">
<stop stop-color="#B46AFF"/>
<stop offset="1" stop-color="#8F2CF3"/>
</linearGradient>
<clipPath id="clip0_6_16">
<rect width="45" height="45" fill="white" transform="translate(17 18)"/>
</clipPath>
</defs>
</svg>
