<svg width="48" height="48" viewBox="0 0 48 48" fill="none" xmlns="http://www.w3.org/2000/svg">
<g clip-path="url(#clip0_594_359)">
<path d="M43.5787 25.607C41.6327 25.607 39.9775 26.8713 39.3883 28.6212H36.6259L34.0239 26.0191C33.7601 25.7552 33.4021 25.6069 33.029 25.6069H25.3933V22.3925H33.029C33.4022 22.3925 33.7601 22.2442 34.0239 21.9803L36.6259 19.3782H39.3883C41.0397 24.0575 47.9015 22.9937 48 17.9711C47.901 12.9477 41.0387 11.8855 39.3883 16.5641H36.0431C35.6699 16.5641 35.312 16.7124 35.0482 16.9763L32.4462 19.5784H25.3932V14.8569H30.0147C30.3879 14.8569 30.7458 14.7087 31.0096 14.4448L34.0754 11.379C36.9368 12.8584 40.5077 10.6572 40.4645 7.42127C40.4645 4.98339 38.4811 3 36.0432 3C32.8075 2.95704 30.6059 6.5276 32.0856 9.3891L29.4319 12.0427H25.3932V7.42146C25.1575 -1.59444 12.5435 -2.71437 10.6574 6.0144H10.4221C4.87927 5.83138 0.69401 12.7548 4.34628 17.224C-1.45045 19.8223 -1.44707 28.1795 4.34628 30.7755C0.693635 35.246 4.87965 42.1678 10.4221 41.9851H10.6574C12.5472 50.72 25.1602 49.5872 25.3932 40.5781V35.9566H29.4319L32.0856 38.6102C30.6063 41.4716 32.8072 45.0426 36.0433 44.9992C38.4812 44.9992 40.4646 43.0159 40.4646 40.578C40.5075 37.3423 36.937 35.1406 34.0755 36.6204L31.0097 33.5546C30.7459 33.2907 30.3879 33.1424 30.0148 33.1424H25.3933V28.4209H32.4463L35.0483 31.0231C35.3121 31.2869 35.67 31.4352 36.0432 31.4352H39.3884C41.0404 36.1151 47.9016 35.0502 48.0001 30.0281C48 27.5904 46.0167 25.607 43.5787 25.607ZM43.5787 16.3642C44.4648 16.3642 45.1859 17.0852 45.1859 17.9713C45.1051 20.1005 42.052 20.1 41.9715 17.9713C41.9715 17.0852 42.6925 16.3642 43.5787 16.3642ZM36.0431 5.81431C36.9293 5.81431 37.6503 6.53529 37.6503 7.42146C37.5695 9.55063 34.5164 9.55016 34.436 7.42146C34.436 6.53529 35.1569 5.81431 36.0431 5.81431ZM22.5791 16.4642C22.4596 19.593 17.9757 19.5899 17.8576 16.4642C17.8576 15.6871 17.2276 15.0571 16.4505 15.0571C15.6734 15.0571 15.0434 15.6871 15.0434 16.4642C14.9918 20.2792 19.2291 22.8545 22.579 21.0669V26.9327C19.2281 25.1453 14.992 27.7203 15.0434 31.5355C15.0434 32.3125 15.6733 32.9425 16.4505 32.9425C17.2277 32.9425 17.8576 32.3125 17.8576 31.5354C17.9762 28.4074 22.4612 28.4092 22.579 31.5354V40.5782C22.3463 46.7008 13.5678 46.6991 13.3362 40.5781C13.3362 39.6919 14.0572 38.9709 14.9433 38.9709C15.7204 38.9709 16.3504 38.3409 16.3504 37.5639C16.3504 36.7868 15.7204 36.1568 14.9433 36.1568C12.9974 36.1568 11.3421 37.4211 10.7529 39.171H10.422C7.87369 39.171 5.80053 37.0978 5.80053 34.5495C5.80053 32.8323 7.19765 31.4352 8.91483 31.4352C10.7784 31.367 10.7793 28.6898 8.91483 28.6211H7.40786C1.28376 28.388 1.28845 19.6092 7.40786 19.3783H8.91501C10.7797 19.3088 10.7788 16.633 8.91501 16.5642C7.19783 16.5642 5.80071 15.1671 5.80071 13.4499C5.80071 10.9016 7.87388 8.82843 10.4222 8.82843H10.7531C11.3423 10.5783 12.9975 11.8426 14.9435 11.8426C15.7206 11.8426 16.3506 11.2127 16.3506 10.4356C16.3506 9.6585 15.7206 9.02851 14.9435 9.02851C14.0574 9.02851 13.3364 8.30753 13.3364 7.42137C13.568 1.2998 22.3478 1.2998 22.5792 7.42137V16.4642H22.5791ZM36.0431 38.971C36.9293 38.971 37.6503 39.692 37.6503 40.5782C37.5695 42.7073 34.5164 42.7069 34.436 40.5782C34.436 39.692 35.1569 38.971 36.0431 38.971ZM43.5787 31.6354C42.6925 31.6354 41.9715 30.9144 41.9715 30.0283C42.0523 27.899 45.1053 27.8997 45.1859 30.0283C45.1859 30.9144 44.4649 31.6354 43.5787 31.6354Z" fill="black"/>
</g>
<defs>
<clipPath id="clip0_594_359">
<rect width="48" height="48" fill="white"/>
</clipPath>
</defs>
</svg>
