<svg width="48" height="48" viewBox="0 0 48 48" fill="none" xmlns="http://www.w3.org/2000/svg">
<g clip-path="url(#clip0_594_354)">
<path d="M44.1134 12.3591C44.0887 11.0632 44.0652 9.83894 44.0652 8.65457C44.0652 7.72669 43.3132 6.97444 42.3851 6.97444C35.1997 6.97444 29.729 4.90946 25.169 0.475727C24.5166 -0.158688 23.4785 -0.158464 22.8264 0.475727C18.2668 4.90946 12.797 6.97444 5.61211 6.97444C4.68423 6.97444 3.93198 7.72669 3.93198 8.65457C3.93198 9.83916 3.90868 11.0639 3.88382 12.36C3.65353 24.4202 3.33812 40.9371 23.4474 47.9074C23.6257 47.9692 23.8116 48.0001 23.9976 48.0001C24.1835 48.0001 24.3697 47.9692 24.5478 47.9074C44.6586 40.9369 44.3436 24.4195 44.1134 12.3591ZM23.9978 44.5371C6.75145 38.272 7.01221 24.5476 7.24362 12.4241C7.25751 11.6965 7.27095 10.9913 7.28036 10.3C14.0098 10.0159 19.3911 7.97669 23.9978 3.96366C28.6049 7.97669 33.9871 10.0161 40.717 10.3C40.7265 10.9911 40.7399 11.6958 40.7538 12.423C40.985 24.547 41.2455 38.2718 23.9978 44.5371Z" fill="black"/>
<path d="M29.7852 18.1637L21.6761 26.2725L18.2157 22.8121C17.5595 22.1562 16.4957 22.1562 15.8398 22.8121C15.1836 23.4685 15.1836 24.5321 15.8398 25.1882L20.4881 29.8366C20.8161 30.1645 21.2462 30.3285 21.6761 30.3285C22.106 30.3285 22.5361 30.1645 22.864 29.8366L32.1609 20.5399C32.8173 19.8837 32.8173 18.8199 32.1612 18.164C31.5052 17.5078 30.4414 17.5076 29.7852 18.1637Z" fill="black"/>
</g>
<defs>
<clipPath id="clip0_594_354">
<rect width="48" height="48" fill="white"/>
</clipPath>
</defs>
</svg>
