<svg width="45" height="45" viewBox="0 0 45 45" fill="none" xmlns="http://www.w3.org/2000/svg">
<g clip-path="url(#clip0_594_344)">
<path d="M29.2207 15.777C29.1049 8.57968 23.2151 2.76001 15.9906 2.76001C8.69394 2.76001 2.75781 8.69623 2.75781 15.9928C2.75781 23.2173 8.57749 29.1071 15.7748 29.2229C15.8906 36.4203 21.7805 42.2399 29.0049 42.2399C36.3015 42.2399 42.2377 36.3036 42.2377 29.0071C42.2378 21.7827 36.4181 15.8929 29.2207 15.777ZM15.9906 5.39669C21.8334 5.39669 26.5867 10.1501 26.5867 15.9928C26.5867 21.8355 21.8333 26.589 15.9906 26.589C10.1479 26.589 5.39449 21.8356 5.39449 15.9928C5.39449 10.15 10.1478 5.39669 15.9906 5.39669ZM29.0049 39.6033C23.1621 39.6033 18.4088 34.8499 18.4088 29.0072C18.4088 29.0059 18.4089 29.0047 18.4089 29.0035C19.6069 28.7813 20.7487 28.3972 21.8107 27.8749C21.7529 28.244 21.7222 28.622 21.7222 29.0072C21.7222 33.0227 24.9892 36.2898 29.0049 36.2898C31.1281 36.2898 33.1411 35.3646 34.5279 33.7516C35.0025 33.1995 34.9398 32.3672 34.3876 31.8925C33.8355 31.418 33.0031 31.4807 32.5285 32.0328C31.6432 33.0626 30.3589 33.6532 29.0049 33.6532C26.901 33.6532 25.1203 32.247 24.5505 30.3256H29.6738C30.4019 30.3256 30.9921 29.7353 30.9921 29.0073C30.9921 28.2792 30.4019 27.6889 29.6738 27.6889H24.5505C25.1203 25.7674 26.9009 24.3613 29.0049 24.3613C30.3588 24.3613 31.6432 24.9519 32.5285 25.9817C33.0033 26.5339 33.8355 26.5966 34.3876 26.122C34.9397 25.6473 35.0025 24.815 34.5279 24.2629C33.1412 22.6498 31.128 21.7247 29.0049 21.7247C28.6198 21.7247 28.2417 21.7553 27.8726 21.8132C28.3949 20.751 28.779 19.6093 29.0012 18.4113H29.0049C34.8477 18.4113 39.601 23.1647 39.601 29.0075C39.601 34.8503 34.8477 39.6033 29.0049 39.6033Z" fill="black"/>
<path d="M15.9933 19.9697H13.3457C12.6176 19.9697 12.0273 20.56 12.0273 21.2881C12.0273 22.0161 12.6176 22.6064 13.3457 22.6064H14.675V22.8682C14.675 23.5963 15.2653 24.1866 15.9933 24.1866C16.7214 24.1866 17.3117 23.5963 17.3117 22.8682V22.3802C18.8523 21.8354 19.9593 20.3651 19.9593 18.6403C19.9593 16.4535 18.1802 14.6743 15.9933 14.6743C15.2603 14.6743 14.664 14.078 14.664 13.345C14.664 12.612 15.2603 12.0157 15.9933 12.0157H18.641C19.3691 12.0157 19.9593 11.4254 19.9593 10.6973C19.9593 9.96925 19.3691 9.37899 18.641 9.37899H17.3117V9.11717C17.3117 8.38909 16.7214 7.79883 15.9933 7.79883C15.2653 7.79883 14.675 8.38909 14.675 9.11717V9.60513C13.1344 10.1499 12.0273 11.6202 12.0273 13.345C12.0273 15.5319 13.8065 17.311 15.9933 17.311C16.7263 17.311 17.3227 17.9073 17.3227 18.6403C17.3227 19.3733 16.7263 19.9697 15.9933 19.9697Z" fill="black"/>
<path d="M16.7947 41.3427C12.0446 39.9058 7.73019 36.3184 5.12419 31.7461L5.98366 32.0351C6.67385 32.2676 7.42135 31.8961 7.65355 31.2059C7.88567 30.5158 7.51442 29.7682 6.82432 29.5361L3.01898 28.2562C2.32878 28.0243 1.58128 28.3954 1.34908 29.0855L0.0691485 32.8907C-0.162967 33.5809 0.208277 34.3284 0.898383 34.5606C1.03778 34.6075 1.17945 34.6297 1.31885 34.6297C1.86938 34.6297 2.38301 34.282 2.56819 33.7313L2.81068 33.0105C4.03515 35.1677 5.61329 37.1615 7.45475 38.865C9.98385 41.2047 12.9496 42.9341 16.0312 43.8664C16.1585 43.9049 16.287 43.9231 16.4135 43.9231C16.9794 43.9231 17.5026 43.5558 17.6749 42.9861C17.8857 42.2894 17.4916 41.5535 16.7947 41.3427Z" fill="black"/>
<path d="M44.1028 10.4395C43.413 10.2075 42.6652 10.5787 42.433 11.2688L42.1902 11.9905C40.959 9.82127 39.3706 7.81686 37.5169 6.10768C34.9947 3.78213 32.0391 2.06223 28.9699 1.13368C28.2729 0.922654 27.5371 1.31693 27.3263 2.0138C27.1156 2.71076 27.5096 3.44666 28.2065 3.65742C32.9516 5.09291 37.2692 8.68257 39.8757 13.2536L39.0175 12.965C38.3275 12.7327 37.5799 13.1041 37.3476 13.7942C37.1155 14.4843 37.4869 15.2319 38.177 15.464L41.9823 16.744C42.1217 16.7909 42.2634 16.8131 42.4028 16.8131C42.9533 16.8131 43.4668 16.4654 43.6522 15.9147L44.932 12.1094C45.1642 11.4192 44.7929 10.6716 44.1028 10.4395Z" fill="black"/>
</g>
<defs>
<clipPath id="clip0_594_344">
<rect width="45" height="45" fill="white"/>
</clipPath>
</defs>
</svg>
