<svg width="44" height="44" viewBox="0 0 44 44" fill="none" xmlns="http://www.w3.org/2000/svg">
<g clip-path="url(#clip0_594_351)">
<path d="M8.36842 29.6303H1.44633C0.87682 29.6303 0.415078 30.092 0.415078 30.6615V42.5213C0.415078 43.0908 0.87682 43.5526 1.44633 43.5526H8.36851C8.93801 43.5526 9.39976 43.0908 9.39976 42.5213V30.6615C9.39967 30.0919 8.93802 29.6303 8.36842 29.6303ZM7.33717 41.4901H2.47758V31.6928H7.33726L7.33717 41.4901ZM19.7873 18.5343H12.8651C12.2956 18.5343 11.8339 18.996 11.8339 19.5655V42.2519C11.8339 42.8214 12.2956 43.2832 12.8651 43.2832H19.7873C20.3568 43.2832 20.8185 42.8214 20.8185 42.2519V19.5655C20.8185 18.9959 20.3569 18.5343 19.7873 18.5343ZM18.756 41.2207H13.8964V20.5968H18.756V41.2207ZM31.2061 22.3084H24.284C23.7145 22.3084 23.2528 22.7701 23.2528 23.3396V41.9824C23.2528 42.5519 23.7145 43.0137 24.284 43.0137H31.2061C31.7756 43.0137 32.2374 42.5519 32.2374 41.9824V23.3396C32.2374 22.77 31.7756 22.3084 31.2061 22.3084ZM30.1749 40.9512H25.3153V24.3709H30.1749V40.9512ZM42.625 11.7957H35.7028C35.1333 11.7957 34.6716 12.2574 34.6716 12.8269V41.7129C34.6716 42.2824 35.1333 42.7442 35.7028 42.7442H42.625C43.1945 42.7442 43.6562 42.2824 43.6562 41.7129V12.8269C43.6562 12.2573 43.1945 11.7957 42.625 11.7957ZM41.5938 40.6817H36.7341V13.8582H41.5938V40.6817ZM4.22993 24.5652C6.37287 24.5652 8.11628 22.8219 8.11628 20.6789C8.11628 20.0731 7.97672 19.4992 7.72836 18.9875L14.1873 13.3345C14.8013 13.7409 15.5364 13.9784 16.3262 13.9784C17.6483 13.9784 18.8176 13.3143 19.5199 12.3028L23.8689 13.8253C23.863 13.9128 23.8589 14.0009 23.8589 14.0898C23.8589 16.2327 25.6022 17.976 27.7451 17.976C29.888 17.976 31.6314 16.2327 31.6314 14.0898C31.6314 13.5004 31.4989 12.9415 31.263 12.4404L36.9862 7.5506C37.6078 7.97273 38.3575 8.2198 39.164 8.2198C41.3069 8.2198 43.0503 6.47638 43.0503 4.33345C43.0503 2.19059 41.3069 0.447266 39.164 0.447266C37.021 0.447266 35.2777 2.19059 35.2777 4.33345C35.2777 4.92289 35.4102 5.48174 35.6461 5.98276L29.9229 10.8727C29.3013 10.4506 28.5515 10.2035 27.7451 10.2035C26.4231 10.2035 25.2539 10.8675 24.5515 11.8791L20.2025 10.3565C20.2085 10.2691 20.2125 10.181 20.2125 10.092C20.2125 7.94909 18.4691 6.20577 16.3261 6.20577C14.1832 6.20577 12.4399 7.94909 12.4399 10.092C12.4399 10.698 12.5794 11.2718 12.8278 11.7835L6.36883 17.4364C5.7548 17.03 5.0197 16.7927 4.22993 16.7927C2.08708 16.7927 0.34375 18.5361 0.34375 20.6789C0.34375 22.8218 2.08708 24.5652 4.22993 24.5652ZM39.1639 2.50985C40.1695 2.50985 40.9877 3.32798 40.9877 4.33353C40.9877 5.33917 40.1695 6.15738 39.1639 6.15738C38.1582 6.15738 37.3401 5.33917 37.3401 4.33353C37.3401 3.32798 38.1582 2.50985 39.1639 2.50985ZM27.745 12.2661C28.7507 12.2661 29.5689 13.0843 29.5689 14.0899C29.5689 15.0955 28.7507 15.9136 27.745 15.9136C26.7395 15.9136 25.9213 15.0955 25.9213 14.0899C25.9213 13.0843 26.7395 12.2661 27.745 12.2661ZM16.3262 8.26835C17.3319 8.26835 18.1501 9.08648 18.1501 10.0921C18.1501 11.0978 17.3319 11.916 16.3262 11.916C15.3206 11.916 14.5025 11.0978 14.5025 10.0921C14.5025 9.08648 15.3206 8.26835 16.3262 8.26835ZM4.22993 18.8552C5.23566 18.8552 6.05378 19.6734 6.05378 20.6789C6.05378 21.6846 5.23557 22.5027 4.22993 22.5027C3.22438 22.5027 2.40625 21.6846 2.40625 20.6789C2.40625 19.6734 3.22438 18.8552 4.22993 18.8552Z" fill="black"/>
</g>
<defs>
<clipPath id="clip0_594_351">
<rect width="44" height="44" fill="white"/>
</clipPath>
</defs>
</svg>
