<svg width="49" height="49" viewBox="0 0 49 49" fill="none" xmlns="http://www.w3.org/2000/svg">
<path d="M47.5645 38.2004H46.1169V12.2469C46.1169 11.4541 45.4742 10.8113 44.6814 10.8113H37.186C36.4804 9.0055 35.3848 7.3574 33.9402 5.96683C31.25 3.37729 27.7088 2.02903 23.9692 2.1722C20.4625 2.3058 17.1783 3.77953 14.7218 6.32179C13.4529 7.63503 12.4768 9.15997 11.8265 10.8112H4.3186C3.5258 10.8112 2.88306 11.454 2.88306 12.2468V38.2003H1.43555C0.642742 38.2003 0 38.8431 0 39.6359V42.5189C0 44.9002 1.93732 46.8375 4.3186 46.8375H44.6814C47.0627 46.8375 49 44.9002 49 42.5189V39.6359C49 38.8431 48.3573 38.2004 47.5645 38.2004ZM31.949 8.03526C34.0728 10.0797 35.2425 12.8286 35.2425 15.7757C35.2425 20.8897 31.6076 25.3212 26.5994 26.3128C26.1657 26.3986 25.7958 26.6796 25.5966 27.0743L24.5 29.2476L23.4034 27.0743C23.2043 26.6796 22.8343 26.3986 22.4006 26.3128C17.3664 25.3161 13.7315 20.8611 13.7576 15.7198C13.7869 9.95133 18.3204 5.26073 24.0785 5.04129C24.2205 5.03583 24.3617 5.03315 24.503 5.03315C27.2981 5.03315 29.9285 6.09029 31.949 8.03526ZM5.75415 13.6824H11.0483C10.945 14.3471 10.89 15.0227 10.8865 15.7053C10.8546 21.98 15.1284 27.4484 21.1449 28.9719L23.2183 33.081C23.4624 33.5648 23.9581 33.8698 24.5 33.8698C25.0419 33.8698 25.5375 33.5647 25.7817 33.081L27.8551 28.9718C33.8405 27.455 38.1136 22.0162 38.1136 15.7757C38.1136 15.0674 38.06 14.3682 37.9553 13.6824H43.2458V38.2004H5.75415V13.6824ZM2.87109 42.519V41.0715H17.5487C17.3871 41.5243 17.2983 42.0114 17.2983 42.519C17.2983 43.0266 17.3871 43.5138 17.5487 43.9665H4.3186C3.52044 43.9665 2.87109 43.3171 2.87109 42.519ZM21.6169 43.9665C20.8188 43.9665 20.1694 43.3172 20.1694 42.519C20.1694 41.7208 20.8188 41.0715 21.6169 41.0715H27.3831C28.1812 41.0715 28.8306 41.7208 28.8306 42.519C28.8306 43.3172 28.1812 43.9665 27.3831 43.9665H21.6169ZM46.1289 42.519C46.1289 43.3172 45.4796 43.9665 44.6814 43.9665H31.4513C31.6129 43.5138 31.7017 43.0266 31.7017 42.519C31.7017 42.0114 31.6129 41.5243 31.4513 41.0715H46.1289V42.519Z" fill="black"/>
<path d="M27.5339 12.6671L22.7708 15.8425L21.6889 14.7605C21.1284 14.2 20.2194 14.2 19.6588 14.7605C19.0981 15.3211 19.0981 16.2301 19.6588 16.7907L21.5728 18.7048C21.8503 18.9822 22.2179 19.1253 22.5883 19.1253C22.8639 19.1253 23.1413 19.0461 23.3841 18.8841L29.1263 15.056C29.786 14.6162 29.9643 13.7249 29.5245 13.0653C29.0847 12.4055 28.1934 12.2272 27.5339 12.6671Z" fill="black"/>
</svg>
