<svg width="66" height="65" viewBox="0 0 66 65" fill="none" xmlns="http://www.w3.org/2000/svg">
<g clip-path="url(#clip0_18_6)">
<path d="M32.6266 0H32.5C14.5507 0 0 14.5507 0 32.5C0 50.4493 14.5507 65 32.5 65H32.6266C50.5759 65 65.1266 50.4493 65.1266 32.5C65.1266 14.5507 50.5759 0 32.6266 0Z" fill="white"/>
<path d="M51.1977 22.894C50.9761 22.047 50.5411 21.2747 49.9365 20.6546C49.3319 20.0345 48.5788 19.5884 47.753 19.3611C45.4968 18.4671 23.6391 18.0291 17.2977 19.3861C16.4718 19.6135 15.7187 20.0597 15.114 20.68C14.5094 21.3003 14.0745 22.0729 13.853 22.92C12.8341 27.503 12.7571 37.4109 13.8784 42.0969C14.1 42.9439 14.535 43.7162 15.1396 44.3363C15.7442 44.9565 16.4972 45.4026 17.3231 45.6299C21.7915 46.6849 43.0349 46.8329 47.7784 45.6299C48.6042 45.4026 49.3572 44.9565 49.9618 44.3363C50.5664 43.7162 51.0014 42.9439 51.2231 42.0969C52.3092 37.1039 52.3862 27.81 51.1977 22.894Z" stroke="black" stroke-width="2" stroke-linecap="round" stroke-linejoin="round"/>
<path d="M38.9664 32.4949L28.7805 26.5039V38.4858L38.9664 32.4949Z" stroke="black" stroke-width="2" stroke-linecap="round" stroke-linejoin="round"/>
</g>
<defs>
<clipPath id="clip0_18_6">
<rect width="66" height="65" fill="white"/>
</clipPath>
</defs>
</svg>
